AnekOdia-ExtraBold.ufo
<glyph name="y" format="2">
  <advance width="1075"/>
  <unicode hex="0079"/>
  <anchor x="932" y="-43" name="bottom"/>
  <anchor x="538" y="985" name="top"/>
  <outline>
    <contour>
      <point x="695" y="276" type="line"/>
      <point x="513" y="276" type="line"/>
      <point x="375" y="985" type="line"/>
      <point x="11" y="985" type="line"/>
      <point x="260" y="43" type="line"/>
      <point x="650" y="43" type="line"/>
      <point x="482" y="174" type="line"/>
      <point x="329" y="-344" type="line"/>
      <point x="682" y="-344" type="line"/>
      <point x="1064" y="985" type="line"/>
      <point x="702" y="985" type="line"/>
      <point x="505" y="194" type="line"/>
    </contour>
  </outline>
</glyph>
<glyph name="sterling" format="2">
  <advance width="1102"/>
  <unicode hex="00A3"/>
  <outline>
    <contour>
      <point x="65" y="545" type="line"/>
      <point x="948" y="545" type="line"/>
      <point x="964" y="774" type="line"/>
      <point x="81" y="774" type="line"/>
    </contour>
    <contour>
      <point x="393" y="304" type="line"/>
      <point x="393" y="315" type="line"/>
      <point x="545" y="344"/>
      <point x="601" y="400"/>
      <point x="601" y="527" type="curve" smooth="yes"/>
      <point x="601" y="625"/>
      <point x="548" y="745"/>
      <point x="548" y="853" type="curve" smooth="yes"/>
      <point x="548" y="948"/>
      <point x="583" y="1002"/>
      <point x="756" y="1002" type="curve" smooth="yes"/>
      <point x="841" y="1002"/>
      <point x="918" y="991"/>
      <point x="1001" y="972" type="curve"/>
      <point x="975" y="1270" type="line"/>
      <point x="884" y="1294"/>
      <point x="767" y="1307"/>
      <point x="655" y="1307" type="curve" smooth="yes"/>
      <point x="315" y="1307"/>
      <point x="170" y="1178"/>
      <point x="170" y="924" type="curve" smooth="yes"/>
      <point x="170" y="782"/>
      <point x="229" y="610"/>
      <point x="229" y="486" type="curve" smooth="yes"/>
      <point x="229" y="392"/>
      <point x="200" y="338"/>
      <point x="129" y="311" type="curve" smooth="yes"/>
      <point x="72" y="289" type="line"/>
      <point x="72" y="0" type="line"/>
      <point x="1052" y="0" type="line"/>
      <point x="1052" y="304" type="line"/>
    </contour>
  </outline>
</glyph>
<glyph name="Candrabindu.or" format="2">
  <unicode hex="0B01"/>
  <anchor x="-385" y="1412" name="_top2"/>
  <outline>
    <contour>
      <point x="-384" y="1684" type="curve" smooth="yes"/>
      <point x="-474" y="1684"/>
      <point x="-510" y="1738"/>
      <point x="-510" y="1821" type="curve" smooth="yes"/>
      <point x="-510" y="1830" type="line" smooth="yes"/>
      <point x="-510" y="1911"/>
      <point x="-474" y="1967"/>
      <point x="-384" y="1967" type="curve" smooth="yes"/>
      <point x="-294" y="1967"/>
      <point x="-259" y="1911"/>
      <point x="-259" y="1830" type="curve" smooth="yes"/>
      <point x="-259" y="1821" type="line" smooth="yes"/>
      <point x="-259" y="1738"/>
      <point x="-294" y="1684"/>
    </contour>
    <contour>
      <point x="-187" y="1809" type="line"/>
      <point x="46" y="1809" type="line"/>
      <point x="51" y="1776"/>
      <point x="51" y="1758"/>
      <point x="51" y="1745" type="curve" smooth="yes"/>
      <point x="51" y="1525"/>
      <point x="-97" y="1412"/>
      <point x="-385" y="1412" type="curve" smooth="yes"/>
      <point x="-670" y="1412"/>
      <point x="-821" y="1525"/>
      <point x="-821" y="1745" type="curve" smooth="yes"/>
      <point x="-821" y="1759"/>
      <point x="-822" y="1771"/>
      <point x="-818" y="1809" type="curve"/>
      <point x="-583" y="1809" type="line"/>
      <point x="-583" y="1779" type="line" smooth="yes"/>
      <point x="-583" y="1673"/>
      <point x="-516" y="1619"/>
      <point x="-385" y="1619" type="curve" smooth="yes"/>
      <point x="-250" y="1619"/>
      <point x="-187" y="1675"/>
      <point x="-187" y="1779" type="curve" smooth="yes"/>
    </contour>
  </outline>
</glyph>
<glyph name="Anusvara.or" format="2">
  <advance width="731"/>
  <unicode hex="0B02"/>
  <outline>
    <contour>
      <point x="366" y="689" type="curve" smooth="yes"/>
      <point x="591" y="689"/>
      <point x="720" y="803"/>
      <point x="720" y="1005" type="curve" smooth="yes"/>
      <point x="720" y="1031" type="line" smooth="yes"/>
      <point x="720" y="1232"/>
      <point x="591" y="1345"/>
      <point x="366" y="1345" type="curve" smooth="yes"/>
      <point x="141" y="1345"/>
      <point x="13" y="1232"/>
      <point x="13" y="1031" type="curve" smooth="yes"/>
      <point x="13" y="1005" type="line" smooth="yes"/>
      <point x="13" y="803"/>
      <point x="141" y="689"/>
    </contour>
    <contour>
      <point x="365" y="905" type="curve" smooth="yes"/>
      <point x="305" y="905"/>
      <point x="275" y="942"/>
      <point x="275" y="1004" type="curve" smooth="yes"/>
      <point x="275" y="1031" type="line" smooth="yes"/>
      <point x="275" y="1091"/>
      <point x="305" y="1129"/>
      <point x="365" y="1129" type="curve" smooth="yes"/>
      <point x="424" y="1129"/>
      <point x="454" y="1091"/>
      <point x="454" y="1032" type="curve" smooth="yes"/>
      <point x="454" y="1005" type="line" smooth="yes"/>
      <point x="454" y="943"/>
      <point x="424" y="905"/>
    </contour>
  </outline>
</glyph>
<glyph name="Visarga.or" format="2">
  <advance width="970"/>
  <unicode hex="0B03"/>
  <outline>
    <contour>
      <point x="479" y="-16" type="curve" smooth="yes"/>
      <point x="762" y="-16"/>
      <point x="912" y="104"/>
      <point x="912" y="333" type="curve" smooth="yes"/>
      <point x="912" y="359" type="line" smooth="yes"/>
      <point x="912" y="512"/>
      <point x="837" y="599"/>
      <point x="677" y="701" type="curve"/>
      <point x="530" y="775" type="line"/>
      <point x="416" y="843"/>
      <point x="372" y="906"/>
      <point x="372" y="982" type="curve" smooth="yes"/>
      <point x="372" y="994" type="line" smooth="yes"/>
      <point x="372" y="1069"/>
      <point x="407" y="1110"/>
      <point x="479" y="1110" type="curve" smooth="yes"/>
      <point x="555" y="1110"/>
      <point x="591" y="1065"/>
      <point x="591" y="986" type="curve" smooth="yes"/>
      <point x="591" y="974" type="line" smooth="yes"/>
      <point x="591" y="909"/>
      <point x="555" y="844"/>
      <point x="446" y="765" type="curve"/>
      <point x="303" y="705" type="line"/>
      <point x="122" y="601"/>
      <point x="58" y="500"/>
      <point x="58" y="355" type="curve" smooth="yes"/>
      <point x="58" y="329" type="line" smooth="yes"/>
      <point x="58" y="106"/>
      <point x="206" y="-16"/>
    </contour>
    <contour>
      <point x="486" y="240" type="curve" smooth="yes"/>
      <point x="411" y="240"/>
      <point x="373" y="287"/>
      <point x="373" y="358" type="curve" smooth="yes"/>
      <point x="373" y="369" type="line" smooth="yes"/>
      <point x="373" y="442"/>
      <point x="411" y="506"/>
      <point x="520" y="578" type="curve"/>
      <point x="664" y="642" type="line"/>
      <point x="830" y="741"/>
      <point x="906" y="841"/>
      <point x="906" y="995" type="curve" smooth="yes"/>
      <point x="906" y="1022" type="line" smooth="yes"/>
      <point x="906" y="1244"/>
      <point x="759" y="1366"/>
      <point x="490" y="1366" type="curve" smooth="yes"/>
      <point x="210" y="1366"/>
      <point x="58" y="1244"/>
      <point x="58" y="1017" type="curve" smooth="yes"/>
      <point x="58" y="987" type="line" smooth="yes"/>
      <point x="58" y="840"/>
      <point x="121" y="736"/>
      <point x="302" y="647" type="curve"/>
      <point x="437" y="578" type="line"/>
      <point x="554" y="507"/>
      <point x="598" y="448"/>
      <point x="598" y="365" type="curve" smooth="yes"/>
      <point x="598" y="354" type="line" smooth="yes"/>
      <point x="598" y="279"/>
      <point x="562" y="240"/>
    </contour>
  </outline>
</glyph>
<glyph name="VowelA.or" format="2">
  <advance width="1673"/>
  <unicode hex="0B05"/>
  <anchor x="1400" y="1412" name="top2"/>
  <outline>
    <contour>
      <point x="1260" y="0" type="line"/>
      <point x="1579" y="0" type="line"/>
      <point x="1579" y="1351" type="line"/>
      <point x="1260" y="1351" type="line"/>
      <point x="1260" y="354" type="line"/>
      <point x="1270" y="299" type="line"/>
    </contour>
    <contour>
      <point x="667" y="-27" type="curve" smooth="yes"/>
      <point x="1017" y="-27"/>
      <point x="1193" y="75"/>
      <point x="1258" y="246" type="curve"/>
      <point x="1341" y="246" type="line"/>
      <point x="1269" y="499" type="line"/>
      <point x="1197" y="364"/>
      <point x="999" y="271"/>
      <point x="731" y="271" type="curve" smooth="yes"/>
      <point x="495" y="271"/>
      <point x="406" y="313"/>
      <point x="406" y="397" type="curve" smooth="yes"/>
      <point x="406" y="404" type="line" smooth="yes"/>
      <point x="406" y="466"/>
      <point x="440" y="494"/>
      <point x="542" y="512" type="curve" smooth="yes"/>
      <point x="760" y="551" type="line" smooth="yes"/>
      <point x="1039" y="601"/>
      <point x="1144" y="743"/>
      <point x="1144" y="959" type="curve" smooth="yes"/>
      <point x="1144" y="1044" type="line" smooth="yes"/>
      <point x="1144" y="1260"/>
      <point x="1053" y="1367"/>
      <point x="860" y="1367" type="curve" smooth="yes"/>
      <point x="718" y="1367"/>
      <point x="632" y="1304"/>
      <point x="605" y="1204" type="curve"/>
      <point x="598" y="1204" type="line"/>
      <point x="571" y="1305"/>
      <point x="496" y="1367"/>
      <point x="357" y="1367" type="curve" smooth="yes"/>
      <point x="169" y="1367"/>
      <point x="65" y="1267"/>
      <point x="65" y="1059" type="curve" smooth="yes"/>
      <point x="65" y="1016" type="line" smooth="yes"/>
      <point x="65" y="957"/>
      <point x="75" y="902"/>
      <point x="94" y="857" type="curve"/>
      <point x="385" y="842" type="line"/>
      <point x="371" y="889"/>
      <point x="363" y="930"/>
      <point x="363" y="975" type="curve" smooth="yes"/>
      <point x="363" y="1035" type="line" smooth="yes"/>
      <point x="363" y="1086"/>
      <point x="378" y="1113"/>
      <point x="415" y="1113" type="curve" smooth="yes"/>
      <point x="451" y="1113"/>
      <point x="467" y="1086"/>
      <point x="467" y="1035" type="curve" smooth="yes"/>
      <point x="468" y="894" type="line"/>
      <point x="734" y="894" type="line"/>
      <point x="735" y="1035" type="line" smooth="yes"/>
      <point x="735" y="1086"/>
      <point x="751" y="1113"/>
      <point x="787" y="1113" type="curve" smooth="yes"/>
      <point x="825" y="1113"/>
      <point x="839" y="1086"/>
      <point x="839" y="1035" type="curve" smooth="yes"/>
      <point x="839" y="966" type="line" smooth="yes"/>
      <point x="839" y="876"/>
      <point x="809" y="833"/>
      <point x="683" y="809" type="curve" smooth="yes"/>
      <point x="451" y="766" type="line" smooth="yes"/>
      <point x="165" y="713"/>
      <point x="55" y="603"/>
      <point x="55" y="397" type="curve" smooth="yes"/>
      <point x="55" y="377" type="line" smooth="yes"/>
      <point x="55" y="117"/>
      <point x="253" y="-27"/>
    </contour>
  </outline>
</glyph>
<glyph name="VowelI.or" format="2">
  <advance width="1886"/>
  <unicode hex="0B07"/>
  <anchor x="1419" y="1438" name="top2"/>
  <outline>
    <contour>
      <point x="1922" y="-227" type="line"/>
      <point x="1922" y="92" type="line"/>
      <point x="1638" y="164" type="line"/>
      <point x="1689" y="116" type="line"/>
      <point x="1772" y="190"/>
      <point x="1808" y="295"/>
      <point x="1808" y="426" type="curve" smooth="yes"/>
      <point x="1808" y="651" type="line" smooth="yes"/>
      <point x="1808" y="1130"/>
      <point x="1486" y="1392"/>
      <point x="899" y="1392" type="curve" smooth="yes"/>
      <point x="362" y="1392"/>
      <point x="53" y="1175"/>
      <point x="53" y="775" type="curve" smooth="yes"/>
      <point x="53" y="734" type="line" smooth="yes"/>
      <point x="53" y="522"/>
      <point x="158" y="387"/>
      <point x="322" y="338" type="curve"/>
      <point x="459" y="603" type="line"/>
      <point x="411" y="632"/>
      <point x="393" y="676"/>
      <point x="393" y="741" type="curve" smooth="yes"/>
      <point x="393" y="770" type="line" smooth="yes"/>
      <point x="393" y="986"/>
      <point x="557" y="1097"/>
      <point x="899" y="1097" type="curve" smooth="yes"/>
      <point x="1287" y="1097"/>
      <point x="1477" y="933"/>
      <point x="1477" y="607" type="curve" smooth="yes"/>
      <point x="1477" y="366" type="line" smooth="yes"/>
      <point x="1477" y="212"/>
      <point x="1437" y="101"/>
      <point x="1372" y="19" type="curve"/>
    </contour>
    <contour>
      <point x="581" y="230" type="curve" smooth="yes"/>
      <point x="538" y="230"/>
      <point x="517" y="262"/>
      <point x="517" y="321" type="curve" smooth="yes"/>
      <point x="517" y="420" type="line" smooth="yes"/>
      <point x="517" y="480"/>
      <point x="538" y="511"/>
      <point x="581" y="511" type="curve" smooth="yes"/>
      <point x="624" y="511"/>
      <point x="645" y="480"/>
      <point x="645" y="420" type="curve" smooth="yes"/>
      <point x="645" y="321" type="line" smooth="yes"/>
      <point x="645" y="262"/>
      <point x="624" y="230"/>
    </contour>
    <contour>
      <point x="526" y="-20" type="curve" smooth="yes"/>
      <point x="667" y="-20"/>
      <point x="751" y="46"/>
      <point x="782" y="139" type="curve"/>
      <point x="789" y="139" type="line"/>
      <point x="823" y="47"/>
      <point x="910" y="-20"/>
      <point x="1051" y="-20" type="curve" smooth="yes"/>
      <point x="1257" y="-20"/>
      <point x="1360" y="99"/>
      <point x="1360" y="326" type="curve" smooth="yes"/>
      <point x="1360" y="413" type="line" smooth="yes"/>
      <point x="1360" y="643"/>
      <point x="1258" y="761"/>
      <point x="1054" y="761" type="curve" smooth="yes"/>
      <point x="913" y="761"/>
      <point x="827" y="697"/>
      <point x="793" y="602" type="curve"/>
      <point x="786" y="602" type="line"/>
      <point x="756" y="706"/>
      <point x="691" y="761"/>
      <point x="569" y="761" type="curve" smooth="yes"/>
      <point x="449" y="761"/>
      <point x="378" y="705"/>
      <point x="343" y="605" type="curve"/>
      <point x="261" y="573" type="line"/>
      <point x="235" y="531"/>
      <point x="213" y="472"/>
      <point x="213" y="407" type="curve" smooth="yes"/>
      <point x="213" y="324" type="line" smooth="yes"/>
      <point x="213" y="99"/>
      <point x="315" y="-20"/>
    </contour>
    <contour>
      <point x="992" y="230" type="curve" smooth="yes"/>
      <point x="950" y="230"/>
      <point x="928" y="262"/>
      <point x="928" y="321" type="curve" smooth="yes"/>
      <point x="928" y="420" type="line" smooth="yes"/>
      <point x="928" y="480"/>
      <point x="950" y="511"/>
      <point x="992" y="511" type="curve" smooth="yes"/>
      <point x="1035" y="511"/>
      <point x="1056" y="480"/>
      <point x="1056" y="420" type="curve" smooth="yes"/>
      <point x="1056" y="321" type="line" smooth="yes"/>
      <point x="1056" y="262"/>
      <point x="1035" y="230"/>
    </contour>
  </outline>
</glyph>
<glyph name="VowelIi.or" format="2">
  <advance width="1880"/>
  <unicode hex="0B08"/>
  <anchor x="1464" y="1412" name="top2"/>
  <outline>
    <contour>
      <point x="1916" y="-227" type="line"/>
      <point x="1917" y="92" type="line"/>
      <point x="1633" y="164" type="line"/>
      <point x="1684" y="116" type="line"/>
      <point x="1767" y="190"/>
      <point x="1803" y="295"/>
      <point x="1803" y="426" type="curve" smooth="yes"/>
      <point x="1803" y="641" type="line" smooth="yes"/>
      <point x="1803" y="1119"/>
      <point x="1509" y="1392"/>
      <point x="969" y="1392" type="curve" smooth="yes"/>
      <point x="553" y="1392"/>
      <point x="321" y="1204"/>
      <point x="294" y="987" type="curve"/>
      <point x="294" y="956"/>
      <point x="296" y="923"/>
      <point x="300" y="890" type="curve"/>
      <point x="635" y="877" type="line"/>
      <point x="630" y="903"/>
      <point x="629" y="930"/>
      <point x="629" y="955" type="curve"/>
      <point x="650" y="1054"/>
      <point x="759" y="1100"/>
      <point x="954" y="1100" type="curve" smooth="yes"/>
      <point x="1302" y="1100"/>
      <point x="1472" y="926"/>
      <point x="1472" y="608" type="curve" smooth="yes"/>
      <point x="1472" y="366" type="line" smooth="yes"/>
      <point x="1472" y="212"/>
      <point x="1432" y="101"/>
      <point x="1367" y="19" type="curve"/>
    </contour>
    <contour>
      <point x="576" y="230" type="curve" smooth="yes"/>
      <point x="533" y="230"/>
      <point x="512" y="262"/>
      <point x="512" y="321" type="curve" smooth="yes"/>
      <point x="512" y="395" type="line" smooth="yes"/>
      <point x="512" y="455"/>
      <point x="533" y="486"/>
      <point x="576" y="486" type="curve" smooth="yes"/>
      <point x="619" y="486"/>
      <point x="640" y="455"/>
      <point x="640" y="395" type="curve" smooth="yes"/>
      <point x="640" y="321" type="line" smooth="yes"/>
      <point x="640" y="262"/>
      <point x="619" y="230"/>
    </contour>
    <contour>
      <point x="521" y="-20" type="curve" smooth="yes"/>
      <point x="662" y="-20"/>
      <point x="746" y="46"/>
      <point x="777" y="139" type="curve"/>
      <point x="784" y="139" type="line"/>
      <point x="818" y="47"/>
      <point x="905" y="-20"/>
      <point x="1046" y="-20" type="curve" smooth="yes"/>
      <point x="1252" y="-20"/>
      <point x="1355" y="99"/>
      <point x="1355" y="326" type="curve" smooth="yes"/>
      <point x="1355" y="388" type="line" smooth="yes"/>
      <point x="1355" y="618"/>
      <point x="1253" y="736"/>
      <point x="1049" y="736" type="curve" smooth="yes"/>
      <point x="908" y="736"/>
      <point x="822" y="672"/>
      <point x="788" y="577" type="curve"/>
      <point x="781" y="577" type="line"/>
      <point x="751" y="681"/>
      <point x="685" y="736"/>
      <point x="562" y="736" type="curve" smooth="yes"/>
      <point x="436" y="736"/>
      <point x="365" y="682"/>
      <point x="328" y="580" type="curve"/>
      <point x="256" y="548" type="line"/>
      <point x="230" y="506"/>
      <point x="208" y="447"/>
      <point x="208" y="382" type="curve" smooth="yes"/>
      <point x="208" y="324" type="line" smooth="yes"/>
      <point x="208" y="99"/>
      <point x="310" y="-20"/>
    </contour>
    <contour>
      <point x="268" y="373" type="curve"/>
      <point x="424" y="578" type="line"/>
      <point x="374" y="598"/>
      <point x="345" y="631"/>
      <point x="345" y="681" type="curve" smooth="yes"/>
      <point x="345" y="688" type="line" smooth="yes"/>
      <point x="345" y="769"/>
      <point x="403" y="815"/>
      <point x="541" y="815" type="curve" smooth="yes"/>
      <point x="545" y="815" type="line" smooth="yes"/>
      <point x="648" y="815"/>
      <point x="758" y="789"/>
      <point x="820" y="763" type="curve"/>
      <point x="796" y="998" type="line"/>
      <point x="751" y="1014"/>
      <point x="695" y="1024"/>
      <point x="613" y="1034" type="curve"/>
      <point x="451" y="1057" type="line"/>
      <point x="201" y="1054"/>
      <point x="33" y="932"/>
      <point x="33" y="690" type="curve" smooth="yes"/>
      <point x="33" y="675" type="line" smooth="yes"/>
      <point x="33" y="504"/>
      <point x="130" y="406"/>
    </contour>
    <contour>
      <point x="987" y="230" type="curve" smooth="yes"/>
      <point x="945" y="230"/>
      <point x="923" y="262"/>
      <point x="923" y="321" type="curve" smooth="yes"/>
      <point x="923" y="395" type="line" smooth="yes"/>
      <point x="923" y="455"/>
      <point x="945" y="486"/>
      <point x="987" y="486" type="curve" smooth="yes"/>
      <point x="1030" y="486"/>
      <point x="1051" y="455"/>
      <point x="1051" y="395" type="curve" smooth="yes"/>
      <point x="1051" y="321" type="line" smooth="yes"/>
      <point x="1051" y="262"/>
      <point x="1030" y="230"/>
    </contour>
  </outline>
</glyph>
<glyph name="VowelU.or" format="2">
  <advance width="1803"/>
  <unicode hex="0B09"/>
  <anchor x="1382" y="1412" name="top2"/>
  <outline>
    <contour>
      <point x="1837" y="-227" type="line"/>
      <point x="1837" y="91" type="line"/>
      <point x="1559" y="166" type="line"/>
      <point x="1601" y="116" type="line"/>
      <point x="1687" y="193"/>
      <point x="1726" y="304"/>
      <point x="1726" y="435" type="curve" smooth="yes"/>
      <point x="1726" y="673" type="line" smooth="yes"/>
      <point x="1726" y="1136"/>
      <point x="1421" y="1392"/>
      <point x="863" y="1392" type="curve" smooth="yes"/>
      <point x="344" y="1392"/>
      <point x="53" y="1177"/>
      <point x="53" y="776" type="curve" smooth="yes"/>
      <point x="53" y="746" type="line" smooth="yes"/>
      <point x="53" y="528"/>
      <point x="155" y="386"/>
      <point x="352" y="324" type="curve"/>
      <point x="472" y="600" type="line"/>
      <point x="418" y="629"/>
      <point x="393" y="675"/>
      <point x="393" y="750" type="curve" smooth="yes"/>
      <point x="393" y="771" type="line" smooth="yes"/>
      <point x="393" y="987"/>
      <point x="542" y="1097"/>
      <point x="863" y="1097" type="curve" smooth="yes"/>
      <point x="1219" y="1097"/>
      <point x="1395" y="938"/>
      <point x="1395" y="640" type="curve" smooth="yes"/>
      <point x="1395" y="357" type="line" smooth="yes"/>
      <point x="1395" y="230"/>
      <point x="1353" y="109"/>
      <point x="1280" y="19" type="curve"/>
    </contour>
    <contour>
      <point x="780" y="-28" type="curve" smooth="yes"/>
      <point x="1067" y="-28"/>
      <point x="1235" y="90"/>
      <point x="1235" y="290" type="curve" smooth="yes"/>
      <point x="1235" y="296" type="line" smooth="yes"/>
      <point x="1235" y="405"/>
      <point x="1186" y="460"/>
      <point x="1094" y="488" type="curve"/>
      <point x="1094" y="521" type="line"/>
      <point x="909" y="427" type="line"/>
      <point x="929" y="412"/>
      <point x="935" y="382"/>
      <point x="935" y="354" type="curve" smooth="yes"/>
      <point x="935" y="345" type="line" smooth="yes"/>
      <point x="935" y="271"/>
      <point x="883" y="220"/>
      <point x="781" y="220" type="curve" smooth="yes"/>
      <point x="666" y="220"/>
      <point x="618" y="278"/>
      <point x="618" y="361" type="curve" smooth="yes"/>
      <point x="618" y="386" type="line" smooth="yes"/>
      <point x="618" y="449"/>
      <point x="643" y="490"/>
      <point x="698" y="512" type="curve"/>
      <point x="698" y="788" type="line"/>
      <point x="560" y="768"/>
      <point x="432" y="699"/>
      <point x="377" y="571" type="curve"/>
      <point x="329" y="528" type="line"/>
      <point x="310" y="485"/>
      <point x="302" y="446"/>
      <point x="302" y="396" type="curve" smooth="yes"/>
      <point x="302" y="361" type="line" smooth="yes"/>
      <point x="302" y="109"/>
      <point x="460" y="-28"/>
    </contour>
    <contour>
      <point x="770" y="344" type="line"/>
      <point x="967" y="435" type="line"/>
      <point x="1066" y="482" type="line"/>
      <point x="1216" y="551" type="line"/>
      <point x="1216" y="823" type="line"/>
      <point x="770" y="623" type="line"/>
    </contour>
  </outline>
</glyph>
<glyph name="VowelUu.or" format="2">
  <advance width="1821"/>
  <unicode hex="0B0A"/>
  <anchor x="1418" y="1412" name="top2"/>
  <outline>
    <contour>
      <point x="1829" y="-227" type="line"/>
      <point x="1829" y="87" type="line"/>
      <point x="1534" y="157" type="line"/>
      <point x="1512" y="110" type="line"/>
      <point x="1561" y="119" type="line"/>
      <point x="1715" y="135"/>
      <point x="1781" y="223"/>
      <point x="1781" y="354" type="curve" smooth="yes"/>
      <point x="1781" y="365" type="line" smooth="yes"/>
      <point x="1781" y="507"/>
      <point x="1715" y="581"/>
      <point x="1616" y="608" type="curve"/>
      <point x="1620" y="559" type="line"/>
      <point x="1693" y="600"/>
      <point x="1724" y="684"/>
      <point x="1724" y="777" type="curve" smooth="yes"/>
      <point x="1724" y="806" type="line" smooth="yes"/>
      <point x="1724" y="1177"/>
      <point x="1402" y="1392"/>
      <point x="874" y="1392" type="curve" smooth="yes"/>
      <point x="347" y="1392"/>
      <point x="53" y="1186"/>
      <point x="53" y="799" type="curve" smooth="yes"/>
      <point x="53" y="777" type="line" smooth="yes"/>
      <point x="53" y="545"/>
      <point x="154" y="408"/>
      <point x="373" y="336" type="curve"/>
      <point x="486" y="612" type="line"/>
      <point x="416" y="646"/>
      <point x="393" y="691"/>
      <point x="393" y="776" type="curve" smooth="yes"/>
      <point x="393" y="794" type="line" smooth="yes"/>
      <point x="393" y="990"/>
      <point x="543" y="1097"/>
      <point x="870" y="1097" type="curve" smooth="yes"/>
      <point x="1218" y="1097"/>
      <point x="1393" y="980"/>
      <point x="1393" y="771" type="curve" smooth="yes"/>
      <point x="1393" y="729" type="line" smooth="yes"/>
      <point x="1393" y="677"/>
      <point x="1376" y="635"/>
      <point x="1322" y="630" type="curve" smooth="yes"/>
      <point x="1312" y="629" type="line"/>
      <point x="1312" y="420" type="line"/>
      <point x="1369" y="418" type="line" smooth="yes"/>
      <point x="1447" y="415"/>
      <point x="1478" y="382"/>
      <point x="1478" y="319" type="curve" smooth="yes"/>
      <point x="1478" y="312" type="line" smooth="yes"/>
      <point x="1478" y="246"/>
      <point x="1445" y="212"/>
      <point x="1368" y="208" type="curve" smooth="yes"/>
      <point x="1307" y="205" type="line"/>
      <point x="1307" y="-2" type="line"/>
    </contour>
    <contour>
      <point x="751" y="-28" type="curve" smooth="yes"/>
      <point x="1038" y="-28"/>
      <point x="1206" y="90"/>
      <point x="1206" y="290" type="curve" smooth="yes"/>
      <point x="1206" y="296" type="line" smooth="yes"/>
      <point x="1206" y="405"/>
      <point x="1157" y="460"/>
      <point x="1065" y="488" type="curve"/>
      <point x="1065" y="521" type="line"/>
      <point x="880" y="427" type="line"/>
      <point x="900" y="412"/>
      <point x="906" y="382"/>
      <point x="906" y="354" type="curve" smooth="yes"/>
      <point x="906" y="345" type="line" smooth="yes"/>
      <point x="906" y="271"/>
      <point x="854" y="220"/>
      <point x="752" y="220" type="curve" smooth="yes"/>
      <point x="637" y="220"/>
      <point x="589" y="278"/>
      <point x="589" y="361" type="curve" smooth="yes"/>
      <point x="589" y="386" type="line" smooth="yes"/>
      <point x="589" y="449"/>
      <point x="614" y="490"/>
      <point x="669" y="512" type="curve"/>
      <point x="669" y="788" type="line"/>
      <point x="531" y="768"/>
      <point x="403" y="699"/>
      <point x="343" y="571" type="curve"/>
      <point x="300" y="528" type="line"/>
      <point x="281" y="485"/>
      <point x="273" y="446"/>
      <point x="273" y="396" type="curve" smooth="yes"/>
      <point x="273" y="361" type="line" smooth="yes"/>
      <point x="273" y="109"/>
      <point x="431" y="-28"/>
    </contour>
    <contour>
      <point x="741" y="344" type="line"/>
      <point x="938" y="435" type="line"/>
      <point x="1037" y="482" type="line"/>
      <point x="1187" y="551" type="line"/>
      <point x="1187" y="823" type="line"/>
      <point x="741" y="623" type="line"/>
    </contour>
  </outline>
</glyph>
<glyph name="VowelVocalicR.or" format="2">
  <advance width="1772"/>
  <unicode hex="0B0B"/>
  <anchor x="849" y="1840" name="top1"/>
  <anchor x="1384" y="1412" name="top2"/>
  <outline>
    <contour>
      <point x="1780" y="-227" type="line"/>
      <point x="1780" y="87" type="line"/>
      <point x="1485" y="157" type="line"/>
      <point x="1463" y="110" type="line"/>
      <point x="1512" y="119" type="line"/>
      <point x="1666" y="135"/>
      <point x="1732" y="223"/>
      <point x="1732" y="354" type="curve" smooth="yes"/>
      <point x="1732" y="365" type="line" smooth="yes"/>
      <point x="1732" y="507"/>
      <point x="1666" y="581"/>
      <point x="1567" y="608" type="curve"/>
      <point x="1571" y="559" type="line"/>
      <point x="1644" y="600"/>
      <point x="1675" y="684"/>
      <point x="1675" y="777" type="curve" smooth="yes"/>
      <point x="1675" y="813" type="line" smooth="yes"/>
      <point x="1675" y="1180"/>
      <point x="1362" y="1392"/>
      <point x="849" y="1392" type="curve" smooth="yes"/>
      <point x="338" y="1392"/>
      <point x="53" y="1189"/>
      <point x="53" y="807" type="curve" smooth="yes"/>
      <point x="53" y="785" type="line" smooth="yes"/>
      <point x="53" y="549"/>
      <point x="157" y="409"/>
      <point x="383" y="336" type="curve"/>
      <point x="496" y="612" type="line"/>
      <point x="419" y="648"/>
      <point x="393" y="695"/>
      <point x="393" y="784" type="curve" smooth="yes"/>
      <point x="393" y="802" type="line" smooth="yes"/>
      <point x="393" y="993"/>
      <point x="535" y="1097"/>
      <point x="845" y="1097" type="curve" smooth="yes"/>
      <point x="1177" y="1097"/>
      <point x="1344" y="983"/>
      <point x="1344" y="778" type="curve" smooth="yes"/>
      <point x="1344" y="729" type="line" smooth="yes"/>
      <point x="1344" y="677"/>
      <point x="1327" y="635"/>
      <point x="1273" y="630" type="curve" smooth="yes"/>
      <point x="1263" y="629" type="line"/>
      <point x="1263" y="420" type="line"/>
      <point x="1320" y="418" type="line" smooth="yes"/>
      <point x="1398" y="415"/>
      <point x="1429" y="382"/>
      <point x="1429" y="319" type="curve" smooth="yes"/>
      <point x="1429" y="312" type="line" smooth="yes"/>
      <point x="1429" y="246"/>
      <point x="1396" y="212"/>
      <point x="1319" y="208" type="curve" smooth="yes"/>
      <point x="1258" y="205" type="line"/>
      <point x="1258" y="-2" type="line"/>
    </contour>
    <contour>
      <point x="738" y="-27" type="curve" smooth="yes"/>
      <point x="1020" y="-27"/>
      <point x="1166" y="102"/>
      <point x="1166" y="342" type="curve" smooth="yes"/>
      <point x="1166" y="391" type="line" smooth="yes"/>
      <point x="1166" y="630"/>
      <point x="1022" y="760"/>
      <point x="751" y="760" type="curve" smooth="yes"/>
      <point x="554" y="760"/>
      <point x="440" y="675"/>
      <point x="386" y="556" type="curve"/>
      <point x="332" y="505" type="line"/>
      <point x="320" y="472"/>
      <point x="312" y="431"/>
      <point x="312" y="393" type="curve" smooth="yes"/>
      <point x="312" y="342" type="line" smooth="yes"/>
      <point x="312" y="102"/>
      <point x="458" y="-27"/>
    </contour>
    <contour>
      <point x="738" y="216" type="curve" smooth="yes"/>
      <point x="662" y="216"/>
      <point x="627" y="261"/>
      <point x="627" y="347" type="curve" smooth="yes"/>
      <point x="627" y="385" type="line" smooth="yes"/>
      <point x="627" y="472"/>
      <point x="662" y="517"/>
      <point x="738" y="517" type="curve" smooth="yes"/>
      <point x="815" y="517"/>
      <point x="850" y="472"/>
      <point x="850" y="385" type="curve" smooth="yes"/>
      <point x="850" y="347" type="line" smooth="yes"/>
      <point x="850" y="261"/>
      <point x="815" y="216"/>
    </contour>
  </outline>
</glyph>
<glyph name="VowelVocalicL.or" format="2">
  <advance width="1440"/>
  <unicode hex="0B0C"/>
  <anchor x="1120" y="1412" name="top2"/>
  <outline>
    <contour>
      <point x="740" y="-24" type="curve" smooth="yes"/>
      <point x="1151" y="-24"/>
      <point x="1396" y="119"/>
      <point x="1396" y="365" type="curve" smooth="yes"/>
      <point x="1396" y="384" type="line" smooth="yes"/>
      <point x="1396" y="577"/>
      <point x="1275" y="698"/>
      <point x="1012" y="698" type="curve" smooth="yes"/>
      <point x="786" y="698"/>
      <point x="622" y="600"/>
      <point x="622" y="422" type="curve" smooth="yes"/>
      <point x="622" y="410" type="line" smooth="yes"/>
      <point x="622" y="309"/>
      <point x="686" y="242"/>
      <point x="784" y="210" type="curve"/>
      <point x="1001" y="249" type="line"/>
      <point x="947" y="270"/>
      <point x="907" y="317"/>
      <point x="907" y="375" type="curve" smooth="yes"/>
      <point x="907" y="383" type="line" smooth="yes"/>
      <point x="907" y="444"/>
      <point x="941" y="477"/>
      <point x="1004" y="477" type="curve" smooth="yes"/>
      <point x="1064" y="477"/>
      <point x="1096" y="445"/>
      <point x="1096" y="384" type="curve" smooth="yes"/>
      <point x="1096" y="378" type="line" smooth="yes"/>
      <point x="1096" y="319"/>
      <point x="1042" y="267"/>
      <point x="944" y="256" type="curve"/>
      <point x="853" y="242" type="line"/>
      <point x="816" y="240"/>
      <point x="784" y="239"/>
      <point x="751" y="239" type="curve"/>
      <point x="492" y="243"/>
      <point x="393" y="312"/>
      <point x="393" y="436" type="curve" smooth="yes"/>
      <point x="393" y="445" type="line" smooth="yes"/>
      <point x="393" y="535"/>
      <point x="442" y="582"/>
      <point x="568" y="628" type="curve" smooth="yes"/>
      <point x="774" y="704" type="line" smooth="yes"/>
      <point x="1056" y="808"/>
      <point x="1156" y="882"/>
      <point x="1156" y="1068" type="curve" smooth="yes"/>
      <point x="1156" y="1079" type="line" smooth="yes"/>
      <point x="1156" y="1271"/>
      <point x="1003" y="1392"/>
      <point x="719" y="1392" type="curve" smooth="yes"/>
      <point x="451" y="1392"/>
      <point x="283" y="1289"/>
      <point x="283" y="1097" type="curve" smooth="yes"/>
      <point x="283" y="1088" type="line" smooth="yes"/>
      <point x="283" y="1048"/>
      <point x="294" y="1010"/>
      <point x="311" y="979" type="curve"/>
      <point x="609" y="970" type="line"/>
      <point x="594" y="995"/>
      <point x="585" y="1017"/>
      <point x="585" y="1043" type="curve" smooth="yes"/>
      <point x="585" y="1050" type="line" smooth="yes"/>
      <point x="585" y="1112"/>
      <point x="629" y="1146"/>
      <point x="712" y="1146" type="curve" smooth="yes"/>
      <point x="797" y="1146"/>
      <point x="837" y="1117"/>
      <point x="837" y="1065" type="curve" smooth="yes"/>
      <point x="837" y="1059" type="line" smooth="yes"/>
      <point x="837" y="1006"/>
      <point x="791" y="979"/>
      <point x="687" y="945" type="curve" smooth="yes"/>
      <point x="474" y="876" type="line" smooth="yes"/>
      <point x="204" y="788"/>
      <point x="54" y="686"/>
      <point x="54" y="443" type="curve" smooth="yes"/>
      <point x="54" y="422" type="line" smooth="yes"/>
      <point x="54" y="135"/>
      <point x="302" y="-24"/>
    </contour>
  </outline>
</glyph>
<glyph name="VowelE.or" format="2">
  <advance width="1432"/>
  <unicode hex="0B0F"/>
  <anchor x="1123" y="1412" name="top2"/>
  <outline>
    <contour>
      <point x="846" y="0" type="line"/>
      <point x="1338" y="0" type="line"/>
      <point x="1338" y="1350" type="line"/>
      <point x="865" y="1350" type="line"/>
      <point x="460" y="836" type="line"/>
      <point x="830" y="836" type="line"/>
      <point x="1012" y="1099" type="line"/>
      <point x="1027" y="1099" type="line"/>
      <point x="1024" y="959"/>
      <point x="1022" y="875"/>
      <point x="1022" y="740" type="curve" smooth="yes"/>
      <point x="1022" y="265" type="line"/>
      <point x="1005" y="265" type="line"/>
      <point x="20" y="1149" type="line"/>
      <point x="20" y="733" type="line"/>
    </contour>
  </outline>
</glyph>
<glyph name="VowelAi.or" format="2">
  <advance width="1946"/>
  <unicode hex="0B10"/>
  <anchor x="1958" y="1567" name="top2"/>
  <outline>
    <contour>
      <point x="1533" y="0" type="line"/>
      <point x="1852" y="0" type="line"/>
      <point x="1852" y="1330" type="line" smooth="yes"/>
      <point x="1852" y="1634"/>
      <point x="1715" y="1747"/>
      <point x="1395" y="1753" type="curve" smooth="yes"/>
      <point x="987" y="1761" type="line" smooth="yes"/>
      <point x="883" y="1763"/>
      <point x="836" y="1798"/>
      <point x="832" y="1877" type="curve" smooth="yes"/>
      <point x="830" y="1913" type="line"/>
      <point x="522" y="1913" type="line"/>
      <point x="522" y="1868" type="line" smooth="yes"/>
      <point x="522" y="1619"/>
      <point x="651" y="1507"/>
      <point x="963" y="1501" type="curve" smooth="yes"/>
      <point x="1364" y="1493" type="line" smooth="yes"/>
      <point x="1499" y="1490"/>
      <point x="1533" y="1436"/>
      <point x="1533" y="1317" type="curve" smooth="yes"/>
    </contour>
    <contour>
      <point x="1290" y="597" type="line"/>
      <point x="1594" y="597" type="line"/>
      <point x="1594" y="861" type="line"/>
      <point x="1290" y="861" type="line"/>
    </contour>
    <component base="VowelE.or"/>
  </outline>
</glyph>
<glyph name="VowelO.or" format="2">
  <advance width="1506"/>
  <unicode hex="0B13"/>
  <anchor x="1290" y="1412" name="top2"/>
  <outline>
    <contour>
      <point x="817" y="-24" type="curve" smooth="yes"/>
      <point x="1227" y="-24"/>
      <point x="1457" y="133"/>
      <point x="1457" y="405" type="curve" smooth="yes"/>
      <point x="1457" y="425" type="line" smooth="yes"/>
      <point x="1457" y="575"/>
      <point x="1382" y="666"/>
      <point x="1257" y="715" type="curve"/>
      <point x="1029" y="562" type="line"/>
      <point x="1080" y="546"/>
      <point x="1111" y="508"/>
      <point x="1111" y="453" type="curve" smooth="yes"/>
      <point x="1111" y="442" type="line" smooth="yes"/>
      <point x="1111" y="336"/>
      <point x="1019" y="271"/>
      <point x="818" y="271" type="curve" smooth="yes"/>
      <point x="533" y="271"/>
      <point x="400" y="423"/>
      <point x="400" y="690" type="curve" smooth="yes"/>
      <point x="400" y="829" type="line" smooth="yes"/>
      <point x="400" y="1012"/>
      <point x="435" y="1157"/>
      <point x="521" y="1351" type="curve"/>
      <point x="195" y="1351" type="line"/>
      <point x="108" y="1179"/>
      <point x="71" y="995"/>
      <point x="71" y="810" type="curve" smooth="yes"/>
      <point x="71" y="668" type="line" smooth="yes"/>
      <point x="71" y="210"/>
      <point x="329" y="-24"/>
    </contour>
    <contour>
      <point x="789" y="503" type="line"/>
      <point x="860" y="503" type="line" smooth="yes"/>
      <point x="963" y="503"/>
      <point x="1067" y="520"/>
      <point x="1137" y="549" type="curve"/>
      <point x="1262" y="636" type="line"/>
      <point x="1376" y="709"/>
      <point x="1422" y="802"/>
      <point x="1422" y="944" type="curve" smooth="yes"/>
      <point x="1422" y="998" type="line" smooth="yes"/>
      <point x="1422" y="1255"/>
      <point x="1275" y="1390"/>
      <point x="987" y="1390" type="curve" smooth="yes"/>
      <point x="713" y="1390"/>
      <point x="568" y="1261"/>
      <point x="568" y="1033" type="curve" smooth="yes"/>
      <point x="568" y="1019" type="line" smooth="yes"/>
      <point x="568" y="971"/>
      <point x="578" y="927"/>
      <point x="591" y="892" type="curve"/>
      <point x="883" y="879" type="line"/>
      <point x="874" y="913"/>
      <point x="866" y="947"/>
      <point x="866" y="981" type="curve" smooth="yes"/>
      <point x="866" y="1005" type="line" smooth="yes"/>
      <point x="866" y="1094"/>
      <point x="907" y="1141"/>
      <point x="984" y="1141" type="curve" smooth="yes"/>
      <point x="1060" y="1141"/>
      <point x="1103" y="1094"/>
      <point x="1103" y="1005" type="curve" smooth="yes"/>
      <point x="1103" y="932" type="line" smooth="yes"/>
      <point x="1103" y="817"/>
      <point x="1028" y="764"/>
      <point x="876" y="762" type="curve" smooth="yes"/>
      <point x="789" y="761" type="line"/>
    </contour>
  </outline>
</glyph>
<glyph name="VowelAu.or" format="2">
  <advance width="2007"/>
  <unicode hex="0B14"/>
  <anchor x="2019" y="1567" name="top2"/>
  <outline>
    <contour>
      <point x="1594" y="0" type="line"/>
      <point x="1913" y="0" type="line"/>
      <point x="1913" y="1330" type="line" smooth="yes"/>
      <point x="1913" y="1634"/>
      <point x="1776" y="1747"/>
      <point x="1456" y="1753" type="curve" smooth="yes"/>
      <point x="1048" y="1761" type="line" smooth="yes"/>
      <point x="944" y="1763"/>
      <point x="897" y="1798"/>
      <point x="893" y="1877" type="curve" smooth="yes"/>
      <point x="891" y="1913" type="line"/>
      <point x="583" y="1913" type="line"/>
      <point x="583" y="1868" type="line" smooth="yes"/>
      <point x="583" y="1619"/>
      <point x="712" y="1507"/>
      <point x="1024" y="1501" type="curve" smooth="yes"/>
      <point x="1425" y="1493" type="line" smooth="yes"/>
      <point x="1560" y="1490"/>
      <point x="1594" y="1436"/>
      <point x="1594" y="1317" type="curve" smooth="yes"/>
    </contour>
    <contour>
      <point x="1347" y="324" type="line"/>
      <point x="1651" y="324" type="line"/>
      <point x="1651" y="588" type="line"/>
      <point x="1347" y="588" type="line"/>
    </contour>
    <component base="VowelO.or"/>
  </outline>
</glyph>
<glyph name="Kha.or" format="2">
  <advance width="1736"/>
  <unicode hex="0B16"/>
  <anchor x="1642" y="86" name="bottom"/>
  <anchor x="867" y="86" name="nukta"/>
  <anchor x="867" y="1840" name="top1"/>
  <anchor x="1464" y="1412" name="top2"/>
  <outline>
    <contour>
      <point x="387" y="343" type="curve"/>
      <point x="500" y="616" type="line"/>
      <point x="417" y="657"/>
      <point x="393" y="715"/>
      <point x="393" y="806" type="curve" smooth="yes"/>
      <point x="393" y="832" type="line" smooth="yes"/>
      <point x="393" y="1000"/>
      <point x="506" y="1099"/>
      <point x="733" y="1099" type="curve" smooth="yes"/>
      <point x="807" y="1099"/>
      <point x="880" y="1087"/>
      <point x="939" y="1072" type="curve"/>
      <point x="832" y="1325" type="line"/>
      <point x="818" y="1282"/>
      <point x="803" y="1220"/>
      <point x="803" y="1150" type="curve" smooth="yes"/>
      <point x="803" y="1125" type="line" smooth="yes"/>
      <point x="803" y="913"/>
      <point x="900" y="793"/>
      <point x="1109" y="793" type="curve" smooth="yes"/>
      <point x="1228" y="793"/>
      <point x="1290" y="841"/>
      <point x="1316" y="897" type="curve"/>
      <point x="1384" y="897" type="line"/>
      <point x="1326" y="1102" type="line"/>
      <point x="1313" y="1062"/>
      <point x="1279" y="1036"/>
      <point x="1227" y="1036" type="curve" smooth="yes"/>
      <point x="1148" y="1036"/>
      <point x="1113" y="1086"/>
      <point x="1113" y="1188" type="curve" smooth="yes"/>
      <point x="1113" y="1201" type="line" smooth="yes"/>
      <point x="1113" y="1243"/>
      <point x="1119" y="1295"/>
      <point x="1126" y="1335" type="curve"/>
      <point x="1028" y="1363"/>
      <point x="900" y="1389"/>
      <point x="729" y="1389" type="curve" smooth="yes"/>
      <point x="302" y="1389"/>
      <point x="53" y="1189"/>
      <point x="53" y="829" type="curve" smooth="yes"/>
      <point x="53" y="794" type="line" smooth="yes"/>
      <point x="53" y="553"/>
      <point x="157" y="414"/>
    </contour>
    <contour>
      <point x="770" y="-27" type="curve" smooth="yes"/>
      <point x="1052" y="-27"/>
      <point x="1198" y="102"/>
      <point x="1198" y="342" type="curve" smooth="yes"/>
      <point x="1198" y="384" type="line" smooth="yes"/>
      <point x="1198" y="623"/>
      <point x="1054" y="753"/>
      <point x="783" y="753" type="curve" smooth="yes"/>
      <point x="586" y="753"/>
      <point x="472" y="668"/>
      <point x="418" y="549" type="curve"/>
      <point x="364" y="498" type="line"/>
      <point x="352" y="465"/>
      <point x="344" y="424"/>
      <point x="344" y="386" type="curve" smooth="yes"/>
      <point x="344" y="342" type="line" smooth="yes"/>
      <point x="344" y="102"/>
      <point x="490" y="-27"/>
    </contour>
    <contour>
      <point x="770" y="216" type="curve" smooth="yes"/>
      <point x="694" y="216"/>
      <point x="659" y="261"/>
      <point x="659" y="347" type="curve" smooth="yes"/>
      <point x="659" y="378" type="line" smooth="yes"/>
      <point x="659" y="465"/>
      <point x="694" y="510"/>
      <point x="770" y="510" type="curve" smooth="yes"/>
      <point x="847" y="510"/>
      <point x="882" y="465"/>
      <point x="882" y="378" type="curve" smooth="yes"/>
      <point x="882" y="347" type="line" smooth="yes"/>
      <point x="882" y="261"/>
      <point x="847" y="216"/>
    </contour>
    <contour>
      <point x="1323" y="0" type="line"/>
      <point x="1642" y="0" type="line"/>
      <point x="1642" y="1351" type="line"/>
      <point x="1323" y="1351" type="line"/>
      <point x="1323" y="1074" type="line"/>
      <point x="1327" y="976" type="line"/>
      <point x="1323" y="703" type="line"/>
    </contour>
  </outline>
</glyph>
<glyph name="Gha.or" format="2">
  <advance width="1702"/>
  <unicode hex="0B18"/>
  <anchor x="1608" y="86" name="bottom"/>
  <anchor x="883" y="86" name="nukta"/>
  <anchor x="2057" y="46" name="rasmall"/>
  <anchor x="833" y="1840" name="top1"/>
  <anchor x="1429" y="1412" name="top2"/>
  <outline>
    <contour>
      <point x="326" y="401" type="curve"/>
      <point x="486" y="662" type="line"/>
      <point x="416" y="691"/>
      <point x="393" y="729"/>
      <point x="393" y="800" type="curve" smooth="yes"/>
      <point x="393" y="832" type="line" smooth="yes"/>
      <point x="393" y="1005"/>
      <point x="523" y="1096"/>
      <point x="804" y="1096" type="curve" smooth="yes"/>
      <point x="1102" y="1096"/>
      <point x="1289" y="973"/>
      <point x="1291" y="716" type="curve"/>
      <point x="1301" y="1058" type="line"/>
      <point x="1255" y="1266"/>
      <point x="1079" y="1392"/>
      <point x="735" y="1392" type="curve" smooth="yes"/>
      <point x="297" y="1392"/>
      <point x="53" y="1199"/>
      <point x="53" y="842" type="curve" smooth="yes"/>
      <point x="53" y="785" type="line" smooth="yes"/>
      <point x="53" y="576"/>
      <point x="152" y="457"/>
    </contour>
    <contour>
      <point x="602" y="-14" type="curve" smooth="yes"/>
      <point x="781" y="-14"/>
      <point x="868" y="54"/>
      <point x="893" y="156" type="curve"/>
      <point x="902" y="156" type="line"/>
      <point x="919" y="56"/>
      <point x="977" y="-14"/>
      <point x="1103" y="-14" type="curve" smooth="yes"/>
      <point x="1230" y="-14"/>
      <point x="1277" y="46"/>
      <point x="1295" y="156" type="curve"/>
      <point x="1417" y="156" type="line"/>
      <point x="1296" y="332" type="line"/>
      <point x="1284" y="282"/>
      <point x="1243" y="252"/>
      <point x="1188" y="252" type="curve" smooth="yes"/>
      <point x="1109" y="252"/>
      <point x="1079" y="295"/>
      <point x="1078" y="380" type="curve" smooth="yes"/>
      <point x="1076" y="535" type="line"/>
      <point x="790" y="535" type="line"/>
      <point x="788" y="380" type="line" smooth="yes"/>
      <point x="787" y="294"/>
      <point x="749" y="252"/>
      <point x="675" y="252" type="curve" smooth="yes"/>
      <point x="593" y="252"/>
      <point x="560" y="297"/>
      <point x="560" y="382" type="curve" smooth="yes"/>
      <point x="560" y="397" type="line" smooth="yes"/>
      <point x="560" y="469"/>
      <point x="586" y="515"/>
      <point x="657" y="532" type="curve"/>
      <point x="657" y="803" type="line"/>
      <point x="509" y="784"/>
      <point x="374" y="714"/>
      <point x="322" y="596" type="curve"/>
      <point x="270" y="535" type="line"/>
      <point x="251" y="491"/>
      <point x="242" y="457"/>
      <point x="242" y="395" type="curve" smooth="yes"/>
      <point x="242" y="357" type="line" smooth="yes"/>
      <point x="242" y="115"/>
      <point x="369" y="-14"/>
    </contour>
    <contour>
      <point x="1303" y="0" type="line"/>
      <point x="1608" y="0" type="line"/>
      <point x="1608" y="1351" type="line"/>
      <point x="1291" y="1351" type="line"/>
      <point x="1299" y="1105" type="line"/>
      <point x="1258" y="1105" type="line"/>
      <point x="1291" y="905" type="line"/>
      <point x="1291" y="232" type="line"/>
      <point x="1307" y="213" type="line"/>
    </contour>
  </outline>
</glyph>
<glyph name="Nga.or" format="2">
  <advance width="1997"/>
  <unicode hex="0B19"/>
  <anchor x="1035" y="86" name="bottom"/>
  <anchor x="852" y="86" name="nukta"/>
  <anchor x="849" y="1840" name="top1"/>
  <anchor x="1392" y="1412" name="top2"/>
  <outline>
    <contour>
      <point x="402" y="306" type="curve"/>
      <point x="472" y="598" type="line"/>
      <point x="413" y="632"/>
      <point x="393" y="685"/>
      <point x="393" y="765" type="curve" smooth="yes"/>
      <point x="393" y="780" type="line" smooth="yes"/>
      <point x="393" y="987"/>
      <point x="542" y="1097"/>
      <point x="863" y="1097" type="curve" smooth="yes"/>
      <point x="1068" y="1097"/>
      <point x="1213" y="1046"/>
      <point x="1318" y="966" type="curve"/>
      <point x="1473" y="1198" type="line"/>
      <point x="1360" y="1295"/>
      <point x="1146" y="1392"/>
      <point x="853" y="1392" type="curve" smooth="yes"/>
      <point x="344" y="1392"/>
      <point x="53" y="1177"/>
      <point x="53" y="786" type="curve" smooth="yes"/>
      <point x="53" y="758" type="line" smooth="yes"/>
      <point x="53" y="533"/>
      <point x="150" y="378"/>
    </contour>
    <contour>
      <point x="832" y="-28" type="curve" smooth="yes"/>
      <point x="1119" y="-28"/>
      <point x="1287" y="90"/>
      <point x="1287" y="290" type="curve" smooth="yes"/>
      <point x="1287" y="296" type="line" smooth="yes"/>
      <point x="1287" y="405"/>
      <point x="1238" y="460"/>
      <point x="1146" y="488" type="curve"/>
      <point x="1146" y="521" type="line"/>
      <point x="961" y="427" type="line"/>
      <point x="981" y="412"/>
      <point x="987" y="382"/>
      <point x="987" y="354" type="curve" smooth="yes"/>
      <point x="987" y="345" type="line" smooth="yes"/>
      <point x="987" y="271"/>
      <point x="935" y="220"/>
      <point x="833" y="220" type="curve" smooth="yes"/>
      <point x="718" y="220"/>
      <point x="670" y="278"/>
      <point x="670" y="361" type="curve" smooth="yes"/>
      <point x="670" y="386" type="line" smooth="yes"/>
      <point x="670" y="449"/>
      <point x="695" y="490"/>
      <point x="750" y="512" type="curve"/>
      <point x="750" y="788" type="line"/>
      <point x="612" y="768"/>
      <point x="484" y="699"/>
      <point x="429" y="571" type="curve"/>
      <point x="381" y="528" type="line"/>
      <point x="362" y="485"/>
      <point x="354" y="446"/>
      <point x="354" y="396" type="curve" smooth="yes"/>
      <point x="354" y="361" type="line" smooth="yes"/>
      <point x="354" y="109"/>
      <point x="512" y="-28"/>
    </contour>
    <contour>
      <point x="822" y="344" type="line"/>
      <point x="1019" y="435" type="line"/>
      <point x="1118" y="482" type="line"/>
      <point x="1262" y="548" type="line"/>
      <point x="1262" y="821" type="line"/>
      <point x="822" y="623" type="line"/>
    </contour>
    <contour>
      <point x="1628" y="677" type="curve" smooth="yes"/>
      <point x="1868" y="677"/>
      <point x="1983" y="792"/>
      <point x="1983" y="975" type="curve" smooth="yes"/>
      <point x="1983" y="1000" type="line" smooth="yes"/>
      <point x="1983" y="1187"/>
      <point x="1868" y="1299"/>
      <point x="1643" y="1299" type="curve" smooth="yes"/>
      <point x="1510" y="1299"/>
      <point x="1427" y="1251"/>
      <point x="1374" y="1178" type="curve"/>
      <point x="1284" y="1072" type="line"/>
      <point x="1278" y="1050"/>
      <point x="1276" y="1022"/>
      <point x="1276" y="1002" type="curve" smooth="yes"/>
      <point x="1276" y="978" type="line" smooth="yes"/>
      <point x="1276" y="794"/>
      <point x="1397" y="677"/>
    </contour>
    <contour>
      <point x="1628" y="883" type="curve" smooth="yes"/>
      <point x="1568" y="883"/>
      <point x="1538" y="920"/>
      <point x="1538" y="982" type="curve" smooth="yes"/>
      <point x="1538" y="995" type="line" smooth="yes"/>
      <point x="1538" y="1055"/>
      <point x="1568" y="1093"/>
      <point x="1628" y="1093" type="curve" smooth="yes"/>
      <point x="1687" y="1093"/>
      <point x="1717" y="1055"/>
      <point x="1717" y="996" type="curve" smooth="yes"/>
      <point x="1717" y="983" type="line" smooth="yes"/>
      <point x="1717" y="921"/>
      <point x="1687" y="883"/>
    </contour>
  </outline>
</glyph>
<glyph name="Ca.or" format="2">
  <advance width="1704"/>
  <unicode hex="0B1A"/>
  <anchor x="1012" y="86" name="bottom"/>
  <anchor x="822" y="86" name="nukta"/>
  <anchor x="832" y="1840" name="top1"/>
  <anchor x="1330" y="1412" name="top2"/>
  <outline>
    <contour>
      <point x="401" y="311" type="curve"/>
      <point x="496" y="594" type="line"/>
      <point x="423" y="630"/>
      <point x="393" y="681"/>
      <point x="393" y="779" type="curve" smooth="yes"/>
      <point x="393" y="801" type="line" smooth="yes"/>
      <point x="393" y="991"/>
      <point x="537" y="1097"/>
      <point x="837" y="1097" type="curve" smooth="yes"/>
      <point x="1161" y="1097"/>
      <point x="1320" y="970"/>
      <point x="1320" y="708" type="curve" smooth="yes"/>
      <point x="1320" y="687" type="line" smooth="yes"/>
      <point x="1320" y="585"/>
      <point x="1310" y="515"/>
      <point x="1285" y="421" type="curve"/>
      <point x="1602" y="455" type="line"/>
      <point x="1636" y="527"/>
      <point x="1652" y="634"/>
      <point x="1652" y="718" type="curve" smooth="yes"/>
      <point x="1652" y="741" type="line" smooth="yes"/>
      <point x="1652" y="1164"/>
      <point x="1358" y="1392"/>
      <point x="836" y="1392" type="curve" smooth="yes"/>
      <point x="337" y="1392"/>
      <point x="53" y="1178"/>
      <point x="53" y="798" type="curve" smooth="yes"/>
      <point x="53" y="772" type="line" smooth="yes"/>
      <point x="53" y="522"/>
      <point x="164" y="379"/>
    </contour>
    <contour>
      <point x="807" y="-27" type="curve" smooth="yes"/>
      <point x="1089" y="-27"/>
      <point x="1235" y="102"/>
      <point x="1235" y="342" type="curve" smooth="yes"/>
      <point x="1235" y="391" type="line" smooth="yes"/>
      <point x="1235" y="630"/>
      <point x="1091" y="760"/>
      <point x="820" y="760" type="curve" smooth="yes"/>
      <point x="618" y="760"/>
      <point x="500" y="675"/>
      <point x="445" y="556" type="curve"/>
      <point x="401" y="505" type="line"/>
      <point x="389" y="472"/>
      <point x="381" y="431"/>
      <point x="381" y="393" type="curve" smooth="yes"/>
      <point x="381" y="342" type="line" smooth="yes"/>
      <point x="381" y="102"/>
      <point x="527" y="-27"/>
    </contour>
    <contour>
      <point x="807" y="216" type="curve" smooth="yes"/>
      <point x="731" y="216"/>
      <point x="696" y="261"/>
      <point x="696" y="347" type="curve" smooth="yes"/>
      <point x="696" y="385" type="line" smooth="yes"/>
      <point x="696" y="472"/>
      <point x="731" y="517"/>
      <point x="807" y="517" type="curve" smooth="yes"/>
      <point x="884" y="517"/>
      <point x="919" y="472"/>
      <point x="919" y="385" type="curve" smooth="yes"/>
      <point x="919" y="347" type="line" smooth="yes"/>
      <point x="919" y="261"/>
      <point x="884" y="216"/>
    </contour>
  </outline>
</glyph>
<glyph name="Cha.or" format="2">
  <advance width="1704"/>
  <unicode hex="0B1B"/>
  <anchor x="1211" y="-226" name="bottom"/>
  <anchor x="817" y="-195" name="nukta"/>
  <anchor x="832" y="1840" name="top1"/>
  <anchor x="1330" y="1412" name="top2"/>
  <outline>
    <contour>
      <point x="401" y="311" type="curve"/>
      <point x="496" y="594" type="line"/>
      <point x="423" y="630"/>
      <point x="393" y="681"/>
      <point x="393" y="779" type="curve" smooth="yes"/>
      <point x="393" y="801" type="line" smooth="yes"/>
      <point x="393" y="991"/>
      <point x="537" y="1097"/>
      <point x="837" y="1097" type="curve" smooth="yes"/>
      <point x="1161" y="1097"/>
      <point x="1320" y="970"/>
      <point x="1320" y="708" type="curve" smooth="yes"/>
      <point x="1320" y="687" type="line" smooth="yes"/>
      <point x="1320" y="585"/>
      <point x="1310" y="515"/>
      <point x="1285" y="421" type="curve"/>
      <point x="1602" y="455" type="line"/>
      <point x="1636" y="527"/>
      <point x="1652" y="634"/>
      <point x="1652" y="718" type="curve" smooth="yes"/>
      <point x="1652" y="741" type="line" smooth="yes"/>
      <point x="1652" y="1164"/>
      <point x="1358" y="1392"/>
      <point x="836" y="1392" type="curve" smooth="yes"/>
      <point x="337" y="1392"/>
      <point x="53" y="1178"/>
      <point x="53" y="798" type="curve" smooth="yes"/>
      <point x="53" y="772" type="line" smooth="yes"/>
      <point x="53" y="522"/>
      <point x="164" y="379"/>
    </contour>
    <contour>
      <point x="507" y="-370" type="curve" smooth="yes"/>
      <point x="667" y="-370"/>
      <point x="774" y="-307"/>
      <point x="839" y="-181" type="curve"/>
      <point x="914" y="-90" type="line"/>
      <point x="969" y="-12"/>
      <point x="1007" y="19"/>
      <point x="1066" y="19" type="curve" smooth="yes"/>
      <point x="1121" y="19"/>
      <point x="1151" y="-10"/>
      <point x="1151" y="-62" type="curve" smooth="yes"/>
      <point x="1151" y="-64" type="line" smooth="yes"/>
      <point x="1151" y="-120"/>
      <point x="1119" y="-146"/>
      <point x="1063" y="-146" type="curve" smooth="yes"/>
      <point x="1000" y="-146"/>
      <point x="962" y="-117"/>
      <point x="919" y="-48" type="curve"/>
      <point x="806" y="85" type="line"/>
      <point x="735" y="161"/>
      <point x="630" y="209"/>
      <point x="501" y="209" type="curve" smooth="yes"/>
      <point x="302" y="209"/>
      <point x="182" y="109"/>
      <point x="182" y="-68" type="curve" smooth="yes"/>
      <point x="182" y="-81" type="line" smooth="yes"/>
      <point x="182" y="-266"/>
      <point x="292" y="-370"/>
    </contour>
    <contour>
      <point x="1109" y="-370" type="curve" smooth="yes"/>
      <point x="1325" y="-370"/>
      <point x="1434" y="-266"/>
      <point x="1434" y="-81" type="curve" smooth="yes"/>
      <point x="1434" y="-68" type="line" smooth="yes"/>
      <point x="1434" y="109"/>
      <point x="1315" y="209"/>
      <point x="1115" y="209" type="curve" smooth="yes"/>
      <point x="986" y="209"/>
      <point x="881" y="161"/>
      <point x="810" y="85" type="curve"/>
      <point x="697" y="-48" type="line"/>
      <point x="654" y="-117"/>
      <point x="616" y="-146"/>
      <point x="555" y="-146" type="curve" smooth="yes"/>
      <point x="497" y="-146"/>
      <point x="465" y="-120"/>
      <point x="465" y="-65" type="curve" smooth="yes"/>
      <point x="465" y="-62" type="line" smooth="yes"/>
      <point x="465" y="-10"/>
      <point x="495" y="19"/>
      <point x="551" y="19" type="curve" smooth="yes"/>
      <point x="607" y="19"/>
      <point x="646" y="-10"/>
      <point x="699" y="-90" type="curve"/>
      <point x="777" y="-181" type="line"/>
      <point x="842" y="-307"/>
      <point x="949" y="-370"/>
    </contour>
    <contour>
      <point x="807" y="36" type="curve" smooth="yes"/>
      <point x="1089" y="36"/>
      <point x="1235" y="142"/>
      <point x="1235" y="352" type="curve" smooth="yes"/>
      <point x="1235" y="391" type="line" smooth="yes"/>
      <point x="1235" y="630"/>
      <point x="1091" y="760"/>
      <point x="820" y="760" type="curve" smooth="yes"/>
      <point x="618" y="760"/>
      <point x="500" y="675"/>
      <point x="445" y="556" type="curve"/>
      <point x="401" y="505" type="line"/>
      <point x="389" y="472"/>
      <point x="381" y="431"/>
      <point x="381" y="393" type="curve" smooth="yes"/>
      <point x="381" y="352" type="line" smooth="yes"/>
      <point x="381" y="142"/>
      <point x="527" y="36"/>
    </contour>
    <contour>
      <point x="807" y="216" type="curve" smooth="yes"/>
      <point x="731" y="216"/>
      <point x="696" y="261"/>
      <point x="696" y="347" type="curve" smooth="yes"/>
      <point x="696" y="385" type="line" smooth="yes"/>
      <point x="696" y="472"/>
      <point x="731" y="517"/>
      <point x="807" y="517" type="curve" smooth="yes"/>
      <point x="884" y="517"/>
      <point x="919" y="472"/>
      <point x="919" y="385" type="curve" smooth="yes"/>
      <point x="919" y="347" type="line" smooth="yes"/>
      <point x="919" y="261"/>
      <point x="884" y="216"/>
    </contour>
  </outline>
</glyph>
<glyph name="Ja.or" format="2">
  <advance width="1794"/>
  <unicode hex="0B1C"/>
  <anchor x="1373" y="86" name="bottom"/>
  <anchor x="886" y="86" name="nukta"/>
  <anchor x="886" y="1840" name="top1"/>
  <anchor x="1395" y="1412" name="top2"/>
  <outline>
    <contour>
      <point x="286" y="344" type="curve"/>
      <point x="462" y="589" type="line"/>
      <point x="404" y="643"/>
      <point x="393" y="672"/>
      <point x="393" y="756" type="curve" smooth="yes"/>
      <point x="393" y="776" type="line" smooth="yes"/>
      <point x="393" y="987"/>
      <point x="547" y="1097"/>
      <point x="873" y="1097" type="curve" smooth="yes"/>
      <point x="1239" y="1097"/>
      <point x="1410" y="955"/>
      <point x="1410" y="671" type="curve" smooth="yes"/>
      <point x="1410" y="638" type="line" smooth="yes"/>
      <point x="1410" y="555"/>
      <point x="1408" y="491"/>
      <point x="1395" y="421" type="curve"/>
      <point x="1712" y="455" type="line"/>
      <point x="1733" y="529"/>
      <point x="1742" y="614"/>
      <point x="1742" y="692" type="curve" smooth="yes"/>
      <point x="1742" y="711" type="line" smooth="yes"/>
      <point x="1742" y="1156"/>
      <point x="1432" y="1392"/>
      <point x="872" y="1392" type="curve" smooth="yes"/>
      <point x="352" y="1392"/>
      <point x="53" y="1177"/>
      <point x="53" y="778" type="curve" smooth="yes"/>
      <point x="53" y="738" type="line" smooth="yes"/>
      <point x="53" y="519"/>
      <point x="151" y="396"/>
    </contour>
    <contour>
      <point x="627" y="-27" type="curve" smooth="yes"/>
      <point x="859" y="-27"/>
      <point x="998" y="68"/>
      <point x="998" y="251" type="curve" smooth="yes"/>
      <point x="998" y="260" type="line" smooth="yes"/>
      <point x="998" y="358"/>
      <point x="963" y="412"/>
      <point x="881" y="432" type="curve"/>
      <point x="881" y="442" type="line"/>
      <point x="1169" y="513" type="line"/>
      <point x="1089" y="588" type="line"/>
      <point x="1072" y="487"/>
      <point x="1066" y="384"/>
      <point x="1066" y="299" type="curve" smooth="yes"/>
      <point x="1066" y="0" type="line"/>
      <point x="1373" y="0" type="line"/>
      <point x="1373" y="616" type="line"/>
      <point x="1192" y="769" type="line"/>
      <point x="667" y="637" type="line"/>
      <point x="667" y="419" type="line"/>
      <point x="696" y="411"/>
      <point x="713" y="388"/>
      <point x="713" y="347" type="curve" smooth="yes"/>
      <point x="713" y="314" type="line" smooth="yes"/>
      <point x="713" y="250"/>
      <point x="687" y="216"/>
      <point x="632" y="216" type="curve" smooth="yes"/>
      <point x="576" y="216"/>
      <point x="549" y="250"/>
      <point x="549" y="314" type="curve" smooth="yes"/>
      <point x="549" y="409" type="line" smooth="yes"/>
      <point x="549" y="468"/>
      <point x="566" y="501"/>
      <point x="605" y="518" type="curve"/>
      <point x="605" y="788" type="line"/>
      <point x="483" y="762"/>
      <point x="389" y="710"/>
      <point x="330" y="588" type="curve"/>
      <point x="278" y="531" type="line"/>
      <point x="247" y="486"/>
      <point x="234" y="445"/>
      <point x="234" y="390" type="curve" smooth="yes"/>
      <point x="234" y="324" type="line" smooth="yes"/>
      <point x="234" y="99"/>
      <point x="364" y="-27"/>
    </contour>
  </outline>
</glyph>
<glyph name="Jha.or" format="2">
  <advance width="1656"/>
  <unicode hex="0B1D"/>
  <anchor x="1002" y="86" name="bottom"/>
  <anchor x="836" y="86" name="nukta"/>
  <anchor x="836" y="1840" name="top1"/>
  <anchor x="1217" y="1412" name="top2"/>
  <outline>
    <contour>
      <point x="383" y="343" type="curve"/>
      <point x="496" y="616" type="line"/>
      <point x="416" y="657"/>
      <point x="393" y="715"/>
      <point x="393" y="806" type="curve" smooth="yes"/>
      <point x="393" y="832" type="line" smooth="yes"/>
      <point x="393" y="1000"/>
      <point x="505" y="1099"/>
      <point x="731" y="1099" type="curve" smooth="yes"/>
      <point x="798" y="1099"/>
      <point x="866" y="1087"/>
      <point x="919" y="1072" type="curve"/>
      <point x="812" y="1305" type="line"/>
      <point x="798" y="1262"/>
      <point x="783" y="1200"/>
      <point x="783" y="1130" type="curve" smooth="yes"/>
      <point x="783" y="1118" type="line" smooth="yes"/>
      <point x="783" y="900"/>
      <point x="928" y="784"/>
      <point x="1198" y="784" type="curve" smooth="yes"/>
      <point x="1472" y="784"/>
      <point x="1613" y="912"/>
      <point x="1613" y="1130" type="curve" smooth="yes"/>
      <point x="1613" y="1156" type="line" smooth="yes"/>
      <point x="1613" y="1223"/>
      <point x="1603" y="1291"/>
      <point x="1593" y="1348" type="curve"/>
      <point x="1292" y="1348" type="line"/>
      <point x="1298" y="1296"/>
      <point x="1303" y="1248"/>
      <point x="1303" y="1185" type="curve" smooth="yes"/>
      <point x="1303" y="1171" type="line" smooth="yes"/>
      <point x="1303" y="1075"/>
      <point x="1270" y="1027"/>
      <point x="1198" y="1027" type="curve" smooth="yes"/>
      <point x="1126" y="1027"/>
      <point x="1093" y="1075"/>
      <point x="1093" y="1178" type="curve" smooth="yes"/>
      <point x="1093" y="1192" type="line" smooth="yes"/>
      <point x="1093" y="1234"/>
      <point x="1099" y="1290"/>
      <point x="1106" y="1339" type="curve"/>
      <point x="1012" y="1365"/>
      <point x="890" y="1389"/>
      <point x="727" y="1389" type="curve" smooth="yes"/>
      <point x="301" y="1389"/>
      <point x="53" y="1189"/>
      <point x="53" y="829" type="curve" smooth="yes"/>
      <point x="53" y="794" type="line" smooth="yes"/>
      <point x="53" y="554"/>
      <point x="156" y="414"/>
    </contour>
    <contour>
      <point x="1524" y="-166" type="line"/>
      <point x="1524" y="142" type="line"/>
      <point x="1176" y="280" type="line"/>
      <point x="985" y="71" type="line"/>
    </contour>
    <contour>
      <point x="787" y="-27" type="curve" smooth="yes"/>
      <point x="948" y="-27"/>
      <point x="1047" y="17"/>
      <point x="1111" y="86" type="curve"/>
      <point x="1185" y="217" type="line"/>
      <point x="1207" y="270"/>
      <point x="1217" y="308"/>
      <point x="1217" y="368" type="curve"/>
      <point x="1217" y="390" type="line"/>
      <point x="1217" y="623"/>
      <point x="1073" y="753"/>
      <point x="802" y="753" type="curve" smooth="yes"/>
      <point x="605" y="753"/>
      <point x="491" y="668"/>
      <point x="437" y="549" type="curve"/>
      <point x="383" y="498" type="line"/>
      <point x="371" y="465"/>
      <point x="363" y="424"/>
      <point x="363" y="386" type="curve" smooth="yes"/>
      <point x="363" y="342" type="line" smooth="yes"/>
      <point x="363" y="102"/>
      <point x="511" y="-27"/>
    </contour>
    <contour>
      <point x="789" y="216" type="curve" smooth="yes"/>
      <point x="713" y="216"/>
      <point x="678" y="261"/>
      <point x="678" y="347" type="curve" smooth="yes"/>
      <point x="678" y="378" type="line" smooth="yes"/>
      <point x="678" y="465"/>
      <point x="713" y="510"/>
      <point x="789" y="510" type="curve" smooth="yes"/>
      <point x="866" y="510"/>
      <point x="901" y="465"/>
      <point x="901" y="378" type="curve" smooth="yes"/>
      <point x="901" y="347" type="line" smooth="yes"/>
      <point x="901" y="261"/>
      <point x="866" y="216"/>
    </contour>
  </outline>
</glyph>
<glyph name="Nya.or" format="2">
  <advance width="1694"/>
  <unicode hex="0B1E"/>
  <anchor x="1092" y="86" name="bottom"/>
  <anchor x="854" y="86" name="nukta"/>
  <anchor x="854" y="1840" name="top1"/>
  <anchor x="1413" y="1412" name="top2"/>
  <outline>
    <contour>
      <point x="562" y="352" type="curve"/>
      <point x="832" y="334" type="line"/>
      <point x="816" y="375"/>
      <point x="808" y="410"/>
      <point x="808" y="453" type="curve" smooth="yes"/>
      <point x="808" y="479" type="line" smooth="yes"/>
      <point x="808" y="538"/>
      <point x="827" y="571"/>
      <point x="877" y="571" type="curve" smooth="yes"/>
      <point x="924" y="571"/>
      <point x="943" y="540"/>
      <point x="944" y="475" type="curve" smooth="yes"/>
      <point x="945" y="367" type="line"/>
      <point x="1192" y="367" type="line"/>
      <point x="1192" y="477" type="line" smooth="yes"/>
      <point x="1192" y="541"/>
      <point x="1211" y="573"/>
      <point x="1258" y="573" type="curve" smooth="yes"/>
      <point x="1307" y="573"/>
      <point x="1326" y="539"/>
      <point x="1326" y="481" type="curve" smooth="yes"/>
      <point x="1326" y="445" type="line" smooth="yes"/>
      <point x="1326" y="310"/>
      <point x="1215" y="239"/>
      <point x="887" y="239" type="curve" smooth="yes"/>
      <point x="546" y="239"/>
      <point x="388" y="323"/>
      <point x="388" y="496" type="curve" smooth="yes"/>
      <point x="388" y="510" type="line" smooth="yes"/>
      <point x="388" y="565"/>
      <point x="400" y="606"/>
      <point x="436" y="635" type="curve"/>
      <point x="199" y="827" type="line"/>
      <point x="127" y="757"/>
      <point x="70" y="651"/>
      <point x="70" y="511" type="curve" smooth="yes"/>
      <point x="70" y="488" type="line" smooth="yes"/>
      <point x="70" y="146"/>
      <point x="351" y="-28"/>
      <point x="875" y="-28" type="curve" smooth="yes"/>
      <point x="1368" y="-28"/>
      <point x="1630" y="133"/>
      <point x="1630" y="444" type="curve" smooth="yes"/>
      <point x="1630" y="472" type="line" smooth="yes"/>
      <point x="1630" y="673"/>
      <point x="1530" y="779"/>
      <point x="1320" y="779" type="curve" smooth="yes"/>
      <point x="1196" y="779"/>
      <point x="1101" y="747"/>
      <point x="1071" y="684" type="curve"/>
      <point x="1066" y="684" type="line"/>
      <point x="1028" y="728"/>
      <point x="952" y="744"/>
      <point x="811" y="744" type="curve" smooth="yes"/>
      <point x="609" y="744"/>
      <point x="528" y="641"/>
      <point x="528" y="513" type="curve" smooth="yes"/>
      <point x="528" y="496" type="line" smooth="yes"/>
      <point x="528" y="442"/>
      <point x="541" y="394"/>
    </contour>
    <contour>
      <point x="553" y="905" type="curve"/>
      <point x="832" y="887" type="line"/>
      <point x="816" y="930"/>
      <point x="808" y="966"/>
      <point x="808" y="1007" type="curve" smooth="yes"/>
      <point x="808" y="1033" type="line" smooth="yes"/>
      <point x="808" y="1093"/>
      <point x="828" y="1124"/>
      <point x="876" y="1124" type="curve" smooth="yes"/>
      <point x="925" y="1124"/>
      <point x="943" y="1093"/>
      <point x="944" y="1028" type="curve" smooth="yes"/>
      <point x="945" y="920" type="line"/>
      <point x="1192" y="920" type="line"/>
      <point x="1192" y="1028" type="line" smooth="yes"/>
      <point x="1192" y="1093"/>
      <point x="1212" y="1124"/>
      <point x="1258" y="1124" type="curve" smooth="yes"/>
      <point x="1308" y="1124"/>
      <point x="1326" y="1092"/>
      <point x="1326" y="1036" type="curve" smooth="yes"/>
      <point x="1326" y="1000" type="line" smooth="yes"/>
      <point x="1326" y="854"/>
      <point x="1218" y="787"/>
      <point x="919" y="787" type="curve" smooth="yes"/>
      <point x="542" y="787"/>
      <point x="393" y="886"/>
      <point x="393" y="1096" type="curve" smooth="yes"/>
      <point x="393" y="1117" type="line" smooth="yes"/>
      <point x="393" y="1195"/>
      <point x="408" y="1264"/>
      <point x="450" y="1348" type="curve"/>
      <point x="132" y="1348" type="line"/>
      <point x="88" y="1269"/>
      <point x="70" y="1181"/>
      <point x="70" y="1095" type="curve" smooth="yes"/>
      <point x="70" y="1074" type="line" smooth="yes"/>
      <point x="70" y="944"/>
      <point x="98" y="832"/>
      <point x="214" y="740" type="curve"/>
      <point x="355" y="636" type="line"/>
      <point x="415" y="593"/>
      <point x="538" y="558"/>
      <point x="630" y="549" type="curve"/>
      <point x="822" y="577" type="line"/>
      <point x="975" y="590" type="line"/>
      <point x="1111" y="600"/>
      <point x="1290" y="623"/>
      <point x="1444" y="682" type="curve"/>
      <point x="1569" y="753"/>
      <point x="1630" y="863"/>
      <point x="1630" y="1009" type="curve" smooth="yes"/>
      <point x="1630" y="1034" type="line" smooth="yes"/>
      <point x="1630" y="1256"/>
      <point x="1533" y="1367"/>
      <point x="1331" y="1367" type="curve" smooth="yes"/>
      <point x="1188" y="1367"/>
      <point x="1100" y="1304"/>
      <point x="1071" y="1203" type="curve"/>
      <point x="1064" y="1203" type="line"/>
      <point x="1036" y="1305"/>
      <point x="957" y="1367"/>
      <point x="814" y="1367" type="curve" smooth="yes"/>
      <point x="624" y="1367"/>
      <point x="520" y="1270"/>
      <point x="520" y="1077" type="curve" smooth="yes"/>
      <point x="520" y="1058" type="line" smooth="yes"/>
      <point x="520" y="1002"/>
      <point x="531" y="948"/>
    </contour>
  </outline>
</glyph>
<glyph name="Tta.or" format="2">
  <advance width="1667"/>
  <unicode hex="0B1F"/>
  <anchor x="1020" y="86" name="bottom"/>
  <anchor x="843" y="86" name="nukta"/>
  <anchor x="808" y="1839" name="top1"/>
  <anchor x="1147" y="1412" name="top2"/>
  <outline>
    <contour>
      <point x="408" y="311" type="curve"/>
      <point x="496" y="596" type="line"/>
      <point x="418" y="632"/>
      <point x="393" y="689"/>
      <point x="393" y="783" type="curve" smooth="yes"/>
      <point x="393" y="813" type="line" smooth="yes"/>
      <point x="393" y="998"/>
      <point x="519" y="1096"/>
      <point x="790" y="1096" type="curve" smooth="yes"/>
      <point x="1095" y="1096"/>
      <point x="1285" y="974"/>
      <point x="1287" y="714" type="curve"/>
      <point x="1298" y="1057" type="line"/>
      <point x="1253" y="1266"/>
      <point x="1074" y="1392"/>
      <point x="725" y="1392" type="curve" smooth="yes"/>
      <point x="299" y="1392"/>
      <point x="53" y="1191"/>
      <point x="53" y="818" type="curve" smooth="yes"/>
      <point x="53" y="781" type="line" smooth="yes"/>
      <point x="53" y="535"/>
      <point x="159" y="389"/>
    </contour>
    <contour>
      <point x="811" y="-27" type="curve" smooth="yes"/>
      <point x="1094" y="-27"/>
      <point x="1239" y="102"/>
      <point x="1239" y="342" type="curve" smooth="yes"/>
      <point x="1239" y="391" type="line" smooth="yes"/>
      <point x="1239" y="631"/>
      <point x="1094" y="760"/>
      <point x="822" y="760" type="curve" smooth="yes"/>
      <point x="622" y="760"/>
      <point x="504" y="675"/>
      <point x="449" y="556" type="curve"/>
      <point x="407" y="505" type="line"/>
      <point x="394" y="472"/>
      <point x="385" y="431"/>
      <point x="385" y="393" type="curve" smooth="yes"/>
      <point x="385" y="342" type="line" smooth="yes"/>
      <point x="385" y="102"/>
      <point x="530" y="-27"/>
    </contour>
    <contour>
      <point x="811" y="216" type="curve" smooth="yes"/>
      <point x="735" y="216"/>
      <point x="700" y="261"/>
      <point x="700" y="347" type="curve" smooth="yes"/>
      <point x="700" y="385" type="line" smooth="yes"/>
      <point x="700" y="472"/>
      <point x="735" y="517"/>
      <point x="811" y="517" type="curve" smooth="yes"/>
      <point x="888" y="517"/>
      <point x="923" y="472"/>
      <point x="923" y="385" type="curve" smooth="yes"/>
      <point x="923" y="347" type="line" smooth="yes"/>
      <point x="923" y="261"/>
      <point x="888" y="216"/>
    </contour>
    <contour>
      <point x="1287" y="650" type="line"/>
      <point x="1597" y="650" type="line"/>
      <point x="1597" y="1351" type="line"/>
      <point x="1287" y="1351" type="line"/>
      <point x="1295" y="1105" type="line"/>
      <point x="1254" y="1105" type="line"/>
      <point x="1287" y="905" type="line"/>
    </contour>
  </outline>
</glyph>
<glyph name="Ttha.or" format="2">
  <advance width="1499"/>
  <unicode hex="0B20"/>
  <anchor x="954" y="86" name="bottom"/>
  <anchor x="749" y="86" name="nukta"/>
  <anchor x="749" y="1840" name="top1"/>
  <anchor x="1170" y="1412" name="top2"/>
  <outline>
    <contour>
      <point x="749" y="-30" type="curve" smooth="yes"/>
      <point x="1193" y="-30"/>
      <point x="1435" y="206"/>
      <point x="1435" y="623" type="curve" smooth="yes"/>
      <point x="1435" y="737" type="line" smooth="yes"/>
      <point x="1435" y="1151"/>
      <point x="1193" y="1389"/>
      <point x="749" y="1389" type="curve" smooth="yes"/>
      <point x="304" y="1389"/>
      <point x="64" y="1153"/>
      <point x="64" y="737" type="curve" smooth="yes"/>
      <point x="64" y="623" type="line" smooth="yes"/>
      <point x="64" y="206"/>
      <point x="304" y="-30"/>
    </contour>
    <contour>
      <point x="749" y="263" type="curve" smooth="yes"/>
      <point x="527" y="263"/>
      <point x="405" y="387"/>
      <point x="405" y="615" type="curve" smooth="yes"/>
      <point x="405" y="745" type="line" smooth="yes"/>
      <point x="405" y="972"/>
      <point x="527" y="1096"/>
      <point x="749" y="1096" type="curve" smooth="yes"/>
      <point x="971" y="1096"/>
      <point x="1094" y="972"/>
      <point x="1094" y="745" type="curve" smooth="yes"/>
      <point x="1094" y="615" type="line" smooth="yes"/>
      <point x="1094" y="387"/>
      <point x="971" y="263"/>
    </contour>
  </outline>
</glyph>
<glyph name="Dda.or" format="2">
  <advance width="1747"/>
  <unicode hex="0B21"/>
  <anchor x="1019" y="86" name="bottom"/>
  <anchor x="841" y="86" name="nukta"/>
  <anchor x="870" y="1840" name="top1"/>
  <anchor x="1365" y="1412" name="top2"/>
  <outline>
    <contour>
      <point x="394" y="306" type="curve"/>
      <point x="489" y="589" type="line"/>
      <point x="421" y="626"/>
      <point x="393" y="677"/>
      <point x="393" y="769" type="curve" smooth="yes"/>
      <point x="393" y="801" type="line" smooth="yes"/>
      <point x="393" y="991"/>
      <point x="544" y="1097"/>
      <point x="858" y="1097" type="curve" smooth="yes"/>
      <point x="1192" y="1097"/>
      <point x="1363" y="970"/>
      <point x="1363" y="708" type="curve" smooth="yes"/>
      <point x="1363" y="687" type="line" smooth="yes"/>
      <point x="1363" y="585"/>
      <point x="1353" y="515"/>
      <point x="1330" y="421" type="curve"/>
      <point x="1650" y="455" type="line"/>
      <point x="1680" y="527"/>
      <point x="1695" y="628"/>
      <point x="1695" y="718" type="curve" smooth="yes"/>
      <point x="1695" y="741" type="line" smooth="yes"/>
      <point x="1695" y="1164"/>
      <point x="1389" y="1392"/>
      <point x="857" y="1392" type="curve" smooth="yes"/>
      <point x="345" y="1392"/>
      <point x="53" y="1178"/>
      <point x="53" y="798" type="curve" smooth="yes"/>
      <point x="53" y="772" type="line" smooth="yes"/>
      <point x="53" y="519"/>
      <point x="162" y="375"/>
    </contour>
    <contour>
      <point x="815" y="-28" type="curve" smooth="yes"/>
      <point x="1102" y="-28"/>
      <point x="1270" y="90"/>
      <point x="1270" y="290" type="curve" smooth="yes"/>
      <point x="1270" y="296" type="line" smooth="yes"/>
      <point x="1270" y="405"/>
      <point x="1221" y="460"/>
      <point x="1129" y="488" type="curve"/>
      <point x="1129" y="521" type="line"/>
      <point x="944" y="427" type="line"/>
      <point x="964" y="412"/>
      <point x="970" y="382"/>
      <point x="970" y="354" type="curve" smooth="yes"/>
      <point x="970" y="345" type="line" smooth="yes"/>
      <point x="970" y="271"/>
      <point x="918" y="220"/>
      <point x="816" y="220" type="curve" smooth="yes"/>
      <point x="701" y="220"/>
      <point x="653" y="278"/>
      <point x="653" y="361" type="curve" smooth="yes"/>
      <point x="653" y="386" type="line" smooth="yes"/>
      <point x="653" y="449"/>
      <point x="678" y="490"/>
      <point x="733" y="512" type="curve"/>
      <point x="733" y="788" type="line"/>
      <point x="595" y="768"/>
      <point x="467" y="699"/>
      <point x="407" y="571" type="curve"/>
      <point x="364" y="528" type="line"/>
      <point x="345" y="485"/>
      <point x="337" y="446"/>
      <point x="337" y="396" type="curve" smooth="yes"/>
      <point x="337" y="361" type="line" smooth="yes"/>
      <point x="337" y="109"/>
      <point x="495" y="-28"/>
    </contour>
    <contour>
      <point x="805" y="344" type="line"/>
      <point x="1002" y="435" type="line"/>
      <point x="1101" y="482" type="line"/>
      <point x="1251" y="551" type="line"/>
      <point x="1251" y="823" type="line"/>
      <point x="805" y="623" type="line"/>
    </contour>
  </outline>
</glyph>
<glyph name="Ddha.or" format="2">
  <advance width="1767"/>
  <unicode hex="0B22"/>
  <anchor x="1018" y="86" name="bottom"/>
  <anchor x="872" y="86" name="nukta"/>
  <anchor x="872" y="1840" name="top1"/>
  <anchor x="1368" y="1412" name="top2"/>
  <outline>
    <contour>
      <point x="394" y="306" type="curve"/>
      <point x="489" y="589" type="line"/>
      <point x="421" y="624"/>
      <point x="393" y="672"/>
      <point x="393" y="757" type="curve" smooth="yes"/>
      <point x="393" y="789" type="line" smooth="yes"/>
      <point x="393" y="987"/>
      <point x="546" y="1097"/>
      <point x="857" y="1097" type="curve" smooth="yes"/>
      <point x="1215" y="1097"/>
      <point x="1383" y="950"/>
      <point x="1383" y="648" type="curve" smooth="yes"/>
      <point x="1383" y="618" type="line" smooth="yes"/>
      <point x="1383" y="552"/>
      <point x="1381" y="491"/>
      <point x="1368" y="421" type="curve"/>
      <point x="1688" y="455" type="line"/>
      <point x="1707" y="529"/>
      <point x="1715" y="614"/>
      <point x="1715" y="692" type="curve" smooth="yes"/>
      <point x="1715" y="711" type="line" smooth="yes"/>
      <point x="1715" y="1159"/>
      <point x="1411" y="1392"/>
      <point x="856" y="1392" type="curve" smooth="yes"/>
      <point x="347" y="1392"/>
      <point x="53" y="1174"/>
      <point x="53" y="787" type="curve" smooth="yes"/>
      <point x="53" y="760" type="line" smooth="yes"/>
      <point x="53" y="513"/>
      <point x="162" y="373"/>
    </contour>
    <contour>
      <point x="1423" y="-75" type="curve"/>
      <point x="1423" y="173" type="line"/>
      <point x="1345" y="175"/>
      <point x="1261" y="183"/>
      <point x="1204" y="202" type="curve"/>
      <point x="960" y="78" type="line"/>
      <point x="1083" y="-8"/>
      <point x="1255" y="-66"/>
    </contour>
    <contour>
      <point x="789" y="-26" type="curve" smooth="yes"/>
      <point x="917" y="-26"/>
      <point x="1014" y="-3"/>
      <point x="1089" y="37" type="curve"/>
      <point x="1219" y="146" type="line"/>
      <point x="1303" y="200"/>
      <point x="1339" y="278"/>
      <point x="1339" y="395" type="curve" smooth="yes"/>
      <point x="1339" y="430" type="line" smooth="yes"/>
      <point x="1339" y="617"/>
      <point x="1227" y="725"/>
      <point x="1013" y="725" type="curve" smooth="yes"/>
      <point x="812" y="725"/>
      <point x="699" y="616"/>
      <point x="699" y="439" type="curve" smooth="yes"/>
      <point x="699" y="403" type="line" smooth="yes"/>
      <point x="699" y="292"/>
      <point x="756" y="215"/>
      <point x="861" y="182" type="curve"/>
      <point x="1061" y="244" type="line"/>
      <point x="1002" y="263"/>
      <point x="957" y="308"/>
      <point x="957" y="379" type="curve" smooth="yes"/>
      <point x="957" y="441" type="line" smooth="yes"/>
      <point x="957" y="488"/>
      <point x="973" y="514"/>
      <point x="1010" y="514" type="curve" smooth="yes"/>
      <point x="1047" y="514"/>
      <point x="1063" y="488"/>
      <point x="1063" y="441" type="curve" smooth="yes"/>
      <point x="1063" y="368" type="line" smooth="yes"/>
      <point x="1063" y="303"/>
      <point x="1033" y="260"/>
      <point x="971" y="236" type="curve"/>
      <point x="876" y="204" type="line"/>
      <point x="852" y="198"/>
      <point x="834" y="197"/>
      <point x="808" y="197" type="curve" smooth="yes"/>
      <point x="664" y="197"/>
      <point x="595" y="259"/>
      <point x="595" y="367" type="curve" smooth="yes"/>
      <point x="595" y="404" type="line" smooth="yes"/>
      <point x="595" y="470"/>
      <point x="616" y="513"/>
      <point x="662" y="536" type="curve"/>
      <point x="662" y="807" type="line"/>
      <point x="539" y="783"/>
      <point x="425" y="711"/>
      <point x="367" y="585" type="curve"/>
      <point x="326" y="537" type="line"/>
      <point x="305" y="494"/>
      <point x="293" y="455"/>
      <point x="293" y="401" type="curve" smooth="yes"/>
      <point x="293" y="361" type="line" smooth="yes"/>
      <point x="293" y="109"/>
      <point x="466" y="-26"/>
    </contour>
  </outline>
</glyph>
<glyph name="Ta.or" format="2">
  <advance width="1747"/>
  <unicode hex="0B24"/>
  <anchor x="1047" y="86" name="bottom"/>
  <anchor x="858" y="86" name="nukta"/>
  <anchor x="858" y="1840" name="top1"/>
  <anchor x="1349" y="1412" name="top2"/>
  <outline>
    <contour>
      <point x="394" y="306" type="curve"/>
      <point x="489" y="589" type="line"/>
      <point x="421" y="626"/>
      <point x="393" y="677"/>
      <point x="393" y="769" type="curve" smooth="yes"/>
      <point x="393" y="801" type="line" smooth="yes"/>
      <point x="393" y="991"/>
      <point x="544" y="1097"/>
      <point x="858" y="1097" type="curve" smooth="yes"/>
      <point x="1192" y="1097"/>
      <point x="1363" y="970"/>
      <point x="1363" y="708" type="curve" smooth="yes"/>
      <point x="1363" y="687" type="line" smooth="yes"/>
      <point x="1363" y="585"/>
      <point x="1354" y="515"/>
      <point x="1333" y="421" type="curve"/>
      <point x="1653" y="455" type="line"/>
      <point x="1681" y="527"/>
      <point x="1695" y="628"/>
      <point x="1695" y="718" type="curve" smooth="yes"/>
      <point x="1695" y="741" type="line" smooth="yes"/>
      <point x="1695" y="1164"/>
      <point x="1389" y="1392"/>
      <point x="857" y="1392" type="curve" smooth="yes"/>
      <point x="345" y="1392"/>
      <point x="53" y="1178"/>
      <point x="53" y="798" type="curve" smooth="yes"/>
      <point x="53" y="772" type="line" smooth="yes"/>
      <point x="53" y="519"/>
      <point x="162" y="375"/>
    </contour>
    <contour>
      <point x="819" y="-28" type="curve" smooth="yes"/>
      <point x="1124" y="-28"/>
      <point x="1302" y="110"/>
      <point x="1302" y="363" type="curve" smooth="yes"/>
      <point x="1302" y="396" type="line" smooth="yes"/>
      <point x="1302" y="619"/>
      <point x="1200" y="710"/>
      <point x="1047" y="710" type="curve" smooth="yes"/>
      <point x="910" y="710"/>
      <point x="838" y="646"/>
      <point x="838" y="529" type="curve" smooth="yes"/>
      <point x="838" y="511" type="line" smooth="yes"/>
      <point x="838" y="408"/>
      <point x="907" y="347"/>
      <point x="1026" y="347" type="curve" smooth="yes"/>
      <point x="1141" y="347"/>
      <point x="1197" y="405"/>
      <point x="1197" y="497" type="curve" smooth="yes"/>
      <point x="1197" y="511" type="line" smooth="yes"/>
      <point x="1197" y="577"/>
      <point x="1149" y="622"/>
      <point x="1066" y="629" type="curve"/>
      <point x="892" y="491" type="line"/>
      <point x="913" y="493"/>
      <point x="914" y="494"/>
      <point x="933" y="494" type="curve"/>
      <point x="976" y="494"/>
      <point x="1006" y="449"/>
      <point x="1006" y="376" type="curve" smooth="yes"/>
      <point x="1006" y="354" type="line" smooth="yes"/>
      <point x="1006" y="271"/>
      <point x="951" y="220"/>
      <point x="830" y="220" type="curve" smooth="yes"/>
      <point x="707" y="220"/>
      <point x="653" y="278"/>
      <point x="653" y="362" type="curve" smooth="yes"/>
      <point x="653" y="386" type="line" smooth="yes"/>
      <point x="653" y="449"/>
      <point x="680" y="490"/>
      <point x="739" y="512" type="curve"/>
      <point x="739" y="788" type="line"/>
      <point x="598" y="768"/>
      <point x="468" y="698"/>
      <point x="406" y="571" type="curve"/>
      <point x="337" y="414" type="line"/>
      <point x="337" y="363" type="line" smooth="yes"/>
      <point x="337" y="109"/>
      <point x="498" y="-28"/>
    </contour>
  </outline>
</glyph>
<glyph name="Tha.or" format="2">
  <advance width="1629"/>
  <unicode hex="0B25"/>
  <anchor x="1535" y="86" name="bottom"/>
  <anchor x="833" y="86" name="nukta"/>
  <anchor x="833" y="1839" name="top1"/>
  <anchor x="1357" y="1412" name="top2"/>
  <outline>
    <contour>
      <point x="638" y="-27" type="curve" smooth="yes"/>
      <point x="980" y="-27"/>
      <point x="1151" y="75"/>
      <point x="1214" y="246" type="curve"/>
      <point x="1298" y="246" type="line"/>
      <point x="1225" y="499" type="line"/>
      <point x="1155" y="364"/>
      <point x="967" y="271"/>
      <point x="700" y="271" type="curve" smooth="yes"/>
      <point x="480" y="271"/>
      <point x="397" y="310"/>
      <point x="397" y="387" type="curve" smooth="yes"/>
      <point x="397" y="398" type="line" smooth="yes"/>
      <point x="397" y="458"/>
      <point x="436" y="485"/>
      <point x="539" y="504" type="curve" smooth="yes"/>
      <point x="694" y="533" type="line" smooth="yes"/>
      <point x="979" y="586"/>
      <point x="1087" y="732"/>
      <point x="1087" y="956" type="curve" smooth="yes"/>
      <point x="1087" y="1031" type="line" smooth="yes"/>
      <point x="1087" y="1266"/>
      <point x="952" y="1387"/>
      <point x="674" y="1387" type="curve" smooth="yes"/>
      <point x="406" y="1387"/>
      <point x="262" y="1272"/>
      <point x="262" y="1058" type="curve" smooth="yes"/>
      <point x="262" y="1033" type="line" smooth="yes"/>
      <point x="262" y="977"/>
      <point x="274" y="927"/>
      <point x="291" y="884" type="curve"/>
      <point x="588" y="865" type="line"/>
      <point x="574" y="906"/>
      <point x="566" y="947"/>
      <point x="566" y="982" type="curve" smooth="yes"/>
      <point x="566" y="1022" type="line" smooth="yes"/>
      <point x="566" y="1097"/>
      <point x="595" y="1138"/>
      <point x="669" y="1138" type="curve" smooth="yes"/>
      <point x="742" y="1138"/>
      <point x="774" y="1098"/>
      <point x="774" y="1023" type="curve" smooth="yes"/>
      <point x="774" y="964" type="line" smooth="yes"/>
      <point x="774" y="870"/>
      <point x="739" y="817"/>
      <point x="627" y="796" type="curve" smooth="yes"/>
      <point x="450" y="763" type="line" smooth="yes"/>
      <point x="161" y="709"/>
      <point x="46" y="603"/>
      <point x="46" y="395" type="curve" smooth="yes"/>
      <point x="46" y="373" type="line" smooth="yes"/>
      <point x="46" y="116"/>
      <point x="237" y="-27"/>
    </contour>
    <contour>
      <point x="1216" y="0" type="line"/>
      <point x="1535" y="0" type="line"/>
      <point x="1535" y="1351" type="line"/>
      <point x="1216" y="1351" type="line"/>
      <point x="1216" y="352" type="line"/>
      <point x="1226" y="300" type="line"/>
    </contour>
  </outline>
</glyph>
<glyph name="Dha.or" format="2">
  <advance width="1510"/>
  <unicode hex="0B27"/>
  <anchor x="1416" y="86" name="bottom"/>
  <anchor x="764" y="86" name="nukta"/>
  <anchor x="719" y="1839" name="top1"/>
  <anchor x="1238" y="1412" name="top2"/>
  <outline>
    <contour>
      <point x="616" y="-27" type="curve" smooth="yes"/>
      <point x="904" y="-27"/>
      <point x="1044" y="66"/>
      <point x="1092" y="217" type="curve"/>
      <point x="1179" y="217" type="line"/>
      <point x="1105" y="471" type="line"/>
      <point x="1049" y="346"/>
      <point x="910" y="269"/>
      <point x="710" y="269" type="curve" smooth="yes"/>
      <point x="500" y="269"/>
      <point x="406" y="346"/>
      <point x="406" y="487" type="curve" smooth="yes"/>
      <point x="406" y="507" type="line" smooth="yes"/>
      <point x="406" y="653"/>
      <point x="497" y="732"/>
      <point x="685" y="739" type="curve" smooth="yes"/>
      <point x="738" y="741"/>
      <point x="786" y="736"/>
      <point x="823" y="729" type="curve"/>
      <point x="688" y="978" type="line"/>
      <point x="642" y="981"/>
      <point x="594" y="980"/>
      <point x="544" y="977" type="curve" smooth="yes"/>
      <point x="255" y="953"/>
      <point x="63" y="793"/>
      <point x="63" y="504" type="curve" smooth="yes"/>
      <point x="63" y="465" type="line" smooth="yes"/>
      <point x="63" y="148"/>
      <point x="256" y="-27"/>
    </contour>
    <contour>
      <point x="458" y="1351" type="line"/>
      <point x="34" y="1351" type="line"/>
      <point x="34" y="1343" type="line"/>
      <point x="504" y="903" type="line"/>
      <point x="631" y="783" type="line"/>
      <point x="919" y="522" type="line"/>
      <point x="934" y="522" type="line"/>
      <point x="934" y="897" type="line"/>
    </contour>
    <contour>
      <point x="1098" y="0" type="line"/>
      <point x="1416" y="0" type="line"/>
      <point x="1416" y="1351" type="line"/>
      <point x="1096" y="1351" type="line"/>
      <point x="1096" y="327" type="line"/>
      <point x="1035" y="275" type="line"/>
      <point x="1104" y="275" type="line"/>
    </contour>
  </outline>
</glyph>
<glyph name="Na.or" format="2">
  <advance width="1662"/>
  <unicode hex="0B28"/>
  <anchor x="1154" y="86" name="bottom"/>
  <anchor x="820" y="86" name="nukta"/>
  <anchor x="825" y="1840" name="top1"/>
  <anchor x="1295" y="1412" name="top2"/>
  <outline>
    <contour>
      <point x="183" y="0" type="line"/>
      <point x="561" y="0" type="line"/>
      <point x="725" y="276" type="line" smooth="yes"/>
      <point x="767" y="347"/>
      <point x="812" y="431"/>
      <point x="849" y="499" type="curve"/>
      <point x="868" y="499" type="line"/>
      <point x="859" y="411"/>
      <point x="847" y="275"/>
      <point x="847" y="191" type="curve" smooth="yes"/>
      <point x="847" y="0" type="line"/>
      <point x="1154" y="0" type="line"/>
      <point x="1154" y="723" type="line"/>
      <point x="704" y="723" type="line"/>
      <point x="547" y="513" type="line"/>
      <point x="439" y="378" type="line"/>
    </contour>
    <contour>
      <point x="439" y="309" type="curve"/>
      <point x="595" y="547" type="line"/>
      <point x="460" y="579"/>
      <point x="393" y="653"/>
      <point x="393" y="781" type="curve" smooth="yes"/>
      <point x="393" y="803" type="line" smooth="yes"/>
      <point x="393" y="993"/>
      <point x="530" y="1097"/>
      <point x="817" y="1097" type="curve" smooth="yes"/>
      <point x="1126" y="1097"/>
      <point x="1278" y="972"/>
      <point x="1278" y="713" type="curve" smooth="yes"/>
      <point x="1278" y="692" type="line" smooth="yes"/>
      <point x="1278" y="588"/>
      <point x="1268" y="517"/>
      <point x="1243" y="421" type="curve"/>
      <point x="1560" y="455" type="line"/>
      <point x="1594" y="528"/>
      <point x="1610" y="637"/>
      <point x="1610" y="723" type="curve" smooth="yes"/>
      <point x="1610" y="746" type="line" smooth="yes"/>
      <point x="1610" y="1166"/>
      <point x="1324" y="1392"/>
      <point x="817" y="1392" type="curve" smooth="yes"/>
      <point x="329" y="1392"/>
      <point x="53" y="1180"/>
      <point x="53" y="804" type="curve" smooth="yes"/>
      <point x="53" y="777" type="line" smooth="yes"/>
      <point x="53" y="510"/>
      <point x="185" y="371"/>
    </contour>
  </outline>
</glyph>
<glyph name="Pa.or" format="2">
  <advance width="1605"/>
  <unicode hex="0B2A"/>
  <anchor x="1511" y="86" name="bottom"/>
  <anchor x="853" y="86" name="nukta"/>
  <anchor x="779" y="1839" name="top1"/>
  <anchor x="1331" y="1412" name="top2"/>
  <outline>
    <contour>
      <point x="1195" y="0" type="line"/>
      <point x="1511" y="0" type="line"/>
      <point x="1511" y="1351" type="line"/>
      <point x="1194" y="1351" type="line"/>
      <point x="1202" y="1105" type="line"/>
      <point x="1161" y="1105" type="line"/>
      <point x="1194" y="905" type="line"/>
      <point x="1194" y="326" type="line"/>
      <point x="1201" y="274" type="line"/>
    </contour>
    <contour>
      <point x="375" y="356" type="curve"/>
      <point x="496" y="632" type="line"/>
      <point x="419" y="667"/>
      <point x="393" y="713"/>
      <point x="393" y="800" type="curve" smooth="yes"/>
      <point x="393" y="832" type="line" smooth="yes"/>
      <point x="393" y="1005"/>
      <point x="506" y="1096"/>
      <point x="750" y="1096" type="curve" smooth="yes"/>
      <point x="1022" y="1096"/>
      <point x="1192" y="973"/>
      <point x="1194" y="716" type="curve"/>
      <point x="1310" y="736" type="line"/>
      <point x="1204" y="1057" type="line"/>
      <point x="1161" y="1266"/>
      <point x="1000" y="1392"/>
      <point x="682" y="1392" type="curve" smooth="yes"/>
      <point x="278" y="1392"/>
      <point x="53" y="1199"/>
      <point x="53" y="842" type="curve" smooth="yes"/>
      <point x="53" y="805" type="line" smooth="yes"/>
      <point x="53" y="569"/>
      <point x="153" y="427"/>
    </contour>
    <contour>
      <point x="776" y="-27" type="curve" smooth="yes"/>
      <point x="1029" y="-27"/>
      <point x="1147" y="65"/>
      <point x="1189" y="217" type="curve"/>
      <point x="1275" y="217" type="line"/>
      <point x="1202" y="428" type="line"/>
      <point x="1156" y="319"/>
      <point x="1032" y="242"/>
      <point x="868" y="242" type="curve" smooth="yes"/>
      <point x="707" y="242"/>
      <point x="636" y="296"/>
      <point x="636" y="385" type="curve" smooth="yes"/>
      <point x="636" y="394" type="line" smooth="yes"/>
      <point x="636" y="485"/>
      <point x="700" y="533"/>
      <point x="842" y="542" type="curve"/>
      <point x="842" y="811" type="line"/>
      <point x="649" y="803"/>
      <point x="481" y="751"/>
      <point x="378" y="593" type="curve"/>
      <point x="336" y="530" type="line"/>
      <point x="313" y="477"/>
      <point x="305" y="449"/>
      <point x="305" y="396" type="curve" smooth="yes"/>
      <point x="305" y="362" type="line" smooth="yes"/>
      <point x="305" y="112"/>
      <point x="469" y="-27"/>
    </contour>
  </outline>
</glyph>
<glyph name="Bha.or" format="2">
  <advance width="1863"/>
  <unicode hex="0B2D"/>
  <anchor x="1059" y="86" name="bottom"/>
  <anchor x="890" y="86" name="nukta"/>
  <anchor x="890" y="1840" name="top1"/>
  <anchor x="1429" y="1412" name="top2"/>
  <outline>
    <contour>
      <point x="1903" y="-229" type="line"/>
      <point x="1903" y="90" type="line"/>
      <point x="1618" y="164" type="line"/>
      <point x="1661" y="116" type="line"/>
      <point x="1747" y="193"/>
      <point x="1785" y="304"/>
      <point x="1785" y="435" type="curve" smooth="yes"/>
      <point x="1785" y="651" type="line" smooth="yes"/>
      <point x="1785" y="1130"/>
      <point x="1467" y="1392"/>
      <point x="888" y="1392" type="curve" smooth="yes"/>
      <point x="358" y="1392"/>
      <point x="53" y="1175"/>
      <point x="53" y="775" type="curve" smooth="yes"/>
      <point x="53" y="734" type="line" smooth="yes"/>
      <point x="53" y="522"/>
      <point x="153" y="379"/>
      <point x="362" y="325" type="curve"/>
      <point x="455" y="580" type="line"/>
      <point x="393" y="623"/>
      <point x="386" y="649"/>
      <point x="386" y="740" type="curve" smooth="yes"/>
      <point x="386" y="764" type="line" smooth="yes"/>
      <point x="386" y="984"/>
      <point x="548" y="1097"/>
      <point x="888" y="1097" type="curve" smooth="yes"/>
      <point x="1268" y="1097"/>
      <point x="1454" y="933"/>
      <point x="1454" y="608" type="curve" smooth="yes"/>
      <point x="1454" y="357" type="line" smooth="yes"/>
      <point x="1454" y="230"/>
      <point x="1412" y="109"/>
      <point x="1340" y="19" type="curve"/>
    </contour>
    <contour>
      <point x="828" y="-27" type="curve" smooth="yes"/>
      <point x="1155" y="-27"/>
      <point x="1339" y="133"/>
      <point x="1339" y="419" type="curve" smooth="yes"/>
      <point x="1339" y="468" type="line" smooth="yes"/>
      <point x="1339" y="559"/>
      <point x="1327" y="638"/>
      <point x="1311" y="703" type="curve"/>
      <point x="1046" y="703" type="line"/>
      <point x="1054" y="650"/>
      <point x="1061" y="582"/>
      <point x="1061" y="532" type="curve"/>
      <point x="1063" y="436" type="line"/>
      <point x="1066" y="408" type="line"/>
      <point x="1063" y="279"/>
      <point x="992" y="215"/>
      <point x="842" y="215" type="curve" smooth="yes"/>
      <point x="690" y="215"/>
      <point x="608" y="298"/>
      <point x="608" y="449" type="curve" smooth="yes"/>
      <point x="608" y="521" type="line" smooth="yes"/>
      <point x="608" y="606"/>
      <point x="629" y="681"/>
      <point x="660" y="751" type="curve"/>
      <point x="425" y="751" type="line"/>
      <point x="399" y="699"/>
      <point x="377" y="635"/>
      <point x="361" y="556" type="curve"/>
      <point x="311" y="466" type="line"/>
      <point x="311" y="414" type="line"/>
      <point x="311" y="133"/>
      <point x="492" y="-27"/>
    </contour>
    <contour>
      <point x="882" y="282" type="curve" smooth="yes"/>
      <point x="994" y="282"/>
      <point x="1040" y="331"/>
      <point x="1057" y="395" type="curve"/>
      <point x="1094" y="395" type="line"/>
      <point x="1062" y="528" type="line"/>
      <point x="1059" y="491"/>
      <point x="1040" y="472"/>
      <point x="1009" y="472" type="curve" smooth="yes"/>
      <point x="971" y="472"/>
      <point x="954" y="497"/>
      <point x="954" y="551" type="curve" smooth="yes"/>
      <point x="954" y="581" type="line" smooth="yes"/>
      <point x="954" y="628"/>
      <point x="959" y="665"/>
      <point x="968" y="703" type="curve"/>
      <point x="724" y="703" type="line"/>
      <point x="704" y="651"/>
      <point x="691" y="595"/>
      <point x="691" y="535" type="curve" smooth="yes"/>
      <point x="691" y="503" type="line" smooth="yes"/>
      <point x="691" y="377"/>
      <point x="748" y="282"/>
    </contour>
  </outline>
</glyph>
<glyph name="Ma.or" format="2">
  <advance width="1532"/>
  <unicode hex="0B2E"/>
  <anchor x="1438" y="86" name="bottom"/>
  <anchor x="824" y="86" name="nukta"/>
  <anchor x="751" y="1839" name="top1"/>
  <anchor x="1259" y="1412" name="top2"/>
  <outline>
    <contour>
      <point x="647" y="1392" type="curve" smooth="yes"/>
      <point x="278" y="1392"/>
      <point x="60" y="1205"/>
      <point x="60" y="865" type="curve" smooth="yes"/>
      <point x="60" y="822" type="line" smooth="yes"/>
      <point x="60" y="515"/>
      <point x="246" y="374"/>
      <point x="564" y="340" type="curve" smooth="yes"/>
      <point x="606" y="336"/>
      <point x="664" y="336"/>
      <point x="709" y="337" type="curve"/>
      <point x="899" y="569" type="line"/>
      <point x="855" y="568"/>
      <point x="801" y="569"/>
      <point x="747" y="573" type="curve" smooth="yes"/>
      <point x="514" y="592"/>
      <point x="400" y="676"/>
      <point x="400" y="832" type="curve" smooth="yes"/>
      <point x="400" y="849" type="line" smooth="yes"/>
      <point x="400" y="1008"/>
      <point x="501" y="1096"/>
      <point x="722" y="1096" type="curve" smooth="yes"/>
      <point x="968" y="1096"/>
      <point x="1114" y="987"/>
      <point x="1119" y="788" type="curve"/>
      <point x="1134" y="1057" type="line"/>
      <point x="1096" y="1266"/>
      <point x="946" y="1392"/>
    </contour>
    <contour>
      <point x="536" y="-1" type="line"/>
      <point x="1187" y="500" type="line"/>
      <point x="1191" y="830" type="line"/>
      <point x="713" y="490" type="line"/>
      <point x="582" y="395" type="line"/>
      <point x="53" y="3" type="line"/>
      <point x="53" y="-1" type="line"/>
    </contour>
    <contour>
      <point x="1119" y="0" type="line"/>
      <point x="1438" y="0" type="line"/>
      <point x="1438" y="1351" type="line"/>
      <point x="1123" y="1351" type="line"/>
      <point x="1131" y="1105" type="line"/>
      <point x="1087" y="1105" type="line"/>
      <point x="1119" y="1017" type="line"/>
    </contour>
  </outline>
</glyph>
<glyph name="Ya.or" format="2">
  <advance width="1627"/>
  <unicode hex="0B2F"/>
  <anchor x="1533" y="86" name="bottom"/>
  <anchor x="858" y="86" name="nukta"/>
  <anchor x="780" y="1839" name="top1"/>
  <anchor x="1353" y="1412" name="top2"/>
  <outline>
    <contour>
      <point x="20" y="123" type="line"/>
      <point x="420" y="327" type="line"/>
      <point x="635" y="445" type="line"/>
      <point x="873" y="561" type="line"/>
      <point x="873" y="862" type="line"/>
      <point x="436" y="647" type="line"/>
      <point x="318" y="579" type="line"/>
      <point x="20" y="437" type="line"/>
    </contour>
    <contour>
      <point x="1217" y="0" type="line"/>
      <point x="1533" y="0" type="line"/>
      <point x="1533" y="1351" type="line"/>
      <point x="1216" y="1351" type="line"/>
      <point x="1224" y="1105" type="line"/>
      <point x="1183" y="1105" type="line"/>
      <point x="1216" y="905" type="line"/>
      <point x="1216" y="327" type="line"/>
      <point x="1223" y="274" type="line"/>
    </contour>
    <contour>
      <point x="357" y="464" type="curve"/>
      <point x="518" y="651" type="line"/>
      <point x="441" y="686"/>
      <point x="415" y="732"/>
      <point x="415" y="824" type="curve" smooth="yes"/>
      <point x="415" y="844" type="line" smooth="yes"/>
      <point x="415" y="1003"/>
      <point x="528" y="1096"/>
      <point x="772" y="1096" type="curve" smooth="yes"/>
      <point x="1044" y="1096"/>
      <point x="1214" y="974"/>
      <point x="1216" y="716" type="curve"/>
      <point x="1332" y="736" type="line"/>
      <point x="1226" y="1057" type="line"/>
      <point x="1183" y="1266"/>
      <point x="1022" y="1392"/>
      <point x="704" y="1392" type="curve" smooth="yes"/>
      <point x="301" y="1392"/>
      <point x="75" y="1202"/>
      <point x="75" y="871" type="curve" smooth="yes"/>
      <point x="75" y="837" type="line" smooth="yes"/>
      <point x="75" y="637"/>
      <point x="163" y="522"/>
    </contour>
    <contour>
      <point x="808" y="-27" type="curve" smooth="yes"/>
      <point x="1054" y="-27"/>
      <point x="1170" y="65"/>
      <point x="1211" y="217" type="curve"/>
      <point x="1297" y="217" type="line"/>
      <point x="1224" y="427" type="line"/>
      <point x="1179" y="319"/>
      <point x="1061" y="242"/>
      <point x="898" y="242" type="curve" smooth="yes"/>
      <point x="742" y="242"/>
      <point x="676" y="291"/>
      <point x="676" y="390" type="curve" smooth="yes"/>
      <point x="676" y="408" type="line" smooth="yes"/>
      <point x="676" y="450"/>
      <point x="688" y="474"/>
      <point x="720" y="489" type="curve"/>
      <point x="389" y="527" type="line"/>
      <point x="365" y="475"/>
      <point x="358" y="435"/>
      <point x="358" y="380" type="curve" smooth="yes"/>
      <point x="358" y="332" type="line" smooth="yes"/>
      <point x="358" y="102"/>
      <point x="514" y="-27"/>
    </contour>
  </outline>
</glyph>
<glyph name="Ra.or" format="2">
  <advance width="1706"/>
  <unicode hex="0B30"/>
  <anchor x="967" y="86" name="bottom"/>
  <anchor x="871" y="86" name="nukta"/>
  <anchor x="817" y="1840" name="top1"/>
  <anchor x="1305" y="1412" name="top2"/>
  <outline>
    <contour>
      <point x="1739" y="-227" type="line"/>
      <point x="1739" y="91" type="line"/>
      <point x="1461" y="166" type="line"/>
      <point x="1503" y="116" type="line"/>
      <point x="1589" y="193"/>
      <point x="1628" y="305"/>
      <point x="1628" y="435" type="curve" smooth="yes"/>
      <point x="1628" y="696" type="line" smooth="yes"/>
      <point x="1628" y="1142"/>
      <point x="1338" y="1392"/>
      <point x="810" y="1392" type="curve" smooth="yes"/>
      <point x="327" y="1392"/>
      <point x="53" y="1185"/>
      <point x="53" y="802" type="curve" smooth="yes"/>
      <point x="53" y="781" type="line" smooth="yes"/>
      <point x="53" y="547"/>
      <point x="157" y="408"/>
      <point x="383" y="336" type="curve"/>
      <point x="496" y="612" type="line"/>
      <point x="419" y="647"/>
      <point x="393" y="693"/>
      <point x="393" y="780" type="curve" smooth="yes"/>
      <point x="393" y="798" type="line" smooth="yes"/>
      <point x="393" y="994"/>
      <point x="529" y="1097"/>
      <point x="810" y="1097" type="curve" smooth="yes"/>
      <point x="1140" y="1097"/>
      <point x="1297" y="945"/>
      <point x="1297" y="665" type="curve" smooth="yes"/>
      <point x="1297" y="357" type="line" smooth="yes"/>
      <point x="1297" y="230"/>
      <point x="1255" y="109"/>
      <point x="1182" y="19" type="curve"/>
    </contour>
    <contour>
      <point x="738" y="-27" type="curve" smooth="yes"/>
      <point x="1020" y="-27"/>
      <point x="1166" y="102"/>
      <point x="1166" y="342" type="curve" smooth="yes"/>
      <point x="1166" y="391" type="line" smooth="yes"/>
      <point x="1166" y="630"/>
      <point x="1022" y="760"/>
      <point x="751" y="760" type="curve" smooth="yes"/>
      <point x="554" y="760"/>
      <point x="440" y="675"/>
      <point x="386" y="556" type="curve"/>
      <point x="332" y="505" type="line"/>
      <point x="320" y="472"/>
      <point x="312" y="431"/>
      <point x="312" y="393" type="curve" smooth="yes"/>
      <point x="312" y="342" type="line" smooth="yes"/>
      <point x="312" y="102"/>
      <point x="458" y="-27"/>
    </contour>
    <contour>
      <point x="738" y="216" type="curve" smooth="yes"/>
      <point x="662" y="216"/>
      <point x="627" y="261"/>
      <point x="627" y="347" type="curve" smooth="yes"/>
      <point x="627" y="385" type="line" smooth="yes"/>
      <point x="627" y="472"/>
      <point x="662" y="517"/>
      <point x="738" y="517" type="curve" smooth="yes"/>
      <point x="815" y="517"/>
      <point x="850" y="472"/>
      <point x="850" y="385" type="curve" smooth="yes"/>
      <point x="850" y="347" type="line" smooth="yes"/>
      <point x="850" y="261"/>
      <point x="815" y="216"/>
    </contour>
  </outline>
</glyph>
<glyph name="La.or" format="2">
  <advance width="1872"/>
  <unicode hex="0B32"/>
  <anchor x="1343" y="86" name="bottom"/>
  <anchor x="891" y="86" name="nukta"/>
  <anchor x="891" y="1840" name="top1"/>
  <anchor x="1432" y="1412" name="top2"/>
  <outline>
    <contour>
      <point x="1929" y="-226" type="line"/>
      <point x="1929" y="92" type="line"/>
      <point x="1649" y="166" type="line"/>
      <point x="1677" y="113" type="line"/>
      <point x="1752" y="177"/>
      <point x="1792" y="285"/>
      <point x="1792" y="421" type="curve" smooth="yes"/>
      <point x="1792" y="641" type="line" smooth="yes"/>
      <point x="1792" y="1132"/>
      <point x="1473" y="1392"/>
      <point x="893" y="1392" type="curve" smooth="yes"/>
      <point x="360" y="1392"/>
      <point x="53" y="1178"/>
      <point x="53" y="775" type="curve" smooth="yes"/>
      <point x="53" y="734" type="line" smooth="yes"/>
      <point x="53" y="522"/>
      <point x="158" y="387"/>
      <point x="322" y="338" type="curve"/>
      <point x="459" y="603" type="line"/>
      <point x="411" y="632"/>
      <point x="393" y="677"/>
      <point x="393" y="741" type="curve" smooth="yes"/>
      <point x="393" y="770" type="line" smooth="yes"/>
      <point x="393" y="987"/>
      <point x="553" y="1097"/>
      <point x="892" y="1097" type="curve" smooth="yes"/>
      <point x="1281" y="1097"/>
      <point x="1461" y="927"/>
      <point x="1461" y="592" type="curve" smooth="yes"/>
      <point x="1461" y="315" type="line" smooth="yes"/>
      <point x="1461" y="210"/>
      <point x="1442" y="100"/>
      <point x="1411" y="19" type="curve"/>
    </contour>
    <contour>
      <point x="230" y="0" type="line"/>
      <point x="537" y="0" type="line"/>
      <point x="537" y="431" type="line" smooth="yes"/>
      <point x="537" y="486"/>
      <point x="552" y="509"/>
      <point x="590" y="509" type="curve" smooth="yes"/>
      <point x="627" y="509"/>
      <point x="641" y="486"/>
      <point x="641" y="431" type="curve" smooth="yes"/>
      <point x="641" y="0" type="line"/>
      <point x="932" y="0" type="line"/>
      <point x="932" y="431" type="line" smooth="yes"/>
      <point x="932" y="486"/>
      <point x="947" y="509"/>
      <point x="984" y="509" type="curve" smooth="yes"/>
      <point x="1022" y="509"/>
      <point x="1036" y="486"/>
      <point x="1036" y="431" type="curve" smooth="yes"/>
      <point x="1036" y="0" type="line"/>
      <point x="1343" y="0" type="line"/>
      <point x="1343" y="437" type="line" smooth="yes"/>
      <point x="1343" y="654"/>
      <point x="1252" y="765"/>
      <point x="1059" y="765" type="curve" smooth="yes"/>
      <point x="918" y="765"/>
      <point x="834" y="700"/>
      <point x="801" y="594" type="curve"/>
      <point x="794" y="594" type="line"/>
      <point x="766" y="705"/>
      <point x="696" y="765"/>
      <point x="572" y="765" type="curve" smooth="yes"/>
      <point x="449" y="765"/>
      <point x="371" y="711"/>
      <point x="337" y="606" type="curve"/>
      <point x="262" y="567" type="line"/>
      <point x="237" y="520"/>
      <point x="230" y="455"/>
      <point x="230" y="383" type="curve" smooth="yes"/>
    </contour>
  </outline>
</glyph>
<glyph name="Lla.or" format="2">
  <advance width="1794"/>
  <unicode hex="0B33"/>
  <anchor x="1375" y="86" name="bottom"/>
  <anchor x="847" y="86" name="nukta"/>
  <anchor x="887" y="1840" name="top1"/>
  <anchor x="1395" y="1412" name="top2"/>
  <outline>
    <contour>
      <point x="322" y="338" type="curve"/>
      <point x="462" y="615" type="line"/>
      <point x="403" y="661"/>
      <point x="393" y="687"/>
      <point x="393" y="751" type="curve" smooth="yes"/>
      <point x="393" y="771" type="line" smooth="yes"/>
      <point x="393" y="985"/>
      <point x="547" y="1097"/>
      <point x="873" y="1097" type="curve" smooth="yes"/>
      <point x="1239" y="1097"/>
      <point x="1410" y="955"/>
      <point x="1410" y="651" type="curve" smooth="yes"/>
      <point x="1410" y="618" type="line" smooth="yes"/>
      <point x="1410" y="555"/>
      <point x="1408" y="491"/>
      <point x="1395" y="421" type="curve"/>
      <point x="1712" y="455" type="line"/>
      <point x="1733" y="529"/>
      <point x="1742" y="614"/>
      <point x="1742" y="692" type="curve" smooth="yes"/>
      <point x="1742" y="711" type="line" smooth="yes"/>
      <point x="1742" y="1156"/>
      <point x="1432" y="1392"/>
      <point x="872" y="1392" type="curve" smooth="yes"/>
      <point x="352" y="1392"/>
      <point x="53" y="1177"/>
      <point x="53" y="778" type="curve" smooth="yes"/>
      <point x="53" y="738" type="line" smooth="yes"/>
      <point x="53" y="519"/>
      <point x="158" y="387"/>
    </contour>
    <contour>
      <point x="262" y="0" type="line"/>
      <point x="569" y="0" type="line"/>
      <point x="569" y="431" type="line" smooth="yes"/>
      <point x="569" y="486"/>
      <point x="584" y="509"/>
      <point x="622" y="509" type="curve" smooth="yes"/>
      <point x="659" y="509"/>
      <point x="673" y="486"/>
      <point x="673" y="431" type="curve" smooth="yes"/>
      <point x="673" y="0" type="line"/>
      <point x="964" y="0" type="line"/>
      <point x="964" y="431" type="line" smooth="yes"/>
      <point x="964" y="486"/>
      <point x="979" y="509"/>
      <point x="1016" y="509" type="curve" smooth="yes"/>
      <point x="1054" y="509"/>
      <point x="1068" y="486"/>
      <point x="1068" y="431" type="curve" smooth="yes"/>
      <point x="1068" y="0" type="line"/>
      <point x="1375" y="0" type="line"/>
      <point x="1375" y="437" type="line" smooth="yes"/>
      <point x="1375" y="654"/>
      <point x="1284" y="765"/>
      <point x="1091" y="765" type="curve" smooth="yes"/>
      <point x="950" y="765"/>
      <point x="866" y="700"/>
      <point x="833" y="594" type="curve"/>
      <point x="826" y="594" type="line"/>
      <point x="798" y="705"/>
      <point x="728" y="765"/>
      <point x="604" y="765" type="curve" smooth="yes"/>
      <point x="481" y="765"/>
      <point x="403" y="710"/>
      <point x="369" y="606" type="curve"/>
      <point x="294" y="567" type="line"/>
      <point x="269" y="520"/>
      <point x="262" y="455"/>
      <point x="262" y="383" type="curve" smooth="yes"/>
    </contour>
  </outline>
</glyph>
<glyph name="Va.or" format="2">
  <advance width="1717"/>
  <unicode hex="0B35"/>
  <anchor x="1239" y="86" name="bottom"/>
  <anchor x="853" y="86" name="nukta"/>
  <anchor x="853" y="1840" name="top1"/>
  <anchor x="1340" y="1412" name="top2"/>
  <outline>
    <contour>
      <point x="413" y="309" type="curve"/>
      <point x="508" y="592" type="line"/>
      <point x="426" y="628"/>
      <point x="393" y="680"/>
      <point x="393" y="780" type="curve" smooth="yes"/>
      <point x="393" y="802" type="line" smooth="yes"/>
      <point x="393" y="992"/>
      <point x="542" y="1097"/>
      <point x="844" y="1097" type="curve" smooth="yes"/>
      <point x="1172" y="1097"/>
      <point x="1333" y="970"/>
      <point x="1333" y="709" type="curve" smooth="yes"/>
      <point x="1333" y="687" type="line" smooth="yes"/>
      <point x="1333" y="585"/>
      <point x="1323" y="515"/>
      <point x="1298" y="421" type="curve"/>
      <point x="1615" y="455" type="line"/>
      <point x="1649" y="527"/>
      <point x="1665" y="634"/>
      <point x="1665" y="718" type="curve" smooth="yes"/>
      <point x="1665" y="743" type="line" smooth="yes"/>
      <point x="1665" y="1164"/>
      <point x="1369" y="1392"/>
      <point x="843" y="1392" type="curve" smooth="yes"/>
      <point x="341" y="1392"/>
      <point x="53" y="1179"/>
      <point x="53" y="800" type="curve" smooth="yes"/>
      <point x="53" y="773" type="line" smooth="yes"/>
      <point x="53" y="521"/>
      <point x="168" y="377"/>
    </contour>
    <contour>
      <point x="932" y="0" type="line"/>
      <point x="1239" y="0" type="line"/>
      <point x="1239" y="411" type="line" smooth="yes"/>
      <point x="1239" y="659"/>
      <point x="1103" y="784"/>
      <point x="823" y="784" type="curve" smooth="yes"/>
      <point x="622" y="784"/>
      <point x="504" y="699"/>
      <point x="449" y="580" type="curve"/>
      <point x="387" y="415" type="line"/>
      <point x="387" y="366" type="line"/>
      <point x="387" y="164"/>
      <point x="489" y="49"/>
      <point x="689" y="49" type="curve" smooth="yes"/>
      <point x="842" y="49"/>
      <point x="904" y="111"/>
      <point x="925" y="214" type="curve"/>
      <point x="936" y="214" type="line"/>
      <point x="932" y="88" type="line"/>
    </contour>
    <contour>
      <point x="814" y="277" type="curve" smooth="yes"/>
      <point x="725" y="277"/>
      <point x="678" y="322"/>
      <point x="678" y="407" type="curve" smooth="yes"/>
      <point x="678" y="417" type="line" smooth="yes"/>
      <point x="678" y="505"/>
      <point x="725" y="553"/>
      <point x="816" y="553" type="curve" smooth="yes"/>
      <point x="906" y="553"/>
      <point x="952" y="508"/>
      <point x="952" y="423" type="curve" smooth="yes"/>
      <point x="952" y="406" type="line" smooth="yes"/>
      <point x="952" y="323"/>
      <point x="905" y="277"/>
    </contour>
    <contour>
      <point x="816" y="317" type="curve" smooth="yes"/>
      <point x="875" y="317"/>
      <point x="908" y="347"/>
      <point x="908" y="409" type="curve" smooth="yes"/>
      <point x="908" y="417" type="line" smooth="yes"/>
      <point x="908" y="482"/>
      <point x="875" y="513"/>
      <point x="816" y="513" type="curve" smooth="yes"/>
      <point x="757" y="513"/>
      <point x="724" y="482"/>
      <point x="724" y="417" type="curve" smooth="yes"/>
      <point x="724" y="409" type="line" smooth="yes"/>
      <point x="724" y="347"/>
      <point x="757" y="317"/>
    </contour>
  </outline>
</glyph>
<glyph name="Ssa.or" format="2">
  <advance width="1608"/>
  <unicode hex="0B37"/>
  <anchor x="1514" y="86" name="bottom"/>
  <anchor x="853" y="86" name="nukta"/>
  <anchor x="778" y="1839" name="top1"/>
  <anchor x="1336" y="1412" name="top2"/>
  <outline>
    <contour>
      <point x="375" y="356" type="curve"/>
      <point x="496" y="632" type="line"/>
      <point x="419" y="667"/>
      <point x="393" y="713"/>
      <point x="393" y="800" type="curve" smooth="yes"/>
      <point x="393" y="832" type="line" smooth="yes"/>
      <point x="393" y="952"/>
      <point x="442" y="1034"/>
      <point x="554" y="1076" type="curve"/>
      <point x="670" y="1100" type="line"/>
      <point x="693" y="1103"/>
      <point x="719" y="1104"/>
      <point x="752" y="1104" type="curve" smooth="yes"/>
      <point x="1026" y="1104"/>
      <point x="1197" y="978"/>
      <point x="1199" y="716" type="curve"/>
      <point x="1313" y="736" type="line"/>
      <point x="1207" y="1057" type="line"/>
      <point x="1164" y="1266"/>
      <point x="1003" y="1392"/>
      <point x="684" y="1392" type="curve" smooth="yes"/>
      <point x="284" y="1392"/>
      <point x="53" y="1199"/>
      <point x="53" y="842" type="curve" smooth="yes"/>
      <point x="53" y="805" type="line" smooth="yes"/>
      <point x="53" y="570"/>
      <point x="153" y="427"/>
    </contour>
    <contour>
      <point x="778" y="-27" type="curve" smooth="yes"/>
      <point x="1032" y="-27"/>
      <point x="1150" y="65"/>
      <point x="1192" y="217" type="curve"/>
      <point x="1358" y="217" type="line"/>
      <point x="1216" y="428" type="line"/>
      <point x="1168" y="318"/>
      <point x="1040" y="240"/>
      <point x="870" y="240" type="curve" smooth="yes"/>
      <point x="708" y="240"/>
      <point x="636" y="295"/>
      <point x="636" y="385" type="curve" smooth="yes"/>
      <point x="636" y="394" type="line" smooth="yes"/>
      <point x="636" y="490"/>
      <point x="701" y="535"/>
      <point x="837" y="545" type="curve" smooth="yes"/>
      <point x="874" y="548"/>
      <point x="898" y="547"/>
      <point x="925" y="545" type="curve"/>
      <point x="936" y="770" type="line"/>
      <point x="898" y="780"/>
      <point x="837" y="789"/>
      <point x="766" y="784" type="curve" smooth="yes"/>
      <point x="617" y="776"/>
      <point x="485" y="731"/>
      <point x="411" y="630" type="curve"/>
      <point x="337" y="530" type="line"/>
      <point x="313" y="477"/>
      <point x="305" y="448"/>
      <point x="305" y="400" type="curve" smooth="yes"/>
      <point x="305" y="362" type="line" smooth="yes"/>
      <point x="305" y="112"/>
      <point x="470" y="-27"/>
    </contour>
    <contour>
      <point x="1107" y="221" type="line"/>
      <point x="1260" y="353" type="line"/>
      <point x="653" y="1208" type="line"/>
      <point x="439" y="1132" type="line"/>
    </contour>
    <contour>
      <point x="1198" y="0" type="line"/>
      <point x="1514" y="0" type="line"/>
      <point x="1514" y="1351" type="line"/>
      <point x="1197" y="1351" type="line"/>
      <point x="1205" y="1105" type="line"/>
      <point x="1163" y="1105" type="line"/>
      <point x="1199" y="906" type="line"/>
      <point x="1199" y="335" type="line"/>
      <point x="1204" y="274" type="line"/>
    </contour>
  </outline>
</glyph>
<glyph name="Sa.or" format="2">
  <advance width="1517"/>
  <unicode hex="0B38"/>
  <anchor x="1423" y="86" name="bottom"/>
  <anchor x="787" y="86" name="nukta"/>
  <anchor x="740" y="1839" name="top1"/>
  <anchor x="1245" y="1412" name="top2"/>
  <outline>
    <contour>
      <point x="1108" y="1351" type="line"/>
      <point x="1116" y="1105" type="line"/>
      <point x="1075" y="1105" type="line"/>
      <point x="1103" y="906" type="line"/>
      <point x="1108" y="693" type="line"/>
      <point x="1108" y="210" type="line"/>
      <point x="1145" y="259" type="line"/>
      <point x="543" y="357" type="line"/>
      <point x="543" y="368" type="line"/>
      <point x="1149" y="609" type="line"/>
      <point x="1149" y="893" type="line"/>
      <point x="515" y="635" type="line"/>
      <point x="389" y="551" type="line"/>
      <point x="148" y="443" type="line"/>
      <point x="148" y="171" type="line"/>
      <point x="1121" y="0" type="line"/>
      <point x="1423" y="0" type="line"/>
      <point x="1423" y="1351" type="line"/>
    </contour>
    <contour>
      <point x="659" y="652" type="line"/>
      <point x="489" y="672"/>
      <point x="398" y="748"/>
      <point x="398" y="869" type="curve" smooth="yes"/>
      <point x="398" y="885" type="line" smooth="yes"/>
      <point x="398" y="1025"/>
      <point x="495" y="1096"/>
      <point x="706" y="1096" type="curve" smooth="yes"/>
      <point x="952" y="1096"/>
      <point x="1093" y="988"/>
      <point x="1103" y="799" type="curve"/>
      <point x="1262" y="799" type="line"/>
      <point x="1117" y="1057" type="line"/>
      <point x="1079" y="1266"/>
      <point x="929" y="1392"/>
      <point x="630" y="1392" type="curve" smooth="yes"/>
      <point x="267" y="1392"/>
      <point x="53" y="1219"/>
      <point x="53" y="903" type="curve" smooth="yes"/>
      <point x="53" y="886" type="line" smooth="yes"/>
      <point x="53" y="651"/>
      <point x="184" y="532"/>
      <point x="415" y="488" type="curve"/>
    </contour>
  </outline>
</glyph>
<glyph name="Nukta.or" format="2">
  <unicode hex="0B3C"/>
  <anchor x="-881" y="86" name="_nukta"/>
  <outline>
    <contour>
      <point x="-881" y="-427" type="curve" smooth="yes"/>
      <point x="-770" y="-427"/>
      <point x="-712" y="-367"/>
      <point x="-712" y="-271" type="curve" smooth="yes"/>
      <point x="-712" y="-261" type="line" smooth="yes"/>
      <point x="-712" y="-166"/>
      <point x="-771" y="-104"/>
      <point x="-881" y="-104" type="curve" smooth="yes"/>
      <point x="-991" y="-104"/>
      <point x="-1049" y="-165"/>
      <point x="-1049" y="-261" type="curve" smooth="yes"/>
      <point x="-1049" y="-271" type="line" smooth="yes"/>
      <point x="-1049" y="-367"/>
      <point x="-991" y="-427"/>
    </contour>
  </outline>
</glyph>
<glyph name="Avagraha.or" format="2">
  <advance width="847"/>
  <unicode hex="0B3D"/>
  <outline>
    <contour>
      <point x="48" y="1060" type="line"/>
      <point x="781" y="1390" type="line"/>
      <point x="781" y="1059" type="line"/>
      <point x="276" y="849" type="line"/>
      <point x="276" y="1032" type="line"/>
      <point x="764" y="781" type="line"/>
      <point x="764" y="572" type="line"/>
      <point x="276" y="326" type="line"/>
      <point x="276" y="508" type="line"/>
      <point x="782" y="294" type="line"/>
      <point x="781" y="-35" type="line"/>
      <point x="48" y="289" type="line"/>
      <point x="48" y="521" type="line"/>
      <point x="418" y="705" type="line"/>
      <point x="418" y="649" type="line"/>
      <point x="48" y="831" type="line"/>
    </contour>
  </outline>
</glyph>
<glyph name="MatraI.or" format="2">
  <unicode hex="0B3F"/>
  <anchor x="-879" y="1840" name="_top1"/>
  <outline>
    <contour>
      <point x="-1543" y="1394" type="line"/>
      <point x="-1366" y="1496"/>
      <point x="-1144" y="1569"/>
      <point x="-879" y="1569" type="curve" smooth="yes"/>
      <point x="-614" y="1569"/>
      <point x="-392" y="1496"/>
      <point x="-214" y="1394" type="curve"/>
      <point x="-231" y="1671" type="line"/>
      <point x="-404" y="1778"/>
      <point x="-615" y="1840"/>
      <point x="-879" y="1840" type="curve" smooth="yes"/>
      <point x="-1142" y="1840"/>
      <point x="-1354" y="1778"/>
      <point x="-1526" y="1671" type="curve"/>
    </contour>
  </outline>
</glyph>
<glyph name="MatraIi.or" format="2">
  <advance width="754"/>
  <unicode hex="0B40"/>
  <outline>
    <contour>
      <point x="340" y="0" type="line"/>
      <point x="660" y="0" type="line"/>
      <point x="660" y="1351" type="line"/>
      <point x="374" y="1351" type="line"/>
      <point x="31" y="1086" type="line"/>
      <point x="31" y="709" type="line"/>
      <point x="44" y="709" type="line"/>
      <point x="329" y="945" type="line"/>
      <point x="340" y="945" type="line"/>
    </contour>
  </outline>
</glyph>
<glyph name="MatraVocalicR.or" format="2">
  <unicode hex="0B43"/>
  <anchor x="-94" y="86" name="_bottom"/>
  <outline>
    <contour>
      <point x="-237" y="-430" type="curve" smooth="yes"/>
      <point x="-259" y="-430"/>
      <point x="-279" y="-434"/>
      <point x="-296" y="-439" type="curve"/>
      <point x="-296" y="-274" type="line"/>
      <point x="-264" y="-260"/>
      <point x="-218" y="-251"/>
      <point x="-166" y="-251" type="curve" smooth="yes"/>
      <point x="-19" y="-251"/>
      <point x="73" y="-324"/>
      <point x="73" y="-465" type="curve" smooth="yes"/>
      <point x="73" y="-474" type="line" smooth="yes"/>
      <point x="73" y="-633"/>
      <point x="-52" y="-723"/>
      <point x="-279" y="-723" type="curve" smooth="yes"/>
      <point x="-537" y="-723"/>
      <point x="-679" y="-604"/>
      <point x="-679" y="-387" type="curve" smooth="yes"/>
      <point x="-679" y="-377" type="line" smooth="yes"/>
      <point x="-679" y="-171"/>
      <point x="-548" y="-50"/>
      <point x="-289" y="-13" type="curve"/>
      <point x="-414" y="-90" type="line"/>
      <point x="-414" y="249" type="line"/>
      <point x="-94" y="249" type="line"/>
      <point x="-94" y="-183" type="line"/>
      <point x="-325" y="-192"/>
      <point x="-410" y="-255"/>
      <point x="-410" y="-373" type="curve" smooth="yes"/>
      <point x="-410" y="-381" type="line" smooth="yes"/>
      <point x="-410" y="-469"/>
      <point x="-361" y="-506"/>
      <point x="-271" y="-506" type="curve" smooth="yes"/>
      <point x="-204" y="-506"/>
      <point x="-180" y="-491"/>
      <point x="-180" y="-466" type="curve" smooth="yes"/>
      <point x="-180" y="-464" type="line" smooth="yes"/>
      <point x="-180" y="-440"/>
      <point x="-196" y="-430"/>
    </contour>
  </outline>
</glyph>
<glyph name="MatraVocalicRr.or" format="2">
  <unicode hex="0B44"/>
  <anchor x="-94" y="86" name="_bottom"/>
  <outline>
    <contour>
      <point x="-216" y="-874" type="curve" smooth="yes"/>
      <point x="18" y="-874"/>
      <point x="147" y="-779"/>
      <point x="147" y="-613" type="curve" smooth="yes"/>
      <point x="147" y="-604" type="line" smooth="yes"/>
      <point x="147" y="-466"/>
      <point x="63" y="-391"/>
      <point x="-91" y="-391" type="curve" smooth="yes"/>
      <point x="-134" y="-391"/>
      <point x="-172" y="-396"/>
      <point x="-209" y="-406" type="curve"/>
      <point x="-209" y="-589" type="line"/>
      <point x="-190" y="-584"/>
      <point x="-175" y="-582"/>
      <point x="-155" y="-582" type="curve" smooth="yes"/>
      <point x="-122" y="-582"/>
      <point x="-107" y="-592"/>
      <point x="-107" y="-614" type="curve" smooth="yes"/>
      <point x="-107" y="-615" type="line" smooth="yes"/>
      <point x="-107" y="-643"/>
      <point x="-142" y="-658"/>
      <point x="-205" y="-658" type="curve" smooth="yes"/>
      <point x="-291" y="-658"/>
      <point x="-333" y="-632"/>
      <point x="-333" y="-585" type="curve" smooth="yes"/>
      <point x="-333" y="-580" type="line" smooth="yes"/>
      <point x="-333" y="-541"/>
      <point x="-309" y="-519"/>
      <point x="-255" y="-516" type="curve"/>
      <point x="-255" y="-347" type="line"/>
      <point x="-304" y="-344"/>
      <point x="-326" y="-333"/>
      <point x="-326" y="-307" type="curve" smooth="yes"/>
      <point x="-326" y="-306" type="line" smooth="yes"/>
      <point x="-326" y="-280"/>
      <point x="-305" y="-267"/>
      <point x="-239" y="-267" type="curve" smooth="yes"/>
      <point x="-205" y="-267"/>
      <point x="-174" y="-270"/>
      <point x="-139" y="-276" type="curve"/>
      <point x="-157" y="-86" type="line"/>
      <point x="-202" y="-71"/>
      <point x="-260" y="-64"/>
      <point x="-327" y="-64" type="curve" smooth="yes"/>
      <point x="-501" y="-64"/>
      <point x="-599" y="-137"/>
      <point x="-599" y="-256" type="curve" smooth="yes"/>
      <point x="-599" y="-263" type="line" smooth="yes"/>
      <point x="-599" y="-344"/>
      <point x="-554" y="-397"/>
      <point x="-483" y="-417" type="curve"/>
      <point x="-483" y="-424" type="line"/>
      <point x="-567" y="-457"/>
      <point x="-602" y="-521"/>
      <point x="-602" y="-610" type="curve" smooth="yes"/>
      <point x="-602" y="-615" type="line" smooth="yes"/>
      <point x="-602" y="-777"/>
      <point x="-465" y="-874"/>
    </contour>
  </outline>
</glyph>
<glyph name="MatraE.or" format="2">
  <advance width="1136"/>
  <unicode hex="0B47"/>
  <outline>
    <contour>
      <point x="597" y="-30" type="curve" smooth="yes"/>
      <point x="921" y="-30"/>
      <point x="1090" y="118"/>
      <point x="1090" y="411" type="curve" smooth="yes"/>
      <point x="1090" y="459" type="line" smooth="yes"/>
      <point x="1090" y="715"/>
      <point x="976" y="862"/>
      <point x="744" y="862" type="curve" smooth="yes"/>
      <point x="559" y="862"/>
      <point x="462" y="776"/>
      <point x="420" y="653" type="curve"/>
      <point x="385" y="653" type="line"/>
      <point x="398" y="458" type="line"/>
      <point x="437" y="535"/>
      <point x="516" y="582"/>
      <point x="607" y="582" type="curve" smooth="yes"/>
      <point x="708" y="582"/>
      <point x="757" y="531"/>
      <point x="757" y="437" type="curve" smooth="yes"/>
      <point x="757" y="414" type="line" smooth="yes"/>
      <point x="757" y="310"/>
      <point x="706" y="258"/>
      <point x="600" y="258" type="curve" smooth="yes"/>
      <point x="469" y="258"/>
      <point x="410" y="344"/>
      <point x="410" y="501" type="curve"/>
      <point x="410" y="761" type="line"/>
      <point x="410" y="989"/>
      <point x="510" y="1091"/>
      <point x="720" y="1091" type="curve" smooth="yes"/>
      <point x="850" y="1091"/>
      <point x="939" y="1061"/>
      <point x="1015" y="1028" type="curve"/>
      <point x="996" y="1315" type="line"/>
      <point x="923" y="1352"/>
      <point x="807" y="1386"/>
      <point x="656" y="1386" type="curve" smooth="yes"/>
      <point x="277" y="1386"/>
      <point x="70" y="1161"/>
      <point x="70" y="763" type="curve" smooth="yes"/>
      <point x="70" y="528" type="line" smooth="yes"/>
      <point x="70" y="153"/>
      <point x="259" y="-30"/>
    </contour>
  </outline>
</glyph>
<glyph name="Virama.or" format="2">
  <unicode hex="0B4D"/>
  <anchor x="-94" y="86" name="_bottom"/>
  <outline>
    <contour>
      <point x="-424" y="-128" type="line"/>
      <point x="-424" y="-97" type="line"/>
      <point x="-94" y="-97" type="line"/>
      <point x="208" y="-521" type="line"/>
      <point x="208" y="-533" type="line"/>
      <point x="-82" y="-533" type="line"/>
    </contour>
  </outline>
</glyph>
<glyph name="LengthmarkAi.or" format="2">
  <unicode hex="0B56"/>
  <outline>
    <contour>
      <point x="-1116" y="1913" type="line"/>
      <point x="-1114" y="1877" type="line" smooth="yes"/>
      <point x="-1110" y="1805"/>
      <point x="-1063" y="1773"/>
      <point x="-960" y="1771" type="curve" smooth="yes"/>
      <point x="-522" y="1763" type="line" smooth="yes"/>
      <point x="-231" y="1758"/>
      <point x="-94" y="1656"/>
      <point x="-94" y="1424" type="curve" smooth="yes"/>
      <point x="-94" y="1407" type="line"/>
      <point x="-413" y="1407" type="line"/>
      <point x="-414" y="1416" type="line" smooth="yes"/>
      <point x="-420" y="1471"/>
      <point x="-454" y="1500"/>
      <point x="-532" y="1502" type="curve" smooth="yes"/>
      <point x="-984" y="1511" type="line" smooth="yes"/>
      <point x="-1295" y="1517"/>
      <point x="-1424" y="1626"/>
      <point x="-1424" y="1868" type="curve" smooth="yes"/>
      <point x="-1424" y="1913" type="line"/>
    </contour>
  </outline>
</glyph>
<glyph name="LengthmarkAu.or" format="2">
  <advance width="508"/>
  <unicode hex="0B57"/>
  <outline>
    <contour>
      <point x="95" y="0" type="line"/>
      <point x="414" y="0" type="line"/>
      <point x="414" y="1330" type="line" smooth="yes"/>
      <point x="414" y="1634"/>
      <point x="277" y="1747"/>
      <point x="-43" y="1753" type="curve" smooth="yes"/>
      <point x="-451" y="1761" type="line" smooth="yes"/>
      <point x="-555" y="1763"/>
      <point x="-602" y="1798"/>
      <point x="-606" y="1877" type="curve" smooth="yes"/>
      <point x="-608" y="1913" type="line"/>
      <point x="-916" y="1913" type="line"/>
      <point x="-916" y="1868" type="line" smooth="yes"/>
      <point x="-916" y="1619"/>
      <point x="-787" y="1507"/>
      <point x="-475" y="1501" type="curve" smooth="yes"/>
      <point x="-74" y="1493" type="line" smooth="yes"/>
      <point x="61" y="1490"/>
      <point x="95" y="1436"/>
      <point x="95" y="1317" type="curve" smooth="yes"/>
    </contour>
  </outline>
</glyph>
<glyph name="Yya.or" format="2">
  <advance width="1626"/>
  <unicode hex="0B5F"/>
  <anchor x="1563" y="-202" name="bottom"/>
  <anchor x="780" y="1839" name="top1"/>
  <anchor x="1353" y="1412" name="top2"/>
  <outline>
    <contour>
      <point x="1700" y="-483" type="line"/>
      <point x="1700" y="-169" type="line"/>
      <point x="1374" y="-102" type="line"/>
      <point x="1383" y="-144" type="line"/>
      <point x="1432" y="-137" type="line"/>
      <point x="1586" y="-118"/>
      <point x="1652" y="-20"/>
      <point x="1652" y="129" type="curve" smooth="yes"/>
      <point x="1652" y="139" type="line" smooth="yes"/>
      <point x="1652" y="296"/>
      <point x="1586" y="378"/>
      <point x="1489" y="407" type="curve"/>
      <point x="1273" y="442" type="line"/>
      <point x="1222" y="440"/>
      <point x="1163" y="404"/>
      <point x="1085" y="361" type="curve" smooth="yes"/>
      <point x="996" y="311"/>
      <point x="919" y="256"/>
      <point x="830" y="256" type="curve" smooth="yes"/>
      <point x="729" y="256"/>
      <point x="676" y="307"/>
      <point x="676" y="390" type="curve" smooth="yes"/>
      <point x="676" y="408" type="line" smooth="yes"/>
      <point x="676" y="450"/>
      <point x="688" y="474"/>
      <point x="720" y="489" type="curve"/>
      <point x="389" y="527" type="line"/>
      <point x="365" y="475"/>
      <point x="358" y="435"/>
      <point x="358" y="380" type="curve" smooth="yes"/>
      <point x="358" y="332" type="line" smooth="yes"/>
      <point x="358" y="102"/>
      <point x="499" y="-27"/>
      <point x="768" y="-27" type="curve" smooth="yes"/>
      <point x="915" y="-27"/>
      <point x="1031" y="33"/>
      <point x="1133" y="100" type="curve" smooth="yes"/>
      <point x="1202" y="145"/>
      <point x="1230" y="169"/>
      <point x="1274" y="169" type="curve" smooth="yes"/>
      <point x="1320" y="169"/>
      <point x="1349" y="139"/>
      <point x="1349" y="74" type="curve" smooth="yes"/>
      <point x="1349" y="60" type="line" smooth="yes"/>
      <point x="1349" y="-9"/>
      <point x="1311" y="-48"/>
      <point x="1203" y="-51" type="curve" smooth="yes"/>
      <point x="1131" y="-53" type="line"/>
      <point x="1131" y="-258" type="line"/>
    </contour>
    <contour>
      <point x="20" y="123" type="line"/>
      <point x="420" y="327" type="line"/>
      <point x="635" y="445" type="line"/>
      <point x="873" y="561" type="line"/>
      <point x="873" y="862" type="line"/>
      <point x="436" y="647" type="line"/>
      <point x="318" y="579" type="line"/>
      <point x="20" y="437" type="line"/>
    </contour>
    <contour>
      <point x="357" y="464" type="curve"/>
      <point x="518" y="651" type="line"/>
      <point x="441" y="686"/>
      <point x="415" y="732"/>
      <point x="415" y="824" type="curve" smooth="yes"/>
      <point x="415" y="844" type="line" smooth="yes"/>
      <point x="415" y="1003"/>
      <point x="528" y="1096"/>
      <point x="772" y="1096" type="curve" smooth="yes"/>
      <point x="1044" y="1096"/>
      <point x="1214" y="975"/>
      <point x="1216" y="716" type="curve"/>
      <point x="1332" y="736" type="line"/>
      <point x="1226" y="1057" type="line"/>
      <point x="1183" y="1266"/>
      <point x="1022" y="1392"/>
      <point x="704" y="1392" type="curve" smooth="yes"/>
      <point x="301" y="1392"/>
      <point x="75" y="1202"/>
      <point x="75" y="871" type="curve" smooth="yes"/>
      <point x="75" y="837" type="line" smooth="yes"/>
      <point x="75" y="637"/>
      <point x="163" y="522"/>
    </contour>
    <contour>
      <point x="1216" y="215" type="line"/>
      <point x="1533" y="215" type="line"/>
      <point x="1533" y="1351" type="line"/>
      <point x="1216" y="1351" type="line"/>
      <point x="1224" y="1105" type="line"/>
      <point x="1183" y="1105" type="line"/>
      <point x="1216" y="905" type="line"/>
    </contour>
  </outline>
</glyph>
<glyph name="VocalicRr.or" format="2">
  <advance width="1772"/>
  <unicode hex="0B60"/>
  <anchor x="849" y="1840" name="top1"/>
  <anchor x="1384" y="1412" name="top2"/>
  <outline>
    <contour>
      <point x="1780" y="-230" type="line"/>
      <point x="1780" y="84" type="line"/>
      <point x="1485" y="144" type="line"/>
      <point x="1466" y="105" type="line"/>
      <point x="1541" y="108" type="line"/>
      <point x="1665" y="110"/>
      <point x="1734" y="162"/>
      <point x="1734" y="249" type="curve" smooth="yes"/>
      <point x="1734" y="259" type="line" smooth="yes"/>
      <point x="1734" y="337"/>
      <point x="1692" y="378"/>
      <point x="1619" y="394" type="curve"/>
      <point x="1619" y="400" type="line"/>
      <point x="1694" y="418"/>
      <point x="1730" y="464"/>
      <point x="1730" y="543" type="curve" smooth="yes"/>
      <point x="1730" y="552" type="line" smooth="yes"/>
      <point x="1730" y="639"/>
      <point x="1674" y="692"/>
      <point x="1572" y="706" type="curve"/>
      <point x="1571" y="639" type="line"/>
      <point x="1644" y="678"/>
      <point x="1675" y="758"/>
      <point x="1675" y="846" type="curve" smooth="yes"/>
      <point x="1675" y="853" type="line" smooth="yes"/>
      <point x="1675" y="1195"/>
      <point x="1362" y="1392"/>
      <point x="849" y="1392" type="curve" smooth="yes"/>
      <point x="338" y="1392"/>
      <point x="53" y="1189"/>
      <point x="53" y="807" type="curve" smooth="yes"/>
      <point x="53" y="785" type="line" smooth="yes"/>
      <point x="53" y="549"/>
      <point x="157" y="409"/>
      <point x="383" y="336" type="curve"/>
      <point x="496" y="612" type="line"/>
      <point x="419" y="648"/>
      <point x="393" y="695"/>
      <point x="393" y="784" type="curve" smooth="yes"/>
      <point x="393" y="802" type="line" smooth="yes"/>
      <point x="393" y="993"/>
      <point x="535" y="1097"/>
      <point x="845" y="1097" type="curve" smooth="yes"/>
      <point x="1177" y="1097"/>
      <point x="1344" y="997"/>
      <point x="1344" y="818" type="curve" smooth="yes"/>
      <point x="1344" y="811" type="line" smooth="yes"/>
      <point x="1344" y="762"/>
      <point x="1327" y="723"/>
      <point x="1274" y="718" type="curve" smooth="yes"/>
      <point x="1263" y="717" type="line"/>
      <point x="1263" y="535" type="line"/>
      <point x="1359" y="532" type="line" smooth="yes"/>
      <point x="1409" y="530"/>
      <point x="1427" y="520"/>
      <point x="1427" y="492" type="curve"/>
      <point x="1427" y="489" type="line"/>
      <point x="1427" y="458"/>
      <point x="1407" y="448"/>
      <point x="1354" y="447" type="curve" smooth="yes"/>
      <point x="1279" y="445" type="line"/>
      <point x="1279" y="277" type="line"/>
      <point x="1353" y="275" type="line" smooth="yes"/>
      <point x="1410" y="273"/>
      <point x="1428" y="264"/>
      <point x="1428" y="234" type="curve"/>
      <point x="1428" y="231" type="line"/>
      <point x="1428" y="203"/>
      <point x="1410" y="188"/>
      <point x="1350" y="187" type="curve" smooth="yes"/>
      <point x="1258" y="185" type="line"/>
      <point x="1258" y="-5" type="line"/>
    </contour>
    <contour>
      <point x="738" y="-27" type="curve" smooth="yes"/>
      <point x="1020" y="-27"/>
      <point x="1166" y="102"/>
      <point x="1166" y="342" type="curve" smooth="yes"/>
      <point x="1166" y="391" type="line" smooth="yes"/>
      <point x="1166" y="630"/>
      <point x="1022" y="760"/>
      <point x="751" y="760" type="curve" smooth="yes"/>
      <point x="554" y="760"/>
      <point x="440" y="675"/>
      <point x="386" y="556" type="curve"/>
      <point x="332" y="505" type="line"/>
      <point x="320" y="472"/>
      <point x="312" y="431"/>
      <point x="312" y="393" type="curve" smooth="yes"/>
      <point x="312" y="342" type="line" smooth="yes"/>
      <point x="312" y="102"/>
      <point x="458" y="-27"/>
    </contour>
    <contour>
      <point x="738" y="216" type="curve" smooth="yes"/>
      <point x="662" y="216"/>
      <point x="627" y="261"/>
      <point x="627" y="347" type="curve" smooth="yes"/>
      <point x="627" y="385" type="line" smooth="yes"/>
      <point x="627" y="472"/>
      <point x="662" y="517"/>
      <point x="738" y="517" type="curve" smooth="yes"/>
      <point x="815" y="517"/>
      <point x="850" y="472"/>
      <point x="850" y="385" type="curve" smooth="yes"/>
      <point x="850" y="347" type="line" smooth="yes"/>
      <point x="850" y="261"/>
      <point x="815" y="216"/>
    </contour>
  </outline>
</glyph>
<glyph name="VocalicLl.or" format="2">
  <advance width="1441"/>
  <unicode hex="0B61"/>
  <anchor x="1120" y="1412" name="top2"/>
  <outline>
    <contour>
      <point x="739" y="-24" type="curve" smooth="yes"/>
      <point x="876" y="-24"/>
      <point x="991" y="-6"/>
      <point x="1082" y="30" type="curve"/>
      <point x="1230" y="123" type="line"/>
      <point x="1355" y="186"/>
      <point x="1396" y="277"/>
      <point x="1396" y="375" type="curve" smooth="yes"/>
      <point x="1396" y="384" type="line" smooth="yes"/>
      <point x="1396" y="577"/>
      <point x="1275" y="698"/>
      <point x="1012" y="698" type="curve" smooth="yes"/>
      <point x="786" y="698"/>
      <point x="622" y="600"/>
      <point x="622" y="422" type="curve" smooth="yes"/>
      <point x="622" y="410" type="line" smooth="yes"/>
      <point x="622" y="309"/>
      <point x="686" y="242"/>
      <point x="784" y="210" type="curve"/>
      <point x="1001" y="249" type="line"/>
      <point x="947" y="270"/>
      <point x="907" y="318"/>
      <point x="907" y="377" type="curve" smooth="yes"/>
      <point x="907" y="385" type="line" smooth="yes"/>
      <point x="907" y="446"/>
      <point x="941" y="479"/>
      <point x="1004" y="479" type="curve" smooth="yes"/>
      <point x="1064" y="479"/>
      <point x="1096" y="447"/>
      <point x="1096" y="386" type="curve" smooth="yes"/>
      <point x="1096" y="380" type="line" smooth="yes"/>
      <point x="1096" y="320"/>
      <point x="1042" y="267"/>
      <point x="944" y="256" type="curve"/>
      <point x="853" y="242" type="line"/>
      <point x="816" y="240"/>
      <point x="784" y="239"/>
      <point x="751" y="239" type="curve"/>
      <point x="492" y="243"/>
      <point x="393" y="314"/>
      <point x="393" y="441" type="curve" smooth="yes"/>
      <point x="393" y="450" type="line" smooth="yes"/>
      <point x="393" y="543"/>
      <point x="442" y="589"/>
      <point x="568" y="635" type="curve" smooth="yes"/>
      <point x="774" y="710" type="line" smooth="yes"/>
      <point x="1055" y="812"/>
      <point x="1156" y="888"/>
      <point x="1156" y="1068" type="curve" smooth="yes"/>
      <point x="1156" y="1079" type="line" smooth="yes"/>
      <point x="1156" y="1271"/>
      <point x="1004" y="1392"/>
      <point x="721" y="1392" type="curve" smooth="yes"/>
      <point x="455" y="1392"/>
      <point x="289" y="1289"/>
      <point x="289" y="1097" type="curve" smooth="yes"/>
      <point x="289" y="1088" type="line" smooth="yes"/>
      <point x="289" y="1048"/>
      <point x="300" y="1010"/>
      <point x="317" y="979" type="curve"/>
      <point x="609" y="970" type="line"/>
      <point x="594" y="995"/>
      <point x="585" y="1017"/>
      <point x="585" y="1043" type="curve" smooth="yes"/>
      <point x="585" y="1050" type="line" smooth="yes"/>
      <point x="585" y="1113"/>
      <point x="629" y="1148"/>
      <point x="712" y="1148" type="curve" smooth="yes"/>
      <point x="797" y="1148"/>
      <point x="837" y="1118"/>
      <point x="837" y="1065" type="curve" smooth="yes"/>
      <point x="837" y="1059" type="line" smooth="yes"/>
      <point x="837" y="1004"/>
      <point x="791" y="972"/>
      <point x="687" y="939" type="curve" smooth="yes"/>
      <point x="474" y="871" type="line" smooth="yes"/>
      <point x="203" y="785"/>
      <point x="54" y="683"/>
      <point x="54" y="443" type="curve" smooth="yes"/>
      <point x="54" y="422" type="line" smooth="yes"/>
      <point x="54" y="135"/>
      <point x="302" y="-24"/>
    </contour>
    <contour>
      <point x="1448" y="-123" type="curve"/>
      <point x="1448" y="125" type="line"/>
      <point x="1370" y="127"/>
      <point x="1286" y="135"/>
      <point x="1229" y="154" type="curve"/>
      <point x="985" y="30" type="line"/>
      <point x="1108" y="-56"/>
      <point x="1280" y="-114"/>
    </contour>
  </outline>
</glyph>
<glyph name="MatraVocalicL.or" format="2">
  <unicode hex="0B62"/>
  <anchor x="-94" y="86" name="_bottom"/>
  <outline>
    <contour>
      <point x="-276" y="-848" type="curve" smooth="yes"/>
      <point x="-47" y="-848"/>
      <point x="90" y="-769"/>
      <point x="90" y="-626" type="curve" smooth="yes"/>
      <point x="90" y="-615" type="line" smooth="yes"/>
      <point x="90" y="-512"/>
      <point x="22" y="-444"/>
      <point x="-125" y="-444" type="curve" smooth="yes"/>
      <point x="-251" y="-444"/>
      <point x="-343" y="-500"/>
      <point x="-343" y="-601" type="curve" smooth="yes"/>
      <point x="-343" y="-608" type="line" smooth="yes"/>
      <point x="-343" y="-664"/>
      <point x="-307" y="-701"/>
      <point x="-251" y="-718" type="curve"/>
      <point x="-131" y="-697" type="line"/>
      <point x="-161" y="-685"/>
      <point x="-183" y="-660"/>
      <point x="-183" y="-629" type="curve" smooth="yes"/>
      <point x="-183" y="-625" type="line" smooth="yes"/>
      <point x="-183" y="-589"/>
      <point x="-164" y="-570"/>
      <point x="-130" y="-570" type="curve" smooth="yes"/>
      <point x="-96" y="-570"/>
      <point x="-79" y="-588"/>
      <point x="-79" y="-624" type="curve" smooth="yes"/>
      <point x="-79" y="-627" type="line" smooth="yes"/>
      <point x="-79" y="-659"/>
      <point x="-108" y="-687"/>
      <point x="-163" y="-693" type="curve"/>
      <point x="-213" y="-701" type="line"/>
      <point x="-234" y="-702"/>
      <point x="-251" y="-702"/>
      <point x="-270" y="-702" type="curve"/>
      <point x="-413" y="-700"/>
      <point x="-468" y="-662"/>
      <point x="-468" y="-593" type="curve" smooth="yes"/>
      <point x="-468" y="-588" type="line" smooth="yes"/>
      <point x="-468" y="-535"/>
      <point x="-442" y="-506"/>
      <point x="-374" y="-481" type="curve" smooth="yes"/>
      <point x="-260" y="-439" type="line" smooth="yes"/>
      <point x="-102" y="-381"/>
      <point x="-43" y="-343"/>
      <point x="-43" y="-243" type="curve" smooth="yes"/>
      <point x="-43" y="-237" type="line" smooth="yes"/>
      <point x="-43" y="-131"/>
      <point x="-129" y="-64"/>
      <point x="-287" y="-64" type="curve" smooth="yes"/>
      <point x="-437" y="-64"/>
      <point x="-530" y="-121"/>
      <point x="-530" y="-227" type="curve" smooth="yes"/>
      <point x="-530" y="-232" type="line" smooth="yes"/>
      <point x="-530" y="-254"/>
      <point x="-524" y="-276"/>
      <point x="-514" y="-293" type="curve"/>
      <point x="-348" y="-298" type="line"/>
      <point x="-357" y="-285"/>
      <point x="-362" y="-273"/>
      <point x="-362" y="-259" type="curve" smooth="yes"/>
      <point x="-362" y="-255" type="line" smooth="yes"/>
      <point x="-362" y="-222"/>
      <point x="-337" y="-204"/>
      <point x="-291" y="-204" type="curve" smooth="yes"/>
      <point x="-244" y="-204"/>
      <point x="-222" y="-219"/>
      <point x="-222" y="-247" type="curve" smooth="yes"/>
      <point x="-222" y="-250" type="line" smooth="yes"/>
      <point x="-222" y="-276"/>
      <point x="-250" y="-289"/>
      <point x="-308" y="-307" type="curve" smooth="yes"/>
      <point x="-425" y="-344" type="line" smooth="yes"/>
      <point x="-573" y="-391"/>
      <point x="-658" y="-452"/>
      <point x="-658" y="-589" type="curve" smooth="yes"/>
      <point x="-658" y="-601" type="line" smooth="yes"/>
      <point x="-658" y="-760"/>
      <point x="-519" y="-848"/>
    </contour>
  </outline>
</glyph>
<glyph name="MatraVocalicLl.or" format="2">
  <unicode hex="0B63"/>
  <outline>
    <contour>
      <point x="-310" y="-784" type="curve" smooth="yes"/>
      <point x="-232" y="-784"/>
      <point x="-166" y="-774"/>
      <point x="-112" y="-755" type="curve"/>
      <point x="-44" y="-708" type="line"/>
      <point x="26" y="-672"/>
      <point x="56" y="-622"/>
      <point x="56" y="-557" type="curve" smooth="yes"/>
      <point x="56" y="-551" type="line" smooth="yes"/>
      <point x="56" y="-448"/>
      <point x="-12" y="-380"/>
      <point x="-159" y="-380" type="curve" smooth="yes"/>
      <point x="-285" y="-380"/>
      <point x="-377" y="-436"/>
      <point x="-377" y="-537" type="curve" smooth="yes"/>
      <point x="-377" y="-544" type="line" smooth="yes"/>
      <point x="-377" y="-600"/>
      <point x="-341" y="-637"/>
      <point x="-285" y="-654" type="curve"/>
      <point x="-165" y="-633" type="line"/>
      <point x="-195" y="-621"/>
      <point x="-217" y="-596"/>
      <point x="-217" y="-565" type="curve" smooth="yes"/>
      <point x="-217" y="-561" type="line" smooth="yes"/>
      <point x="-217" y="-525"/>
      <point x="-198" y="-506"/>
      <point x="-164" y="-506" type="curve" smooth="yes"/>
      <point x="-130" y="-506"/>
      <point x="-113" y="-524"/>
      <point x="-113" y="-560" type="curve" smooth="yes"/>
      <point x="-113" y="-563" type="line" smooth="yes"/>
      <point x="-113" y="-595"/>
      <point x="-142" y="-623"/>
      <point x="-197" y="-629" type="curve"/>
      <point x="-247" y="-637" type="line"/>
      <point x="-268" y="-638"/>
      <point x="-285" y="-638"/>
      <point x="-304" y="-638" type="curve"/>
      <point x="-447" y="-636"/>
      <point x="-502" y="-598"/>
      <point x="-502" y="-529" type="curve" smooth="yes"/>
      <point x="-502" y="-524" type="line" smooth="yes"/>
      <point x="-502" y="-471"/>
      <point x="-476" y="-442"/>
      <point x="-408" y="-417" type="curve" smooth="yes"/>
      <point x="-294" y="-375" type="line" smooth="yes"/>
      <point x="-136" y="-317"/>
      <point x="-77" y="-279"/>
      <point x="-77" y="-179" type="curve" smooth="yes"/>
      <point x="-77" y="-173" type="line" smooth="yes"/>
      <point x="-77" y="-67"/>
      <point x="-163" y="0"/>
      <point x="-321" y="0" type="curve" smooth="yes"/>
      <point x="-471" y="0"/>
      <point x="-564" y="-57"/>
      <point x="-564" y="-163" type="curve" smooth="yes"/>
      <point x="-564" y="-168" type="line" smooth="yes"/>
      <point x="-564" y="-190"/>
      <point x="-558" y="-212"/>
      <point x="-548" y="-229" type="curve"/>
      <point x="-382" y="-234" type="line"/>
      <point x="-391" y="-221"/>
      <point x="-396" y="-209"/>
      <point x="-396" y="-195" type="curve" smooth="yes"/>
      <point x="-396" y="-191" type="line" smooth="yes"/>
      <point x="-396" y="-158"/>
      <point x="-371" y="-140"/>
      <point x="-325" y="-140" type="curve" smooth="yes"/>
      <point x="-278" y="-140"/>
      <point x="-256" y="-155"/>
      <point x="-256" y="-183" type="curve" smooth="yes"/>
      <point x="-256" y="-186" type="line" smooth="yes"/>
      <point x="-256" y="-212"/>
      <point x="-284" y="-225"/>
      <point x="-342" y="-243" type="curve" smooth="yes"/>
      <point x="-459" y="-280" type="line" smooth="yes"/>
      <point x="-607" y="-327"/>
      <point x="-692" y="-388"/>
      <point x="-692" y="-525" type="curve" smooth="yes"/>
      <point x="-692" y="-537" type="line" smooth="yes"/>
      <point x="-692" y="-696"/>
      <point x="-553" y="-784"/>
    </contour>
    <contour>
      <point x="84" y="-844" type="curve"/>
      <point x="84" y="-694" type="line"/>
      <point x="43" y="-692"/>
      <point x="-5" y="-687"/>
      <point x="-40" y="-677" type="curve"/>
      <point x="-191" y="-751" type="line"/>
      <point x="-117" y="-802"/>
      <point x="-14" y="-839"/>
    </contour>
  </outline>
</glyph>
<glyph name="zero.or" format="2">
  <advance width="1223"/>
  <unicode hex="0B66"/>
  <outline>
    <contour>
      <point x="60" y="817" type="curve" smooth="yes"/>
      <point x="60" y="543" type="line" smooth="yes"/>
      <point x="60" y="164"/>
      <point x="251" y="-31"/>
      <point x="611" y="-31" type="curve" smooth="yes"/>
      <point x="972" y="-31"/>
      <point x="1163" y="163"/>
      <point x="1163" y="543" type="curve" smooth="yes"/>
      <point x="1163" y="817" type="line" smooth="yes"/>
      <point x="1163" y="1196"/>
      <point x="972" y="1389"/>
      <point x="611" y="1389" type="curve" smooth="yes"/>
      <point x="250" y="1389"/>
      <point x="60" y="1196"/>
    </contour>
    <contour>
      <point x="401" y="528" type="curve" smooth="yes"/>
      <point x="401" y="832" type="line" smooth="yes"/>
      <point x="401" y="1007"/>
      <point x="470" y="1096"/>
      <point x="611" y="1096" type="curve" smooth="yes"/>
      <point x="751" y="1096"/>
      <point x="822" y="1007"/>
      <point x="822" y="832" type="curve" smooth="yes"/>
      <point x="822" y="528" type="line" smooth="yes"/>
      <point x="822" y="353"/>
      <point x="751" y="264"/>
      <point x="611" y="264" type="curve" smooth="yes"/>
      <point x="470" y="264"/>
      <point x="401" y="353"/>
    </contour>
  </outline>
</glyph>
<glyph name="one.or" format="2">
  <advance width="1142"/>
  <unicode hex="0B67"/>
  <outline>
    <contour>
      <point x="587" y="1391" type="curve" smooth="yes"/>
      <point x="924" y="1391"/>
      <point x="1088" y="1237"/>
      <point x="1088" y="956" type="curve" smooth="yes"/>
      <point x="1088" y="908" type="line" smooth="yes"/>
      <point x="1088" y="655"/>
      <point x="968" y="507"/>
      <point x="727" y="507" type="curve" smooth="yes"/>
      <point x="554" y="507"/>
      <point x="455" y="571"/>
      <point x="404" y="674" type="curve"/>
      <point x="343" y="674" type="line"/>
      <point x="389" y="891" type="line"/>
      <point x="427" y="825"/>
      <point x="499" y="779"/>
      <point x="601" y="779" type="curve" smooth="yes"/>
      <point x="707" y="779"/>
      <point x="758" y="830"/>
      <point x="758" y="926" type="curve" smooth="yes"/>
      <point x="758" y="955" type="line" smooth="yes"/>
      <point x="758" y="1049"/>
      <point x="704" y="1105"/>
      <point x="591" y="1105" type="curve" smooth="yes"/>
      <point x="463" y="1105"/>
      <point x="394" y="1027"/>
      <point x="394" y="894" type="curve" smooth="yes"/>
      <point x="394" y="764" type="line"/>
      <point x="394" y="731" type="line"/>
      <point x="394" y="636" type="line" smooth="yes"/>
      <point x="394" y="407"/>
      <point x="563" y="296"/>
      <point x="863" y="296" type="curve" smooth="yes"/>
      <point x="1021" y="296" type="line"/>
      <point x="980" y="0" type="line"/>
      <point x="809" y="0" type="line" smooth="yes"/>
      <point x="327" y="0"/>
      <point x="62" y="217"/>
      <point x="62" y="632" type="curve" smooth="yes"/>
      <point x="62" y="855" type="line" smooth="yes"/>
      <point x="62" y="1197"/>
      <point x="248" y="1391"/>
    </contour>
  </outline>
</glyph>
<glyph name="two.or" format="2">
  <advance width="1142"/>
  <unicode hex="0B68"/>
  <outline>
    <contour>
      <point x="556" y="1391" type="curve" smooth="yes"/>
      <point x="894" y="1391"/>
      <point x="1080" y="1197"/>
      <point x="1080" y="855" type="curve" smooth="yes"/>
      <point x="1080" y="632" type="line" smooth="yes"/>
      <point x="1080" y="217"/>
      <point x="815" y="0"/>
      <point x="333" y="0" type="curve" smooth="yes"/>
      <point x="162" y="0" type="line"/>
      <point x="121" y="296" type="line"/>
      <point x="279" y="296" type="line" smooth="yes"/>
      <point x="579" y="296"/>
      <point x="748" y="407"/>
      <point x="748" y="636" type="curve" smooth="yes"/>
      <point x="748" y="731" type="line"/>
      <point x="748" y="764" type="line"/>
      <point x="748" y="894" type="line" smooth="yes"/>
      <point x="748" y="1027"/>
      <point x="681" y="1105"/>
      <point x="556" y="1105" type="curve" smooth="yes"/>
      <point x="440" y="1105"/>
      <point x="384" y="1049"/>
      <point x="384" y="955" type="curve" smooth="yes"/>
      <point x="384" y="926" type="line" smooth="yes"/>
      <point x="384" y="830"/>
      <point x="440" y="779"/>
      <point x="556" y="779" type="curve" smooth="yes"/>
      <point x="651" y="779"/>
      <point x="718" y="825"/>
      <point x="753" y="891" type="curve"/>
      <point x="799" y="674" type="line"/>
      <point x="738" y="674" type="line"/>
      <point x="690" y="571"/>
      <point x="597" y="507"/>
      <point x="435" y="507" type="curve" smooth="yes"/>
      <point x="181" y="507"/>
      <point x="54" y="655"/>
      <point x="54" y="908" type="curve" smooth="yes"/>
      <point x="54" y="956" type="line" smooth="yes"/>
      <point x="54" y="1237"/>
      <point x="225" y="1391"/>
    </contour>
  </outline>
</glyph>
<glyph name="three.or" format="2">
  <advance width="1570"/>
  <unicode hex="0B69"/>
  <outline>
    <contour>
      <point x="459" y="1390" type="curve" smooth="yes"/>
      <point x="192" y="1390"/>
      <point x="54" y="1231"/>
      <point x="54" y="967" type="curve" smooth="yes"/>
      <point x="54" y="823" type="line" smooth="yes"/>
      <point x="54" y="573"/>
      <point x="157" y="441"/>
      <point x="361" y="441" type="curve" smooth="yes"/>
      <point x="533" y="441"/>
      <point x="592" y="523"/>
      <point x="614" y="647" type="curve"/>
      <point x="698" y="647" type="line"/>
      <point x="616" y="844" type="line"/>
      <point x="616" y="761"/>
      <point x="575" y="721"/>
      <point x="504" y="721" type="curve" smooth="yes"/>
      <point x="428" y="721"/>
      <point x="391" y="763"/>
      <point x="391" y="850" type="curve" smooth="yes"/>
      <point x="391" y="973" type="line" smooth="yes"/>
      <point x="391" y="1063"/>
      <point x="428" y="1107"/>
      <point x="504" y="1107" type="curve" smooth="yes"/>
      <point x="579" y="1107"/>
      <point x="616" y="1063"/>
      <point x="616" y="973" type="curve" smooth="yes"/>
      <point x="616" y="692" type="line"/>
      <point x="628" y="680" type="line"/>
      <point x="619" y="361" type="line"/>
      <point x="619" y="0" type="line"/>
      <point x="944" y="0" type="line"/>
      <point x="944" y="973" type="line" smooth="yes"/>
      <point x="944" y="1063"/>
      <point x="974" y="1107"/>
      <point x="1047" y="1107" type="curve" smooth="yes"/>
      <point x="1120" y="1107"/>
      <point x="1151" y="1063"/>
      <point x="1151" y="973" type="curve" smooth="yes"/>
      <point x="1151" y="0" type="line"/>
      <point x="1481" y="0" type="line"/>
      <point x="1481" y="972" type="line" smooth="yes"/>
      <point x="1481" y="1251"/>
      <point x="1366" y="1390"/>
      <point x="1124" y="1390" type="curve" smooth="yes"/>
      <point x="941" y="1390"/>
      <point x="838" y="1311"/>
      <point x="796" y="1175" type="curve"/>
      <point x="788" y="1175" type="line"/>
      <point x="746" y="1315"/>
      <point x="643" y="1390"/>
    </contour>
  </outline>
</glyph>
<glyph name="four.or" format="2">
  <advance width="1177"/>
  <unicode hex="0B6A"/>
  <outline>
    <contour>
      <point x="628" y="698" type="line"/>
      <point x="1287" y="1347" type="line"/>
      <point x="1287" y="1351" type="line"/>
      <point x="877" y="1351" type="line"/>
      <point x="412" y="870" type="line"/>
    </contour>
    <contour>
      <point x="502" y="762" type="line"/>
      <point x="737" y="918" type="line"/>
      <point x="305" y="1351" type="line"/>
      <point x="-110" y="1351" type="line"/>
      <point x="-110" y="1347" type="line"/>
    </contour>
    <contour>
      <point x="588" y="-29" type="curve" smooth="yes"/>
      <point x="925" y="-29"/>
      <point x="1094" y="125"/>
      <point x="1094" y="383" type="curve" smooth="yes"/>
      <point x="1094" y="394" type="line" smooth="yes"/>
      <point x="1094" y="544"/>
      <point x="1029" y="655"/>
      <point x="894" y="782" type="curve" smooth="yes"/>
      <point x="766" y="903" type="line"/>
      <point x="553" y="709" type="line"/>
      <point x="667" y="597" type="line" smooth="yes"/>
      <point x="733" y="533"/>
      <point x="764" y="485"/>
      <point x="764" y="407" type="curve" smooth="yes"/>
      <point x="764" y="403" type="line" smooth="yes"/>
      <point x="764" y="302"/>
      <point x="700" y="252"/>
      <point x="590" y="252" type="curve" smooth="yes"/>
      <point x="481" y="252"/>
      <point x="417" y="303"/>
      <point x="417" y="402" type="curve" smooth="yes"/>
      <point x="417" y="406" type="line" smooth="yes"/>
      <point x="417" y="484"/>
      <point x="452" y="538"/>
      <point x="515" y="598" type="curve" smooth="yes"/>
      <point x="642" y="719" type="line"/>
      <point x="408" y="894" type="line"/>
      <point x="287" y="781" type="line" smooth="yes"/>
      <point x="155" y="658"/>
      <point x="87" y="548"/>
      <point x="87" y="394" type="curve" smooth="yes"/>
      <point x="87" y="383" type="line" smooth="yes"/>
      <point x="87" y="123"/>
      <point x="255" y="-29"/>
    </contour>
  </outline>
</glyph>
<glyph name="five.or" format="2">
  <advance width="1496"/>
  <unicode hex="0B6B"/>
  <outline>
    <contour>
      <point x="692" y="565" type="curve"/>
      <point x="848" y="549"/>
      <point x="908" y="506"/>
      <point x="908" y="405" type="curve"/>
      <point x="908" y="392" type="line"/>
      <point x="908" y="298"/>
      <point x="851" y="245"/>
      <point x="732" y="245" type="curve" smooth="yes"/>
      <point x="605" y="245"/>
      <point x="552" y="298"/>
      <point x="552" y="392" type="curve"/>
      <point x="552" y="405" type="line"/>
      <point x="552" y="488"/>
      <point x="592" y="539"/>
    </contour>
    <contour>
      <point x="798" y="802" type="curve"/>
      <point x="641" y="812"/>
      <point x="585" y="867"/>
      <point x="585" y="959" type="curve"/>
      <point x="585" y="973" type="line"/>
      <point x="585" y="1066"/>
      <point x="639" y="1117"/>
      <point x="756" y="1117" type="curve" smooth="yes"/>
      <point x="873" y="1117"/>
      <point x="929" y="1066"/>
      <point x="929" y="972" type="curve"/>
      <point x="929" y="957" type="line"/>
      <point x="929" y="868"/>
      <point x="886" y="820"/>
    </contour>
    <contour>
      <point x="755" y="1391" type="curve" smooth="yes"/>
      <point x="431" y="1391"/>
      <point x="266" y="1257"/>
      <point x="266" y="1033" type="curve" smooth="yes"/>
      <point x="266" y="1023" type="line" smooth="yes"/>
      <point x="266" y="882"/>
      <point x="332" y="811"/>
      <point x="448" y="766" type="curve"/>
      <point x="453" y="641" type="line"/>
      <point x="291" y="605"/>
      <point x="226" y="506"/>
      <point x="226" y="358" type="curve" smooth="yes"/>
      <point x="226" y="339" type="line" smooth="yes"/>
      <point x="226" y="102"/>
      <point x="387" y="-33"/>
      <point x="733" y="-33" type="curve" smooth="yes"/>
      <point x="1068" y="-33"/>
      <point x="1231" y="103"/>
      <point x="1231" y="331" type="curve" smooth="yes"/>
      <point x="1231" y="351" type="line" smooth="yes"/>
      <point x="1231" y="479"/>
      <point x="1168" y="543"/>
      <point x="997" y="594" type="curve"/>
      <point x="1024" y="716" type="line"/>
      <point x="1211" y="756"/>
      <point x="1255" y="865"/>
      <point x="1255" y="999" type="curve" smooth="yes"/>
      <point x="1255" y="1013" type="line" smooth="yes"/>
      <point x="1255" y="1257"/>
      <point x="1086" y="1391"/>
    </contour>
    <contour>
      <point x="1491" y="413" type="line"/>
      <point x="1491" y="699" type="line"/>
      <point x="941" y="804" type="line"/>
      <point x="923" y="537" type="line"/>
    </contour>
    <contour>
      <point x="6" y="919" type="line"/>
      <point x="6" y="634" type="line"/>
      <point x="503" y="551" type="line"/>
      <point x="549" y="813" type="line"/>
    </contour>
  </outline>
</glyph>
<glyph name="six.or" format="2">
  <advance width="1213"/>
  <unicode hex="0B6C"/>
  <outline>
    <contour>
      <point x="546" y="1110" type="curve" smooth="yes"/>
      <point x="735" y="1110"/>
      <point x="821" y="1012"/>
      <point x="821" y="806" type="curve" smooth="yes"/>
      <point x="821" y="682" type="line" smooth="yes"/>
      <point x="821" y="414"/>
      <point x="634" y="294"/>
      <point x="265" y="294" type="curve" smooth="yes"/>
      <point x="120" y="294" type="line"/>
      <point x="161" y="0" type="line"/>
      <point x="297" y="0" type="line" smooth="yes"/>
      <point x="849" y="0"/>
      <point x="1151" y="231"/>
      <point x="1151" y="677" type="curve" smooth="yes"/>
      <point x="1151" y="805" type="line" smooth="yes"/>
      <point x="1151" y="1203"/>
      <point x="935" y="1391"/>
      <point x="574" y="1391" type="curve" smooth="yes"/>
      <point x="350" y="1391"/>
      <point x="166" y="1297"/>
      <point x="81" y="1188" type="curve"/>
      <point x="81" y="966" type="line"/>
      <point x="272" y="949"/>
      <point x="347" y="919"/>
      <point x="347" y="830" type="curve" smooth="yes"/>
      <point x="347" y="823" type="line" smooth="yes"/>
      <point x="347" y="760"/>
      <point x="312" y="730"/>
      <point x="226" y="730" type="curve" smooth="yes"/>
      <point x="163" y="730"/>
      <point x="102" y="748"/>
      <point x="49" y="771" type="curve"/>
      <point x="67" y="519" type="line"/>
      <point x="127" y="488"/>
      <point x="199" y="469"/>
      <point x="302" y="469" type="curve" smooth="yes"/>
      <point x="530" y="469"/>
      <point x="673" y="579"/>
      <point x="673" y="793" type="curve" smooth="yes"/>
      <point x="673" y="814" type="line" smooth="yes"/>
      <point x="673" y="1024"/>
      <point x="542" y="1117"/>
      <point x="234" y="1132" type="curve"/>
      <point x="296" y="1021" type="line"/>
      <point x="359" y="1080"/>
      <point x="418" y="1110"/>
    </contour>
  </outline>
</glyph>
<glyph name="seven.or" format="2">
  <advance width="1365"/>
  <unicode hex="0B6D"/>
  <outline>
    <contour>
      <point x="657" y="1391" type="curve" smooth="yes"/>
      <point x="1082" y="1391"/>
      <point x="1303" y="1198"/>
      <point x="1303" y="805" type="curve" smooth="yes"/>
      <point x="1303" y="677" type="line" smooth="yes"/>
      <point x="1303" y="231"/>
      <point x="1001" y="0"/>
      <point x="449" y="0" type="curve" smooth="yes"/>
      <point x="275" y="0" type="line"/>
      <point x="234" y="294" type="line"/>
      <point x="417" y="294" type="line" smooth="yes"/>
      <point x="786" y="294"/>
      <point x="973" y="414"/>
      <point x="973" y="682" type="curve" smooth="yes"/>
      <point x="973" y="806" type="line" smooth="yes"/>
      <point x="973" y="1013"/>
      <point x="873" y="1109"/>
      <point x="655" y="1109" type="curve" smooth="yes"/>
      <point x="462" y="1109"/>
      <point x="361" y="1034"/>
      <point x="361" y="881" type="curve" smooth="yes"/>
      <point x="361" y="847" type="line"/>
      <point x="363" y="829" type="line"/>
      <point x="363" y="792" type="line"/>
      <point x="365" y="725"/>
      <point x="401" y="681"/>
      <point x="466" y="681" type="curve" smooth="yes"/>
      <point x="518" y="681"/>
      <point x="543" y="704"/>
      <point x="543" y="747" type="curve"/>
      <point x="543" y="750" type="line"/>
      <point x="543" y="794"/>
      <point x="519" y="815"/>
      <point x="468" y="815" type="curve" smooth="yes"/>
      <point x="417" y="815"/>
      <point x="379" y="789"/>
      <point x="352" y="756" type="curve"/>
      <point x="350" y="880" type="line"/>
      <point x="370" y="880" type="line"/>
      <point x="396" y="970"/>
      <point x="470" y="1028"/>
      <point x="591" y="1028" type="curve" smooth="yes"/>
      <point x="752" y="1028"/>
      <point x="837" y="940"/>
      <point x="837" y="771" type="curve" smooth="yes"/>
      <point x="837" y="751" type="line" smooth="yes"/>
      <point x="837" y="550"/>
      <point x="700" y="443"/>
      <point x="455" y="443" type="curve" smooth="yes"/>
      <point x="193" y="443"/>
      <point x="54" y="581"/>
      <point x="54" y="836" type="curve" smooth="yes"/>
      <point x="54" y="873" type="line" smooth="yes"/>
      <point x="54" y="1193"/>
      <point x="274" y="1391"/>
    </contour>
  </outline>
</glyph>
<glyph name="eight.or" format="2">
  <advance width="1030"/>
  <unicode hex="0B6E"/>
  <outline>
    <contour>
      <point x="424" y="1" type="line"/>
      <point x="94" y="1" type="line"/>
      <point x="94" y="1351" type="line"/>
      <point x="1002" y="1350" type="line"/>
      <point x="1002" y="1062" type="line"/>
      <point x="424" y="1063" type="line"/>
    </contour>
  </outline>
</glyph>
<glyph name="nine.or" format="2">
  <advance width="1185"/>
  <unicode hex="0B6F"/>
  <outline>
    <contour>
      <point x="1115" y="610" type="line"/>
      <point x="1115" y="1350" type="line"/>
      <point x="790" y="1350" type="line"/>
      <point x="790" y="1205" type="line" smooth="yes"/>
      <point x="790" y="1097"/>
      <point x="798" y="995"/>
      <point x="803" y="906" type="curve"/>
      <point x="883" y="906" type="line"/>
      <point x="480" y="1350" type="line"/>
      <point x="166" y="1350" type="line"/>
      <point x="100" y="1142"/>
      <point x="62" y="963"/>
      <point x="62" y="757" type="curve" smooth="yes"/>
      <point x="62" y="722" type="line" smooth="yes"/>
      <point x="62" y="233"/>
      <point x="338" y="0"/>
      <point x="894" y="0" type="curve" smooth="yes"/>
      <point x="1026" y="0" type="line"/>
      <point x="1066" y="296" type="line"/>
      <point x="920" y="296" type="line" smooth="yes"/>
      <point x="578" y="296"/>
      <point x="394" y="419"/>
      <point x="394" y="721" type="curve" smooth="yes"/>
      <point x="394" y="750" type="line" smooth="yes"/>
      <point x="394" y="849"/>
      <point x="417" y="996"/>
      <point x="462" y="1106" type="curve"/>
      <point x="327" y="1089" type="line"/>
      <point x="799" y="612" type="line"/>
    </contour>
  </outline>
</glyph>
<glyph name="Isshar.or" format="2">
  <advance width="1451"/>
  <unicode hex="0B70"/>
  <outline>
    <contour>
      <point x="328" y="943" type="line"/>
      <point x="659" y="311" type="line"/>
      <point x="684" y="311" type="line"/>
      <point x="1130" y="1363" type="line"/>
      <point x="1466" y="1363" type="line"/>
      <point x="882" y="0" type="line"/>
      <point x="486" y="0" type="line"/>
      <point x="-15" y="943" type="line"/>
    </contour>
    <contour>
      <point x="647" y="806" type="curve" smooth="yes"/>
      <point x="758" y="806"/>
      <point x="816" y="868"/>
      <point x="816" y="967" type="curve" smooth="yes"/>
      <point x="816" y="977" type="line" smooth="yes"/>
      <point x="816" y="1074"/>
      <point x="757" y="1138"/>
      <point x="647" y="1138" type="curve" smooth="yes"/>
      <point x="537" y="1138"/>
      <point x="479" y="1075"/>
      <point x="479" y="977" type="curve" smooth="yes"/>
      <point x="479" y="967" type="line" smooth="yes"/>
      <point x="479" y="868"/>
      <point x="537" y="806"/>
    </contour>
  </outline>
</glyph>
<glyph name="Wa.or" format="2">
  <advance width="1423"/>
  <unicode hex="0B71"/>
  <anchor x="1242" y="7" name="bottom"/>
  <anchor x="1692" y="-55" name="rasmall"/>
  <anchor x="716" y="1840" name="top1"/>
  <outline>
    <contour>
      <point x="556" y="1013" type="curve"/>
      <point x="832" y="1012" type="line"/>
      <point x="823" y="1034"/>
      <point x="816" y="1048"/>
      <point x="816" y="1075" type="curve" smooth="yes"/>
      <point x="816" y="1080" type="line" smooth="yes"/>
      <point x="816" y="1139"/>
      <point x="854" y="1170"/>
      <point x="926" y="1170" type="curve" smooth="yes"/>
      <point x="997" y="1170"/>
      <point x="1038" y="1137"/>
      <point x="1038" y="1074" type="curve" smooth="yes"/>
      <point x="1038" y="1066" type="line" smooth="yes"/>
      <point x="1038" y="984"/>
      <point x="970" y="947"/>
      <point x="816" y="945" type="curve" smooth="yes"/>
      <point x="745" y="944" type="line"/>
      <point x="745" y="722" type="line"/>
      <point x="812" y="722" type="line" smooth="yes"/>
      <point x="906" y="722"/>
      <point x="1002" y="734"/>
      <point x="1066" y="763" type="curve"/>
      <point x="1195" y="831" type="line"/>
      <point x="1300" y="896"/>
      <point x="1341" y="969"/>
      <point x="1341" y="1076" type="curve" smooth="yes"/>
      <point x="1341" y="1088" type="line" smooth="yes"/>
      <point x="1341" y="1286"/>
      <point x="1196" y="1396"/>
      <point x="925" y="1396" type="curve" smooth="yes"/>
      <point x="669" y="1396"/>
      <point x="534" y="1296"/>
      <point x="534" y="1117" type="curve" smooth="yes"/>
      <point x="534" y="1110" type="line" smooth="yes"/>
      <point x="534" y="1071"/>
      <point x="544" y="1040"/>
    </contour>
    <contour>
      <point x="770" y="331" type="curve" smooth="yes"/>
      <point x="1150" y="331"/>
      <point x="1363" y="452"/>
      <point x="1363" y="665" type="curve" smooth="yes"/>
      <point x="1363" y="679" type="line" smooth="yes"/>
      <point x="1363" y="793"/>
      <point x="1296" y="866"/>
      <point x="1190" y="906" type="curve"/>
      <point x="973" y="771" type="line"/>
      <point x="1011" y="761"/>
      <point x="1033" y="738"/>
      <point x="1033" y="704" type="curve"/>
      <point x="1033" y="700" type="line"/>
      <point x="1033" y="640"/>
      <point x="960" y="604"/>
      <point x="772" y="604" type="curve" smooth="yes"/>
      <point x="501" y="604"/>
      <point x="374" y="724"/>
      <point x="374" y="937" type="curve" smooth="yes"/>
      <point x="374" y="967" type="line" smooth="yes"/>
      <point x="374" y="1105"/>
      <point x="408" y="1213"/>
      <point x="489" y="1359" type="curve"/>
      <point x="179" y="1359" type="line"/>
      <point x="96" y="1229"/>
      <point x="61" y="1091"/>
      <point x="61" y="950" type="curve" smooth="yes"/>
      <point x="61" y="917" type="line" smooth="yes"/>
      <point x="61" y="528"/>
      <point x="307" y="331"/>
    </contour>
    <contour>
      <point x="506" y="296" type="curve" smooth="yes"/>
      <point x="506" y="304" type="line" smooth="yes"/>
      <point x="506" y="337"/>
      <point x="519" y="367"/>
      <point x="552" y="391" type="curve"/>
      <point x="296" y="532" type="line"/>
      <point x="224" y="463"/>
      <point x="190" y="378"/>
      <point x="190" y="286" type="curve" smooth="yes"/>
      <point x="190" y="269" type="line" smooth="yes"/>
      <point x="190" y="50"/>
      <point x="332" y="-68"/>
      <point x="591" y="-68" type="curve" smooth="yes"/>
      <point x="801" y="-68"/>
      <point x="898" y="-6"/>
      <point x="928" y="97" type="curve"/>
      <point x="939" y="97" type="line"/>
      <point x="935" y="-6" type="line"/>
      <point x="935" y="-101" type="line"/>
      <point x="1242" y="-101" type="line"/>
      <point x="1242" y="497" type="line"/>
      <point x="934" y="497" type="line"/>
      <point x="934" y="199" type="line"/>
      <point x="942" y="281" type="line"/>
      <point x="925" y="230"/>
      <point x="853" y="182"/>
      <point x="707" y="182" type="curve" smooth="yes"/>
      <point x="561" y="182"/>
      <point x="506" y="225"/>
    </contour>
  </outline>
</glyph>
<glyph name="onequarter.or" format="2">
  <advance width="508"/>
  <unicode hex="0B72"/>
  <outline>
    <contour>
      <point x="94" y="1211" type="line"/>
      <point x="414" y="1211" type="line"/>
      <point x="414" y="0" type="line"/>
      <point x="94" y="0" type="line"/>
    </contour>
  </outline>
</glyph>
<glyph name="onehalf.or" format="2">
  <advance width="989"/>
  <unicode hex="0B73"/>
  <outline>
    <contour>
      <point x="373" y="1211" type="curve"/>
      <point x="58" y="1211" type="line"/>
      <point x="58" y="1170"/>
      <point x="58" y="1016"/>
      <point x="58" y="950" type="curve" smooth="yes"/>
      <point x="58" y="875" type="line" smooth="yes"/>
      <point x="58" y="662"/>
      <point x="149" y="544"/>
      <point x="358" y="544" type="curve" smooth="yes"/>
      <point x="479" y="544"/>
      <point x="542" y="592"/>
      <point x="569" y="648" type="curve"/>
      <point x="637" y="648" type="line"/>
      <point x="579" y="853" type="line"/>
      <point x="567" y="815"/>
      <point x="533" y="791"/>
      <point x="481" y="791" type="curve" smooth="yes"/>
      <point x="406" y="791"/>
      <point x="373" y="835"/>
      <point x="373" y="925" type="curve" smooth="yes"/>
      <point x="373" y="1005" type="line" smooth="yes"/>
      <point x="373" y="1049"/>
      <point x="373" y="1162"/>
    </contour>
    <contour>
      <point x="576" y="0" type="line"/>
      <point x="895" y="0" type="line"/>
      <point x="895" y="1211" type="line"/>
      <point x="576" y="1211" type="line"/>
      <point x="576" y="779" type="line"/>
      <point x="580" y="727" type="line"/>
      <point x="576" y="454" type="line"/>
    </contour>
  </outline>
</glyph>
<glyph name="threequarter.or" format="2">
  <advance width="1484"/>
  <unicode hex="0B74"/>
  <outline>
    <contour>
      <point x="881" y="1211" type="curve"/>
      <point x="566" y="1211" type="line"/>
      <point x="566" y="1169"/>
      <point x="566" y="1016"/>
      <point x="566" y="950" type="curve" smooth="yes"/>
      <point x="566" y="870" type="line" smooth="yes"/>
      <point x="566" y="651"/>
      <point x="654" y="544"/>
      <point x="858" y="544" type="curve" smooth="yes"/>
      <point x="978" y="544"/>
      <point x="1041" y="592"/>
      <point x="1067" y="648" type="curve"/>
      <point x="1135" y="648" type="line"/>
      <point x="1077" y="853" type="line"/>
      <point x="1066" y="815"/>
      <point x="1033" y="791"/>
      <point x="984" y="791" type="curve" smooth="yes"/>
      <point x="912" y="791"/>
      <point x="881" y="833"/>
      <point x="881" y="920" type="curve" smooth="yes"/>
      <point x="881" y="1005" type="line" smooth="yes"/>
      <point x="881" y="1050"/>
      <point x="881" y="1162"/>
    </contour>
    <contour>
      <point x="1071" y="0" type="line"/>
      <point x="1390" y="0" type="line"/>
      <point x="1390" y="1211" type="line"/>
      <point x="1074" y="1211" type="line"/>
      <point x="1074" y="777" type="line"/>
      <point x="1078" y="727" type="line"/>
      <point x="1071" y="454" type="line"/>
    </contour>
    <contour>
      <point x="373" y="1211" type="curve"/>
      <point x="58" y="1211" type="line"/>
      <point x="58" y="1170"/>
      <point x="58" y="1016"/>
      <point x="58" y="950" type="curve" smooth="yes"/>
      <point x="58" y="880" type="line" smooth="yes"/>
      <point x="58" y="653"/>
      <point x="157" y="544"/>
      <point x="365" y="544" type="curve" smooth="yes"/>
      <point x="497" y="544"/>
      <point x="561" y="590"/>
      <point x="605" y="655" type="curve"/>
      <point x="655" y="655" type="line"/>
      <point x="571" y="853" type="line"/>
      <point x="561" y="815"/>
      <point x="527" y="791"/>
      <point x="476" y="791" type="curve" smooth="yes"/>
      <point x="404" y="791"/>
      <point x="373" y="833"/>
      <point x="373" y="920" type="curve" smooth="yes"/>
      <point x="373" y="1005" type="line" smooth="yes"/>
      <point x="373" y="1050"/>
      <point x="373" y="1162"/>
    </contour>
  </outline>
</glyph>
<glyph name="onesixteenth.or" format="2">
  <advance width="943"/>
  <unicode hex="0B75"/>
  <outline>
    <contour>
      <point x="-10" y="0" type="line"/>
      <point x="595" y="1211" type="line"/>
      <point x="953" y="1211" type="line"/>
      <point x="348" y="0" type="line"/>
    </contour>
  </outline>
</glyph>
<glyph name="oneeigth.or" format="2">
  <advance width="2018"/>
  <unicode hex="0B76"/>
  <outline>
    <contour>
      <point x="476" y="-36" type="curve" smooth="yes"/>
      <point x="192" y="-36"/>
      <point x="33" y="102"/>
      <point x="33" y="359" type="curve" smooth="yes"/>
      <point x="33" y="375" type="line" smooth="yes"/>
      <point x="33" y="698"/>
      <point x="258" y="880"/>
      <point x="625" y="880" type="curve" smooth="yes"/>
      <point x="1025" y="880"/>
      <point x="1237" y="709"/>
      <point x="1237" y="382" type="curve" smooth="yes"/>
      <point x="1237" y="352"/>
      <point x="1235" y="322"/>
      <point x="1230" y="295" type="curve"/>
      <point x="1242" y="295" type="line"/>
      <point x="1291" y="436"/>
      <point x="1329" y="543"/>
      <point x="1392" y="666" type="curve" smooth="yes"/>
      <point x="1669" y="1208" type="line"/>
      <point x="2028" y="1208" type="line"/>
      <point x="1416" y="0" type="line"/>
      <point x="932" y="0" type="line"/>
      <point x="963" y="104"/>
      <point x="977" y="180"/>
      <point x="977" y="266" type="curve" smooth="yes"/>
      <point x="977" y="291" type="line" smooth="yes"/>
      <point x="977" y="507"/>
      <point x="860" y="619"/>
      <point x="618" y="619" type="curve" smooth="yes"/>
      <point x="415" y="619"/>
      <point x="320" y="538"/>
      <point x="320" y="393" type="curve" smooth="yes"/>
      <point x="320" y="347" type="line"/>
      <point x="325" y="347" type="line"/>
      <point x="325" y="323" type="line" smooth="yes"/>
      <point x="325" y="238"/>
      <point x="381" y="185"/>
      <point x="468" y="185" type="curve" smooth="yes"/>
      <point x="541" y="185"/>
      <point x="569" y="212"/>
      <point x="569" y="262" type="curve" smooth="yes"/>
      <point x="569" y="268" type="line" smooth="yes"/>
      <point x="569" y="319"/>
      <point x="538" y="344"/>
      <point x="469" y="344" type="curve" smooth="yes"/>
      <point x="397" y="344"/>
      <point x="342" y="313"/>
      <point x="310" y="267" type="curve"/>
      <point x="306" y="395" type="line"/>
      <point x="327" y="395" type="line"/>
      <point x="361" y="489"/>
      <point x="447" y="542"/>
      <point x="589" y="542" type="curve" smooth="yes"/>
      <point x="764" y="542"/>
      <point x="861" y="448"/>
      <point x="861" y="270" type="curve" smooth="yes"/>
      <point x="861" y="259" type="line" smooth="yes"/>
      <point x="861" y="77"/>
      <point x="738" y="-36"/>
    </contour>
  </outline>
</glyph>
<glyph name="threesixteenth.or" format="2">
  <advance width="2008"/>
  <unicode hex="0B77"/>
  <outline>
    <contour>
      <point x="369" y="727" type="curve" smooth="yes"/>
      <point x="522" y="727"/>
      <point x="606" y="662"/>
      <point x="637" y="556" type="curve"/>
      <point x="644" y="556" type="line"/>
      <point x="678" y="662"/>
      <point x="764" y="727"/>
      <point x="918" y="727" type="curve" smooth="yes"/>
      <point x="1118" y="727"/>
      <point x="1216" y="606"/>
      <point x="1216" y="431" type="curve" smooth="yes"/>
      <point x="1216" y="384"/>
      <point x="1214" y="339"/>
      <point x="1210" y="293" type="curve"/>
      <point x="1222" y="293" type="line"/>
      <point x="1264" y="422"/>
      <point x="1336" y="576"/>
      <point x="1382" y="666" type="curve" smooth="yes"/>
      <point x="1659" y="1208" type="line"/>
      <point x="2018" y="1208" type="line"/>
      <point x="1406" y="0" type="line"/>
      <point x="919" y="0" type="line"/>
      <point x="919" y="363" type="line" smooth="yes"/>
      <point x="919" y="439"/>
      <point x="900" y="471"/>
      <point x="847" y="471" type="curve" smooth="yes"/>
      <point x="796" y="471"/>
      <point x="775" y="439"/>
      <point x="775" y="363" type="curve" smooth="yes"/>
      <point x="775" y="0" type="line"/>
      <point x="484" y="0" type="line"/>
      <point x="484" y="363" type="line" smooth="yes"/>
      <point x="484" y="439"/>
      <point x="465" y="471"/>
      <point x="413" y="471" type="curve" smooth="yes"/>
      <point x="361" y="471"/>
      <point x="340" y="439"/>
      <point x="340" y="363" type="curve" smooth="yes"/>
      <point x="340" y="242" type="line" smooth="yes"/>
      <point x="340" y="155"/>
      <point x="344" y="83"/>
      <point x="360" y="0" type="curve"/>
      <point x="58" y="0" type="line"/>
      <point x="41" y="78"/>
      <point x="33" y="149"/>
      <point x="33" y="252" type="curve" smooth="yes"/>
      <point x="33" y="348" type="line" smooth="yes"/>
      <point x="33" y="595"/>
      <point x="153" y="727"/>
    </contour>
  </outline>
</glyph>
<glyph name="BaBa.or" format="2">
  <advance width="1803"/>
  <anchor x="1385" y="86" name="bottom"/>
  <anchor x="1835" y="46" name="rasmall"/>
  <anchor x="881" y="1840" name="top1"/>
  <anchor x="1404" y="1412" name="top2"/>
  <outline>
    <contour>
      <point x="286" y="344" type="curve"/>
      <point x="462" y="589" type="line"/>
      <point x="404" y="643"/>
      <point x="393" y="672"/>
      <point x="393" y="756" type="curve" smooth="yes"/>
      <point x="393" y="776" type="line" smooth="yes"/>
      <point x="393" y="987"/>
      <point x="549" y="1097"/>
      <point x="879" y="1097" type="curve" smooth="yes"/>
      <point x="1247" y="1097"/>
      <point x="1419" y="955"/>
      <point x="1419" y="671" type="curve" smooth="yes"/>
      <point x="1419" y="638" type="line" smooth="yes"/>
      <point x="1419" y="555"/>
      <point x="1417" y="491"/>
      <point x="1404" y="421" type="curve"/>
      <point x="1721" y="455" type="line"/>
      <point x="1742" y="529"/>
      <point x="1751" y="614"/>
      <point x="1751" y="692" type="curve" smooth="yes"/>
      <point x="1751" y="711" type="line" smooth="yes"/>
      <point x="1751" y="1156"/>
      <point x="1440" y="1392"/>
      <point x="878" y="1392" type="curve" smooth="yes"/>
      <point x="354" y="1392"/>
      <point x="53" y="1177"/>
      <point x="53" y="778" type="curve" smooth="yes"/>
      <point x="53" y="738" type="line" smooth="yes"/>
      <point x="53" y="519"/>
      <point x="151" y="396"/>
    </contour>
    <contour>
      <point x="604" y="291" type="curve" smooth="yes"/>
      <point x="557" y="291"/>
      <point x="534" y="320"/>
      <point x="534" y="381" type="curve" smooth="yes"/>
      <point x="534" y="419" type="line" smooth="yes"/>
      <point x="534" y="480"/>
      <point x="557" y="509"/>
      <point x="604" y="509" type="curve" smooth="yes"/>
      <point x="651" y="509"/>
      <point x="673" y="480"/>
      <point x="673" y="419" type="curve" smooth="yes"/>
      <point x="673" y="376" type="line" smooth="yes"/>
      <point x="673" y="319"/>
      <point x="648" y="291"/>
    </contour>
    <contour>
      <point x="1078" y="0" type="line"/>
      <point x="1385" y="0" type="line"/>
      <point x="1385" y="421" type="line" smooth="yes"/>
      <point x="1385" y="657"/>
      <point x="1273" y="765"/>
      <point x="1073" y="765" type="curve" smooth="yes"/>
      <point x="926" y="765"/>
      <point x="825" y="709"/>
      <point x="791" y="594" type="curve"/>
      <point x="784" y="594" type="line"/>
      <point x="757" y="710"/>
      <point x="685" y="765"/>
      <point x="569" y="765" type="curve" smooth="yes"/>
      <point x="456" y="765"/>
      <point x="386" y="712"/>
      <point x="349" y="618" type="curve"/>
      <point x="282" y="597" type="line"/>
      <point x="247" y="548"/>
      <point x="234" y="484"/>
      <point x="234" y="418" type="curve" smooth="yes"/>
      <point x="234" y="347" type="line" smooth="yes"/>
      <point x="234" y="150"/>
      <point x="321" y="46"/>
      <point x="488" y="46" type="curve" smooth="yes"/>
      <point x="632" y="46"/>
      <point x="696" y="105"/>
      <point x="718" y="214" type="curve"/>
      <point x="725" y="214" type="line"/>
      <point x="742" y="109"/>
      <point x="793" y="46"/>
      <point x="905" y="46" type="curve" smooth="yes"/>
      <point x="1014" y="46"/>
      <point x="1061" y="105"/>
      <point x="1079" y="214" type="curve"/>
      <point x="1137" y="214" type="line"/>
      <point x="1085" y="375" type="line"/>
      <point x="1085" y="319"/>
      <point x="1060" y="291"/>
      <point x="1016" y="291" type="curve" smooth="yes"/>
      <point x="969" y="291"/>
      <point x="946" y="320"/>
      <point x="946" y="381" type="curve" smooth="yes"/>
      <point x="946" y="419" type="line" smooth="yes"/>
      <point x="946" y="480"/>
      <point x="969" y="509"/>
      <point x="1016" y="509" type="curve" smooth="yes"/>
      <point x="1063" y="509"/>
      <point x="1085" y="480"/>
      <point x="1085" y="419" type="curve" smooth="yes"/>
      <point x="1085" y="255" type="line"/>
      <point x="1091" y="227" type="line"/>
      <point x="1078" y="69" type="line"/>
    </contour>
  </outline>
</glyph>
